<svg xmlns="http://www.w3.org/2000/svg" width="111.49" height="121.05" viewBox="0 0 111.49 121.05"><defs><style>.a{fill:#f0f0f0;}.b{fill:#e0e0e0;}.c{fill:#37474f;}.d,.k,.m{fill:#fff;}.e{fill:#455a64;}.f{fill:#27debf;}.g,.h{opacity:0.2;}.i{opacity:0.1;}.j{opacity:0.3;}.k{opacity:0.4;}.l{fill:#fafafa;}.m{opacity:0.5;}.n{fill:#b16668;}.o{fill:#ebebeb;}.p{fill:#263238;}.q{fill:#f5f5f5;}.r{fill:#9a4a4d;}.s{fill:#ffa8a7;}.t{fill:#f28f8f;}.u{fill:#ffbda7;}.v{opacity:0.25;}.w{fill:#f0997a;}</style></defs><g transform="translate(-192.949 -191.45)"><ellipse class="a" cx="55.412" cy="32.868" rx="55.412" ry="32.868" transform="translate(193.615 246.764)"/><ellipse class="b" cx="16.553" cy="9.557" rx="16.553" ry="9.557" transform="translate(200.114 277.927)"/><path class="b" d="M270.679,302.445a3.533,3.533,0,0,1-1.741-.434l-44.392-25.63a1.932,1.932,0,0,1,0-3.482l26.788-15.466a3.7,3.7,0,0,1,3.482,0l44.392,25.63c.7.4,1.57.785,1.57,1.741s-.875,1.34-1.571,1.741L272.42,302.011A3.533,3.533,0,0,1,270.679,302.445Z"/><path class="c" d="M292.808,274.035l-3.281-1.893a34.56,34.56,0,0,1-.345-10.255c1.2-8.75,5.956-10.06,7.772-9.441s2.348,2.728-.641,7.054A24.026,24.026,0,0,0,292.808,274.035Z"/><path class="d" d="M290.746,271.174l.022,0a.16.16,0,0,0,.137-.181c-.955-6.738,1.731-14.133,4.767-17.12a.161.161,0,1,0-.225-.229c-3.092,3.041-5.829,10.556-4.86,17.394A.16.16,0,0,0,290.746,271.174Z"/><path class="e" d="M298.888,277.521c.367.185,1.337-.651,1.608-.854a3.4,3.4,0,0,0,1.06-1.356,3.184,3.184,0,0,0,.18-1.926,7.53,7.53,0,0,0-.3-1l-.336-.971a2.489,2.489,0,0,1-.2-.986,2.594,2.594,0,0,1,1.146-1.62,2.48,2.48,0,0,0,1.126-1.923,2.865,2.865,0,0,0-.806-1.662c-.415-.471-.9-.88-1.277-1.38a2,2,0,0,1-.476-1.24,2.074,2.074,0,0,1,.232-.8,11.073,11.073,0,0,0,.778-1.627,1.591,1.591,0,0,0-.363-1.666,1.868,1.868,0,0,0-1.416-.273,3.221,3.221,0,0,0-1.275.527c-1.25.786-1.9,2.352-3.242,2.976a13.807,13.807,0,0,1-1.634.494,2.042,2.042,0,0,0-1.315,1.007c-.5,1.148.676,2.241-.156,3.357-.257.345-.594.624-.868.956a3.988,3.988,0,0,0-.9,3.435,3.794,3.794,0,0,0,1.724,2.694S298.832,277.493,298.888,277.521Z"/><path class="d" d="M295.336,275.684h0a.16.16,0,0,0,.147-.175c-.606-6.357,2.02-13.552,4.094-15.713a.161.161,0,0,0-.232-.223c-2.115,2.2-4.8,9.519-4.182,15.966A.162.162,0,0,0,295.336,275.684Z"/><path class="d" d="M295.944,267.841a.165.165,0,0,0,.047-.01,21.577,21.577,0,0,1,4.584-.993.161.161,0,0,0,.145-.175.157.157,0,0,0-.176-.145,21.931,21.931,0,0,0-4.664,1.012.16.16,0,0,0,.064.311Z"/><path class="f" d="M208.092,282.936l2.079-.748a32.734,32.734,0,0,0-.14-7.5c-.845-5.583-4.89-10.331-8.346-10.995-4.457-.856-3.778,3.287-1.269,5.135A18.744,18.744,0,0,1,208.092,282.936Z"/><g class="g"><path d="M208.092,282.936l2.079-.748a32.734,32.734,0,0,0-.14-7.5c-.845-5.583-4.89-10.331-8.346-10.995-4.457-.856-3.778,3.287-1.269,5.135A18.744,18.744,0,0,1,208.092,282.936Z"/></g><path class="d" d="M209.112,282.677l-.025,0a.243.243,0,0,1-.186-.291c1.115-5.106-2.845-14.747-8.422-17.608a.244.244,0,0,1,.223-.435c5.746,2.948,9.826,12.884,8.676,18.148A.243.243,0,0,1,209.112,282.677Z"/><path class="f" d="M209.42,282.458c.1-.6.163-1.492.181-1.71a5.618,5.618,0,0,0-.268-2.285,4.5,4.5,0,0,0-1.832-2.355,3.727,3.727,0,0,1-1.318-.968,3.011,3.011,0,0,1-.312-1.371,2.943,2.943,0,0,0-.89-2.073,3.092,3.092,0,0,0-2.2-.463,5.474,5.474,0,0,1-3.152-.329,22.36,22.36,0,0,0-2.507-1.216c-1.087-.408-3.538-1.018-4.1.512a1.5,1.5,0,0,0,.19,1.266,4.433,4.433,0,0,0,.9.967l1.68,1.48a2.2,2.2,0,0,1,.507.562c.319.581.061,1.3.116,1.959a2.334,2.334,0,0,0,1.008,1.673,3.129,3.129,0,0,0,1.912.52c.9-.036,2.387-.685,2.906.392a3.4,3.4,0,0,1,.234,1.145,2.167,2.167,0,0,0,.341,1.109,2.193,2.193,0,0,0,1.533.68,8.966,8.966,0,0,1,2.356.448c.3.129.488.529.66.794C207.928,283,208.551,282.8,209.42,282.458Z"/><path class="d" d="M208.44,283.021a.223.223,0,0,1-.19-.143c-2.033-5.372-6.867-9.666-13.611-12.093a.222.222,0,0,1-.134-.285.224.224,0,0,1,.285-.134c6.868,2.471,11.8,6.859,13.877,12.354a.223.223,0,0,1-.129.287A.211.211,0,0,1,208.44,283.021Z"/><path class="f" d="M270.085,299.845l-44.392-25.63a2.442,2.442,0,0,1-1.1-1.912v-5.821a2.442,2.442,0,0,1,1.1-1.912L252.481,249.1a2.438,2.438,0,0,1,2.207,0l44.392,25.63a2.439,2.439,0,0,1,1.1,1.912v5.821a2.439,2.439,0,0,1-1.1,1.912l-26.787,15.466A2.44,2.44,0,0,1,270.085,299.845Z"/><path class="h" d="M300.183,276.645v5.823a2.437,2.437,0,0,1-1.1,1.912l-26.785,15.464a2.268,2.268,0,0,1-1.1.265v-8.372a2.258,2.258,0,0,0,1.1-.262l26.785-15.467c.571-.329.61-.849.112-1.2A2.46,2.46,0,0,1,300.183,276.645Z"/><path class="i" d="M271.19,291.737v8.372a2.257,2.257,0,0,1-1.1-.265l-44.392-25.628a2.437,2.437,0,0,1-1.1-1.912l0-5.823a2.469,2.469,0,0,1,.992-1.84c-.495.354-.457.874.112,1.2l44.394,25.631A2.255,2.255,0,0,0,271.19,291.737Z"/><path class="f" d="M299.08,276.009l-26.787,15.465a2.44,2.44,0,0,1-2.208,0l-44.392-25.629a.673.673,0,0,1,0-1.275L252.481,249.1a2.438,2.438,0,0,1,2.207,0l44.392,25.63A.673.673,0,0,1,299.08,276.009Z"/><path class="f" d="M241.877,275.351a1.507,1.507,0,0,0-1.567-.1c-.149.087-.77.439-.93.538a2.52,2.52,0,0,0-.975,1.822,3.048,3.048,0,0,0-.563-.649l.16-.093c.319-.185.47-.652.47-1.284a3.225,3.225,0,0,0-1.616-2.991l-1.629-.941-.765.44v-.881l-1.2-.691-.894.516v1.868l-1.206-3.6-1.2-.691-.893.516v.871a5.915,5.915,0,0,0-2.276-3.364,1.513,1.513,0,0,0-1.541-.106l0-.005-.034.019h0l-.876.5c-.455.224-1.092,1.03-1.092,2.762,0,2.361,1.1,4.826,2.647,5.722a1.521,1.521,0,0,0,1.578.114c.149-.087.728-.424.871-.5a1.789,1.789,0,0,0,.721-.839v2.911l1.2.691.894-.516V275.53l1.206,3.6,1.2.691.764-.442v.883l1.991,1.15a1.191,1.191,0,0,0,1.174.165c.158-.088.761-.44.911-.528a.792.792,0,0,0,.254-.243,5.794,5.794,0,0,0,2.32,3.442,1.536,1.536,0,0,0,1.531.14c.168-.089.772-.448.914-.526.669-.365,1.089-1.362,1.089-2.8C244.518,278.7,243.334,276.192,241.877,275.351Zm-14.813-2a1.269,1.269,0,0,1-.263-.115,3.693,3.693,0,0,1-1.356-3.193,3.261,3.261,0,0,1,.2-1.224,1.2,1.2,0,0,1,.259.112c.929.536,1.349,1.984,1.349,3.189A3.429,3.429,0,0,1,227.064,273.356Zm9.36,5.656v-.76a1.562,1.562,0,0,1,.352.964Zm5.716,3.048a1.293,1.293,0,0,1-.263-.115,3.692,3.692,0,0,1-1.355-3.193,3.244,3.244,0,0,1,.2-1.224,1.221,1.221,0,0,1,.259.112c.929.537,1.348,1.984,1.348,3.19A3.406,3.406,0,0,1,242.14,282.06Z"/><path class="f" d="M269.2,294.827l.875-.495.783-.871a4.981,4.981,0,0,0-2.024-2.549,1.449,1.449,0,0,0-1.449-.128c-.167.088-.8.454-.947.544a1.822,1.822,0,0,0-.691.834v-2.886l-1.2-.69-.894.516v1.867l-1.206-3.6-1.2-.69-.764.441v-.882l-1.2-.691-.894.516v.926a5.841,5.841,0,0,0-2.282-3.276l-1.521-.878-.893.516v5.837l-1.09-2.644s.28-.162.421-.242c.368-.209.594-.747.594-1.625a3.832,3.832,0,0,0-1.711-3.389l-1.878-1.084-.893.516v4.424l-1.43-6.281-1.107-.639-.894.516-2.118,6.86,1.285.742.893-.516.141-.5,1.352.78.388,1.841,1.285.742.205-.118v.236l1.2.691.894-.516V288.6l.71,1.824,1.52.878.237-.137v.273l1.52.878a1.585,1.585,0,0,0,1.6.131c.16-.088.774-.45.925-.539a1.726,1.726,0,0,0,.652-.748v2.99l1.2.69.763-.44v.881l1.2.691.893-.516V293.59l1.206,3.6,1.2.691.893-.516v-.86a5.8,5.8,0,0,0,2.194,3.3,1.542,1.542,0,0,0,1.544.139c.15-.084.724-.427.867-.5a2.106,2.106,0,0,0,.906-1.673v-1.754Zm-17.822-10.261-.14-.08v-.855a1.81,1.81,0,0,1,.239.966v.025Zm4.416,1.9a4.58,4.58,0,0,1,.787,2.594,2.749,2.749,0,0,1-.22,1.16,1.239,1.239,0,0,1-.382-.148l-.185-.107Zm13.355,10.782a1.852,1.852,0,0,1-.054.472,1.194,1.194,0,0,1-.191-.087,2.324,2.324,0,0,1-.819-1Zm-.315-2.635-.893.516v1.179a5.374,5.374,0,0,1-.373-1.936,3.1,3.1,0,0,1,.248-1.323.872.872,0,0,1,.2.083,2.833,2.833,0,0,1,1.155,1.673Z"/><path class="h" d="M240.984,275.867c1.457.841,2.64,3.347,2.64,5.708,0,1.437-.421,2.433-1.089,2.8.186-.1.756-.44.894-.515.669-.365,1.089-1.362,1.089-2.8,0-2.361-1.184-4.867-2.641-5.708a1.507,1.507,0,0,0-1.567-.1c-.149.087-.77.439-.93.538l-.006,0A1.5,1.5,0,0,1,240.984,275.867Z"/><path class="j" d="M236.424,279.012v-.76a1.932,1.932,0,0,0-.519-.418l-.375-.217v1.911l.375.217c.566.326.878.242.878-.395,0-.047-.005-.09-.007-.134Z"/><path class="h" d="M232.36,276.052l.013.007v-3.15l-1.206-3.6-1.2-.691-.894.516,1.2.691Z"/><path class="i" d="M230.273,269.83l.894-.516,1.206,3.6v3.149Z"/><path class="j" d="M236.421,275.623a1.4,1.4,0,0,0-.8-1.282l-.1-.055v1.744l.1.055C236.141,276.383,236.421,276.3,236.421,275.623Z"/><path class="h" d="M238.4,277.616a3.048,3.048,0,0,0-.563-.649s.108-.061.166-.1c.315-.187.464-.652.464-1.281a3.225,3.225,0,0,0-1.616-2.991l-1.629-.941-.765.44v-.881l-1.2-.691-.893.516,1.2.691v8.084h0l.764-.442v-7.2l1.629.941a3.225,3.225,0,0,1,1.617,2.991c0,.744-.21,1.26-.656,1.356a3.286,3.286,0,0,1,1.12,2.684c0,.739-.194,1.238-.552,1.43l.008,0c.158-.088.761-.44.911-.528a.792.792,0,0,0,.254-.243,8.343,8.343,0,0,1-.327-2.28A5.912,5.912,0,0,1,238.4,277.616Z"/><path class="j" d="M241.877,281.945a3.692,3.692,0,0,1-1.355-3.193,3.244,3.244,0,0,1,.2-1.224c.039.012.08.027.121.044-.828-.363-1.218.553-1.218,1.7a3.693,3.693,0,0,0,1.356,3.193.716.716,0,0,0,1.156-.4A1.293,1.293,0,0,1,241.877,281.945Z"/><path class="h" d="M226.8,266.644a1.511,1.511,0,0,0-1.537-.108h0l-.006,0c-.017.009-.034.018-.05.028l-.855.489a1.342,1.342,0,0,1,.473-.155,1.722,1.722,0,0,1,1.081.259c1.457.841,2.641,3.347,2.641,5.708,0,1.426-.415,2.415-1.074,2.788l.011-.005c.149-.087.728-.423.871-.5a1.781,1.781,0,0,0,.721-.838v-4.3A5.909,5.909,0,0,0,226.8,266.644Z"/><path class="j" d="M225.445,270.048a3.261,3.261,0,0,1,.2-1.224,1.041,1.041,0,0,1,.121.044c-.827-.364-1.217.552-1.217,1.7a3.692,3.692,0,0,0,1.355,3.193.717.717,0,0,0,1.157-.4,1.269,1.269,0,0,1-.263-.115A3.693,3.693,0,0,1,225.445,270.048Z"/><path class="h" d="M252.61,286.548s.28-.162.421-.242c.368-.209.594-.747.594-1.625a3.832,3.832,0,0,0-1.711-3.389l-1.878-1.084-.893.516,1.877,1.084a3.833,3.833,0,0,1,1.712,3.389c0,1.215-.433,1.778-1.076,1.721l1.807,4.385h0l.236-.137v-1.975Z"/><path class="j" d="M267.811,293.051c.029.009.059.019.088.031-.688-.3-1.23.475-1.23,1.808a4.11,4.11,0,0,0,1.336,3.26.668.668,0,0,0,1.085-.428,1.118,1.118,0,0,1-.191-.088,2.315,2.315,0,0,1-.819-1l-.145-.083v-.242a5.4,5.4,0,0,1-.372-1.936A3.1,3.1,0,0,1,267.811,293.051Z"/><path class="h" d="M256.114,283.717l-1.521-.878-.893.516,1.52.878c1.438.83,2.647,3.214,2.647,5.565,0,1.442-.45,2.37-1.128,2.686.027-.012.054-.022.08-.036.16-.088.774-.45.925-.539a1.726,1.726,0,0,0,.652-.748v-4.168A5.841,5.841,0,0,0,256.114,283.717Z"/><path class="j" d="M255.789,289.967v-3.5a2.32,2.32,0,0,0-.709-.669l-.184-.107v4.791l.184.107a.817.817,0,0,0,1.276-.368,1.239,1.239,0,0,1-.382-.148Z"/><path class="j" d="M250.339,289.5h0l.894-.516V288.6l-.894-2.3Z"/><path class="h" d="M261.553,287.889l2.087,6.222.013.007v-3.15l-1.206-3.6-1.2-.691-.764.442v-.883l-1.2-.691-.893.516,1.2.691v8.084h0l.764-.44v-7.2Z"/><path class="j" d="M245.267,284.954l-.388,1.393h0l.894-.516.14-.5Z"/><path class="j" d="M246.259,281.558l-.585,2.014,1.184.683-.585-2.69Z"/><path class="j" d="M261.553,290.956v5.017h0l.894-.516V293.59l-.881-2.626Z"/><path class="h" d="M265.742,292.162v-2.886l-1.2-.69-.894.516,1.2.69v8.084h0l.893-.516v-.86a8.234,8.234,0,0,1-.364-2.356A4.8,4.8,0,0,1,265.742,292.162Z"/><path class="h" d="M247.713,278.867l-1.107-.639-.894.516,1.107.639,2.119,9.307h0l.2-.118v-3.424Z"/><path class="j" d="M251.233,284.486v-.855a1.96,1.96,0,0,0-.754-.665l-.14-.081V285l.14.081c.448.259.982.518.992-.46l-.1-.056Z"/><path class="h" d="M269.2,294.827l.875-.495.783-.871a4.981,4.981,0,0,0-2.024-2.549,1.449,1.449,0,0,0-1.449-.128c-.152.081-.686.39-.893.512a1.459,1.459,0,0,1,1.448.131,4.987,4.987,0,0,1,2.024,2.55l-.783.871-.015-.041-.332-.192-.893.516,2.424,1.4v1.754a2.12,2.12,0,0,1-.9,1.667l.017-.008c.15-.084.724-.427.867-.5a2.108,2.108,0,0,0,.906-1.673v-1.754Z"/><path class="i" d="M229.077,274.313v-4.3q-.091-.3-.2-.582l-.894.513a8.235,8.235,0,0,1,.566,2.931c0,1.425-.414,2.415-1.073,2.788l.011-.005c.149-.087.728-.424.871-.5A1.791,1.791,0,0,0,229.077,274.313Z"/><path class="i" d="M233.569,271.733l.894-.516v.881l-.129.076v7.2l-.764.441Z"/><path class="i" d="M246.819,279.383l.894-.516,1.43,6.281v3.424l-.2.118Z"/><path class="i" d="M252.61,286.548l-.454.263a.71.71,0,0,1-.5.107l1.807,4.385.237-.137v-1.974Z"/><path class="i" d="M260.486,286.242l-.894.516v8.084l.764-.44v-7.2l.13-.074Z"/><path class="i" d="M261.553,287.889l.894-.516,1.206,3.6v3.149Z"/><path class="i" d="M269.959,293.977l.894-.516-.783.871-.894.516Z"/><path class="i" d="M270.36,298.285a2.12,2.12,0,0,1-.9,1.667l.017-.008c.15-.084.724-.427.867-.5a2.108,2.108,0,0,0,.906-1.673v-1.754l-.893.516Z"/><path class="i" d="M257.867,289.8c0,1.442-.45,2.37-1.128,2.686.027-.012.054-.022.08-.036.16-.088.774-.45.925-.539a1.726,1.726,0,0,0,.652-.748v-4.168c-.049-.156-.1-.309-.162-.46l-.893.516A7.751,7.751,0,0,1,257.867,289.8Z"/><path class="i" d="M244.518,281.059a8.219,8.219,0,0,0-.525-2.818l-.893.516a8.218,8.218,0,0,1,.524,2.818c0,1.437-.421,2.433-1.089,2.8.186-.1.756-.44.894-.515C244.1,283.493,244.518,282.5,244.518,281.059Z"/><path class="i" d="M238.043,280.146c0,.739-.194,1.238-.552,1.43l.008,0c.158-.088.761-.44.911-.528a.792.792,0,0,0,.254-.243,8.343,8.343,0,0,1-.327-2.28,5.912,5.912,0,0,1,.068-.906,3.048,3.048,0,0,0-.563-.649l-.721.415-.025.013-.038.019a.548.548,0,0,1-.135.048A3.286,3.286,0,0,1,238.043,280.146Z"/><path class="j" d="M230.273,272.9v5.017h0l.894-.516v-1.867l-.881-2.626Z"/><path class="i" d="M264.849,289.792v8.084l.893-.516v-.86a8.234,8.234,0,0,1-.364-2.356,4.8,4.8,0,0,1,.364-1.982v-2.886Z"/><path class="f" d="M225.907,267.162c1.457.841,2.64,3.347,2.64,5.709s-1.132,3.54-2.64,2.669c-1.552-.9-2.647-3.361-2.647-5.722S224.463,266.328,225.907,267.162Zm0,6.6c.954.551,1.349-.427,1.349-1.632s-.42-2.653-1.349-3.189-1.355.422-1.355,1.628A3.692,3.692,0,0,0,225.907,273.757Z"/><path class="f" d="M230.273,277.914l-1.2-.691v-8.084l1.2.691,2.087,6.222.013.007v-5.017l1.2.691v8.084l-1.2-.691-2.087-6.222-.013-.007Z"/><path class="f" d="M235.962,273.115a3.225,3.225,0,0,1,1.617,2.991c0,.744-.21,1.26-.656,1.356a3.286,3.286,0,0,1,1.12,2.684c0,1.333-.63,1.89-1.718,1.262l-1.992-1.15v-8.084Zm-.337,2.97c.516.3.8.214.8-.462a1.4,1.4,0,0,0-.8-1.282l-.1-.055v1.744Zm.28,3.66c.566.326.878.242.878-.395a1.593,1.593,0,0,0-.878-1.516l-.375-.217v1.911Z"/><path class="f" d="M240.984,275.867c1.457.841,2.64,3.347,2.64,5.708s-1.132,3.54-2.64,2.669c-1.553-.9-2.647-3.36-2.647-5.722S239.539,275.033,240.984,275.867Zm0,6.594c.954.551,1.348-.426,1.348-1.632s-.419-2.652-1.348-3.189-1.356.423-1.356,1.628A3.693,3.693,0,0,0,240.984,282.461Z"/><path class="f" d="M248.938,288.69l-1.285-.742-.388-1.841-2-1.153-.388,1.392-1.286-.742,2.119-6.86,1.107.639Zm-2.666-7.124-.013-.008-.585,2.014,1.183.683Z"/><path class="f" d="M251.02,281.808a3.833,3.833,0,0,1,1.712,3.389c0,1.215-.433,1.778-1.076,1.721l1.807,4.385-1.52-.879-1.6-4.119V289.5l-1.2-.691v-8.084Zm-.541,3.274c.452.261.993.524.993-.485a1.68,1.68,0,0,0-.993-1.631l-.14-.081V285Z"/><path class="f" d="M255.22,284.233c1.438.83,2.647,3.214,2.647,5.565s-1.2,3.353-2.647,2.519l-1.521-.878v-8.084Zm-.14,6.357c.885.511,1.489-.179,1.5-1.528a3.9,3.9,0,0,0-1.5-3.263l-.184-.107v4.791Z"/><path class="f" d="M259.592,294.841l-1.2-.69v-8.084l1.2.69Z"/><path class="f" d="M261.553,295.973l-1.2-.691V287.2l1.2.691,2.087,6.222.012.007V289.1l1.2.691v8.084l-1.2-.691-2.087-6.222-.012-.007Z"/><path class="f" d="M270.36,298.285c-.287,1.882-1.394,2.115-2.425,1.52-1.412-.816-2.557-3.348-2.557-5.661s1.081-3.569,2.557-2.717a4.987,4.987,0,0,1,2.024,2.55l-.783.871a2.861,2.861,0,0,0-1.171-1.714c-.738-.427-1.336.355-1.336,1.756a4.11,4.11,0,0,0,1.336,3.26c.573.331,1.139.09,1.139-.9l-1.209-.7v-1.421l2.425,1.4Z"/><ellipse class="i" cx="12.616" cy="7.284" rx="12.616" ry="7.284" transform="translate(234.204 258.073)"/><ellipse class="i" cx="14.179" cy="8.186" rx="14.179" ry="8.186" transform="translate(256.179 270.214)"/><path class="f" d="M223.356,191.542l9.442,5.44a.831.831,0,0,1,.378.653v12.913a.822.822,0,0,1-.38.65l-1.351.757a.845.845,0,0,1-.756,0l-9.443-5.44a.834.834,0,0,1-.377-.654V192.945a.822.822,0,0,1,.38-.649l1.351-.758A.845.845,0,0,1,223.356,191.542Z"/><path class="f" d="M231.066,211.734V198.82a.834.834,0,0,0-.377-.653l-9.443-5.44c-.208-.12-.377-.022-.377.218v12.913a.834.834,0,0,0,.377.654l9.443,5.44C230.9,212.072,231.066,211.974,231.066,211.734Z"/><path class="h" d="M230.689,211.952a.867.867,0,0,0,.757,0l1.35-.759a.821.821,0,0,0,.38-.648V197.635a.777.777,0,0,0-.12-.385l-2.1,1.2a.758.758,0,0,1,.111.371v12.913C231.066,211.953,230.911,212.08,230.689,211.952Z"/><path class="k" d="M220.874,192.877c.03-.19.185-.258.373-.15l9.441,5.44a.781.781,0,0,1,.267.282l2.1-1.2a.764.764,0,0,0-.26-.269l-9.443-5.44a.842.842,0,0,0-.756,0l-1.35.757A.832.832,0,0,0,220.874,192.877Z"/><path class="f" d="M234.209,207.211c.237-.141,2.011-1.139,2.068-1.172a.353.353,0,0,0,.075-.539l-3.209-4-2.077,1.181,3.207,4.006A.355.355,0,0,1,234.209,207.211Z"/><path class="k" d="M234.209,207.211c.237-.141,2.011-1.139,2.068-1.172a.353.353,0,0,0,.075-.539l-3.209-4-2.077,1.181,3.207,4.006A.355.355,0,0,1,234.209,207.211Z"/><path class="f" d="M231.066,202.678l3.208,4a.338.338,0,0,1-.216.578l-2.992.325Z"/><path class="l" d="M225.024,200.255c0-.746.393-1.124.877-.844a2.315,2.315,0,0,1,.877,1.856c0,.746-.393,1.124-.877.844A2.315,2.315,0,0,1,225.024,200.255Z"/><path class="l" d="M226.964,206.87l-2.126-1.227a1.289,1.289,0,0,1-.478-1.114l.1-1.148c.074-.831.557-1.205,1.128-.875l.624.36a2.93,2.93,0,0,1,1.128,2.177l.1,1.266C227.48,206.774,227.255,207.038,226.964,206.87Z"/><path class="l" d="M227.3,200.143c0-.819.431-1.234.963-.927a2.54,2.54,0,0,1,.964,2.04c0,.819-.431,1.234-.964.927A2.541,2.541,0,0,1,227.3,200.143Z"/><path class="l" d="M229.376,207.377l-1.408-.813-.1-1.261a4.74,4.74,0,0,0-.99-2.541.687.687,0,0,1,.988-.178l.685.4a3.21,3.21,0,0,1,1.24,2.392l.112,1.387C229.943,207.271,229.7,207.562,229.376,207.377Z"/><path class="l" d="M224.634,198.9a2.416,2.416,0,0,0-.915-1.938c-.506-.292-.916.1-.916.881a2.415,2.415,0,0,0,.916,1.938C224.224,200.073,224.634,199.678,224.634,198.9Z"/><path class="l" d="M225.039,201.855c-.5.022-.87.511-.941,1.328l-.1,1.088-1.338-.773a1.345,1.345,0,0,1-.5-1.163l.106-1.2c.076-.869.58-1.258,1.178-.913l.651.376A2.488,2.488,0,0,1,225.039,201.855Z"/><path class="f" d="M289.865,215.217v-3.761l-3.175-.277a.24.24,0,0,0-.132.027c-.122.068-2.68,1.538-2.719,1.561a.233.233,0,0,0-.052.358l3.366,3.649Z"/><path class="f" d="M287.153,216.774l-3.366-3.649a.232.232,0,0,1,.191-.389l3.175.277Z"/><path class="f" d="M289.864,211.455l-2.711,1.559-3.175-.278a.26.26,0,0,0-.11.016c.254-.149,2.575-1.484,2.69-1.546a.216.216,0,0,1,.133-.026Z"/><path class="m" d="M289.864,211.455l-2.711,1.559-3.175-.278a.26.26,0,0,0-.11.016c.254-.149,2.575-1.484,2.69-1.546a.216.216,0,0,1,.133-.026Z"/><path class="f" d="M289.6,206.4l9.443,5.44a.834.834,0,0,1,.377.653v12.913a.824.824,0,0,1-.379.65l-1.352.758a.845.845,0,0,1-.756,0l-9.442-5.44a.833.833,0,0,1-.378-.653V207.806a.822.822,0,0,1,.38-.649l1.351-.758A.845.845,0,0,1,289.6,206.4Z"/><path class="f" d="M297.309,226.6V213.682a.836.836,0,0,0-.377-.654l-9.442-5.439c-.209-.121-.378-.023-.378.217V220.72a.833.833,0,0,0,.378.653l9.442,5.44C297.14,226.933,297.309,226.836,297.309,226.6Z"/><path class="h" d="M296.932,226.813a.867.867,0,0,0,.757,0l1.35-.759a.818.818,0,0,0,.38-.648V212.5a.78.78,0,0,0-.12-.385l-2.1,1.2a.752.752,0,0,1,.111.371v12.912C297.309,226.815,297.154,226.942,296.932,226.813Z"/><path class="k" d="M287.117,207.738c.03-.19.185-.258.373-.15l9.441,5.44a.768.768,0,0,1,.267.283l2.1-1.2a.752.752,0,0,0-.26-.268L289.6,206.4a.842.842,0,0,0-.756,0l-1.351.757A.835.835,0,0,0,287.117,207.738Z"/><path class="d" d="M288.344,216.119l.4,1.325a.255.255,0,0,0,.177.147l.781.189a.328.328,0,0,1,.2.147,6.913,6.913,0,0,0,.42.73.289.289,0,0,1,.047.208l-.254.861a.24.24,0,0,0,.07.2l.915.966c.044.047.1.062.132.041a.055.055,0,0,0,.021-.019l.426-.652c.03-.046.109-.042.178.005s.168.111.252.159.177.1.264.139a.4.4,0,0,1,.182.177l.452,1.21a.23.23,0,0,0,.182.127l.832.082a.123.123,0,0,0,.079-.014h0a.075.075,0,0,0,.035-.082l-.263-1.192a.134.134,0,0,1,.086-.149,1.349,1.349,0,0,0,.364-.212.152.152,0,0,1,.186.031l.85.779a.15.15,0,0,0,.093.043h0a.067.067,0,0,0,.031-.007h0a.053.053,0,0,0,.023-.026l.379-.837a.216.216,0,0,0-.049-.2l-.8-.966a.338.338,0,0,1-.077-.211,3.766,3.766,0,0,0,0-.688.117.117,0,0,1,.12-.117l.715-.04a.094.094,0,0,0,.1-.119l-.393-1.326a.26.26,0,0,0-.177-.147l-.782-.188a.333.333,0,0,1-.2-.148,6.752,6.752,0,0,0-.421-.73.3.3,0,0,1-.046-.208l.255-.862a.245.245,0,0,0-.071-.2l-.914-.966c-.055-.057-.124-.066-.154-.02l-.426.65c-.03.046-.109.043-.179,0a3.881,3.881,0,0,0-.515-.3.387.387,0,0,1-.182-.175l-.451-1.211a.229.229,0,0,0-.182-.126l-.833-.084a.15.15,0,0,0-.079.014.074.074,0,0,0-.036.084l.262,1.192a.135.135,0,0,1-.085.149,1.3,1.3,0,0,0-.364.212.151.151,0,0,1-.186-.032l-.852-.777a.116.116,0,0,0-.122-.038l0,0a.046.046,0,0,0-.023.026l-.379.837a.218.218,0,0,0,.048.2l.8.965a.343.343,0,0,1,.079.211,3.177,3.177,0,0,0-.016.355c0,.108.007.22.016.333a.115.115,0,0,1-.12.116l-.714.041a.105.105,0,0,0-.052.013l0,0A.089.089,0,0,0,288.344,216.119Zm3.134,2.431a3.174,3.174,0,0,1-.9-3.046.837.837,0,0,1,.654-.517l.032,0,.031,0,.029,0h.007a1.321,1.321,0,0,1,.59.126,1.6,1.6,0,0,1,.21.107,2.856,2.856,0,0,1,.631.511,3.729,3.729,0,0,1,1.033,2.367,1.915,1.915,0,0,1-.013.242,1.464,1.464,0,0,1-.115.436.837.837,0,0,1-.784.528h-.025l-.054,0-.085-.009q-.037,0-.075-.012l-.033-.007-.046-.012A2.376,2.376,0,0,1,291.478,218.55Z"/><path class="n" d="M267.108,217.458c-1.757.346-2.893,1.272-3.269,4.023-.451,3.3-1.168,8.386-1.168,8.386s-2.335,6.61-3.524,8.1a8.028,8.028,0,0,1-1.132,1.082c-1.1,1.37-3.638,2.285-2.484,3.055a3.361,3.361,0,0,0,3.492,0,8.182,8.182,0,0,0,3.258-3.464c1.057-1.755,4.718-8.315,4.718-8.315Z"/><path class="n" d="M259.571,237.309c-.228.379-1.005.472-1.749.621s-1.312.586-1.828.691c-.443.091-.316.622.477.663s1.728-.562,1.88,0S259.971,238.316,259.571,237.309Z"/><path class="o" d="M261.121,233.724l-.472,1.1a5.388,5.388,0,0,1,2.935,1.6l.65-1.135Z"/><path class="c" d="M267.108,217.458a3.1,3.1,0,0,0-2.648,1.478c-.864,1.533-1.929,10.9-1.929,10.9l-1.72,4.367c.725-.049,2.951,1.082,3.238,1.772l3-4.916Z"/><rect class="n" width="2.605" height="4.459" transform="translate(275.31 274.479)"/><path class="n" d="M267.532,272.559l-2.6.09-.13-4.719,2.734-.089Z"/><path class="c" d="M277.82,236.784c0,2.487-.1,22.814-.1,22.814a19.877,19.877,0,0,1,.8,4.566c.077,3.739-.5,12.545-.5,12.545a3.425,3.425,0,0,1-2.9.057s-2.046-12.456-2.512-16.157c-.408-3.229-1.542-17.715-1.542-17.715l-1.991,13.778a14.827,14.827,0,0,1,.323,4.14c-.122,1.712-1.707,10.285-1.707,10.285a3.556,3.556,0,0,1-3.008.23s-.155-13.458-.185-15.028c-.035-1.791.375-20.053.375-20.053Z"/><path class="p" d="M275.31,277.653v-.372c-.139,0-.226.135-.279.471-.038.239-.074.421-.153.736a8.712,8.712,0,0,1-.454,1.334,8.151,8.151,0,0,1-1.521,2.306,9.861,9.861,0,0,0-.809.931c-.157.281-.213,1.06.055,1.239a4.527,4.527,0,0,0,3.533.364,2.133,2.133,0,0,0,1.534-1.723c.038-.24.024-.486.052-.728a3.439,3.439,0,0,1,.652-1.513,4.565,4.565,0,0,0,.5-.823,2.671,2.671,0,0,0-.1-1.671c-.121-.461-.252-.967-.409-.924v.284a2.053,2.053,0,0,1-1.3.44C276.232,278.019,275.307,277.943,275.31,277.653Z"/><path class="p" d="M264.9,271.845c.007.069-.242.281-.52.539a9.838,9.838,0,0,1-.9.692,16.6,16.6,0,0,1-1.992,1.25c-.823.452-1.565.727-2.549,1.172a.787.787,0,0,0-.275.182.553.553,0,0,0-.12.245,1.022,1.022,0,0,0,.412.983,2.714,2.714,0,0,0,1.028.437,5.279,5.279,0,0,0,2.564.077,6.608,6.608,0,0,0,1.949-.952,4.612,4.612,0,0,1,1.762-.756,4.006,4.006,0,0,0,1.711-.384c.532-.367.319-1.15.169-1.824-.164-.734-.37-1.88-.613-1.83v.253a2.834,2.834,0,0,1-2.617.318Z"/><path class="p" d="M271.072,242.894a9.65,9.65,0,0,1-3.628-2.079,7.509,7.509,0,0,0,2.782,2.53l-1.007,12.571Z"/><path class="q" d="M273.3,217.7c.886.213,2.672.5,3.073,2.272a51.538,51.538,0,0,1,.639,6.738l.164,10.274c-1.794,1.307-8.753,2.018-12.528-.739,0,0,.832-12.338.832-14.258a4.132,4.132,0,0,1,4.013-4.4Z"/><path class="e" d="M269.538,217.391a7.666,7.666,0,0,0-1.463,2.845c-.358,1.553-.694,19.191-.694,19.191a7.543,7.543,0,0,1-2.878-.922s-.176-14.412.183-16.654c.634-3.958.574-4.353,4.849-4.716Z"/><path class="e" d="M274.079,217.135s-2.454,1.511-2.482,7.52c-.023,5.2.055,15.528.055,15.528s4.076.254,6.65-1.284c0,0-.543-6.562-.573-10.232,1.072-5.208,2-10.286.5-10.7C276.689,217.544,274.079,217.135,274.079,217.135Z"/><path class="c" d="M274.355,220.421l-1.124,1.391.562,1.584-1.478,3.787L274.1,223.4l-.624-1.5Z"/><path class="c" d="M266.425,219.974l.244,1.439-.974,1.267,1.354,4.264L266,222.727l.9-1.185Z"/><path class="p" d="M272.668,208.7a3.579,3.579,0,1,1-3.58-3.58A3.58,3.58,0,0,1,272.668,208.7Z"/><path class="p" d="M275.276,211.245a30.791,30.791,0,0,1-.813,3.173,1.231,1.231,0,0,1-.713.575l.041-1.917Z"/><path class="p" d="M274.548,207.341a1.343,1.343,0,0,1,1.112.391c.477.488.211,2.016-.384,3.513l-1.092.126Z"/><path class="n" d="M273.856,211.372c.219.13.531-.29.8-.573a.95.95,0,0,1,1.592.258,1.984,1.984,0,0,1-1.083,2.411c-1.2.376-1.376-.392-1.376-.392l-.089,4.889h0c-.827,1.061-2.686,2.308-3.687,2.13-.8-.142-.973-1.491-.209-2.376l0-1.754a7.522,7.522,0,0,1-1.613.083,2.19,2.19,0,0,1-1.7-1.783,14.539,14.539,0,0,1-.228-5.775c.374-3.3,4.235-3.333,6.307-2.029S273.856,211.372,273.856,211.372Z"/><path class="p" d="M273.856,211.74c.11,0,.529-.693.8-.941.378-.344-.11-3.458-.11-3.458a1.51,1.51,0,0,0-.26-1.681c-.518-.57-1.24-1.266-3.589-.988-1.675.2-3.5.72-4.97,0a2.508,2.508,0,0,0,.873,2.662,5.028,5.028,0,0,0,1.935.515,20.756,20.756,0,0,0,3.884-.074c.407-.056.493.338.712,1.415C273.326,210.132,273.485,211.733,273.856,211.74Z"/><path class="p" d="M274.546,207.583l1.325-.711a.731.731,0,0,0-1-.332A.791.791,0,0,0,274.546,207.583Z"/><path class="r" d="M269.809,215.965a15.086,15.086,0,0,0,2.652-.761,2.265,2.265,0,0,0,.949-.939,3.1,3.1,0,0,1-.539,1.108c-.5.642-3.062,1.155-3.062,1.155Z"/><path class="p" d="M269.621,210.768a.394.394,0,1,0,.394-.41A.4.4,0,0,0,269.621,210.768Z"/><path class="p" d="M269.96,209.615l.842.465a.506.506,0,0,0-.2-.671A.47.47,0,0,0,269.96,209.615Z"/><path class="r" d="M269.987,213.6l-.9.337a.472.472,0,0,0,.611.3A.5.5,0,0,0,269.987,213.6Z"/><path class="p" d="M266.419,209.906l.884-.4a.465.465,0,0,0-.626-.254A.508.508,0,0,0,266.419,209.906Z"/><path class="p" d="M266.593,210.768a.394.394,0,1,0,.394-.41A.4.4,0,0,0,266.593,210.768Z"/><path class="r" d="M268.473,210.556l-.129,2.368-1.236-.421Z"/><path class="c" d="M268.585,219.823c.242.574.687.808,1.495.9a3,3,0,0,0,2.235-.777l-.764-.76-1.515.719-.415-.967Z"/><path class="e" d="M269.218,219.51a2.677,2.677,0,0,0-.133,1.075,1.839,1.839,0,0,0,.359.9.984.984,0,0,0,.868.094,2.37,2.37,0,0,0,.827-1.8l-1.1.125Z"/><path class="e" d="M269.444,221.481a51.452,51.452,0,0,0-1.275,9.677c.1.575.751,2.651,1.249,2.668s1.374-2.062,1.307-2.587c-.127-1-.622-9.755-.413-9.664Z"/><path class="c" d="M270.312,221.575a.872.872,0,0,1-.868-.094l-.028.112a.835.835,0,0,0,.853.222Z"/><path class="b" d="M270.036,219.9c1.557-.785,3.441-1.93,3.691-3.192l.014-.7s.614.195.772,1.222a5.314,5.314,0,0,1-2.6,3.926l-.773-1.379Z"/><path class="b" d="M269.811,216.451a1.466,1.466,0,0,0-.627.494,6.166,6.166,0,0,0-.847,3.365l.881-.8.818.393a3.533,3.533,0,0,1-.23-2.184Z"/><path class="n" d="M278.228,217.968c1.219.312,2.024.413,2.859,2.006.727,1.386,4.08,7.186,4.8,8.575a1.788,1.788,0,0,1-.232,2.431c-.754.762-5.729,5.43-6.539,6.229a3.415,3.415,0,0,1-2.224,1.069,2.34,2.34,0,0,1-2.105-.61c-1.342-1.646,1.225-1.894,2.1-2.442a4.438,4.438,0,0,0,1.082-.928l-.055-.873a2.772,2.772,0,0,0,1.23-.237c.3-.243,2.939-3.689,2.939-3.689s-3.794-5-4.281-6.04S276.765,218.77,278.228,217.968Z"/><path class="o" d="M279.819,232.177c-.021.031-.609.836-.609.836a2.138,2.138,0,0,0,.495,1.465,3.659,3.659,0,0,0,1.331,1.073l.8-.768Z"/><path class="c" d="M279.468,232.5a3.357,3.357,0,0,0,2.084,2.79s4.485-4.28,4.9-4.861.129-1.189-.774-2.772-4.453-8.044-5.033-8.718-1.537-.794-2.9-1.092a5.768,5.768,0,0,0-.566,4.007,7.823,7.823,0,0,0,1.018,2.768l3.484,4.936Z"/><path class="c" d="M243.855,260.42a1.33,1.33,0,0,1-.2.781,9.725,9.725,0,0,1-1.289,1.691c-.69.741-1.721,1.616-2.459,2.261-.411.359-.427.9.161,1.091a4.424,4.424,0,0,0,3.233-.451c.733-.395,1.779-2.216,2.39-2.492a3.226,3.226,0,0,0,1.333-.8,1.134,1.134,0,0,0,.143-1.41c-.33-.615-.827-1.565-1.032-1.46l.063.2a2.583,2.583,0,0,1-2.232.947Z"/><path class="c" d="M249.219,263.824v-.336a6.5,6.5,0,0,1-1.679,2.941c-.741.676-1.752,1.456-2.01,2.21-.267.784,1.2,1.094,2.153,1a3.868,3.868,0,0,0,2.412-1.261,8.084,8.084,0,0,0,.883-1.562c.285-.385.94-.814,1.094-1.26a2.841,2.841,0,0,0-.134-1.233c-.109-.416-.227-.872-.369-.833,0,.05,0,.256,0,.256a1.864,1.864,0,0,1-1.175.4C250.05,264.154,249.216,264.086,249.219,263.824Z"/><path class="s" d="M253.072,239.207c.344-3.365,1.032-8.705.264-12.475-3.89-.589-7.741-1.116-11.674-1.6-.947,4.884-1.4,17.9-.9,19.717a149.185,149.185,0,0,1,2.9,15.331,1.531,1.531,0,0,1-.183,1.088,7.865,7.865,0,0,1-1.112,1.506c-.329.352-.64.744-1,1.088a.341.341,0,0,0-.1.262c.065.527.836.447,1.373.263a3.652,3.652,0,0,0,1.691-1.3c.36-.455,1.059-1.283,1.437-1.774a3.472,3.472,0,0,0,.389-.6,1.333,1.333,0,0,0,.073-.89,2.265,2.265,0,0,1-.034-.233c-.021-.762.742-9.075.515-10.974a13.222,13.222,0,0,0-1.222-4.364c.485-3.546.943-7.31,1.416-10.914a115.148,115.148,0,0,0,.6,12.059c.4,2.989.594,5.043.911,7.975.3,2.808.671,7.973.706,8.75a8.252,8.252,0,0,1-.044,1.456,5.816,5.816,0,0,1-1.539,2.85c-.178.161-.371.33-.565.5-.394.439-.282.822.644.9a2.937,2.937,0,0,0,2.444-1.342,11.77,11.77,0,0,0,1.5-2.745v0h0c0-.115,0-.225,0-.32a13.479,13.479,0,0,1,.195-2.182c.387-2.3,1.224-6.446,1.362-8.285a14.771,14.771,0,0,0-.744-6.662C252.667,243.475,252.738,242.481,253.072,239.207Z"/><path class="c" d="M242.19,223.076a45.544,45.544,0,0,0-1.343,7.639c-.339,4.085-.692,12.4-.54,13.217s2.556,11.1,2.556,11.1a3.354,3.354,0,0,0,2.047.288,4.329,4.329,0,0,0,1.619-.717,47.84,47.84,0,0,0,.323-6.5,16.928,16.928,0,0,0-1.105-3.985l1.161-10.785s-.145,6.411.212,10.16,1.545,12.485,1.545,12.485a2.378,2.378,0,0,0,1.824.78,4.812,4.812,0,0,0,2.175-.552s.419-1.947.6-3.485a14.459,14.459,0,0,0-.641-6.241s.888-10.221,1.2-12.455,1.114-6.237-1.435-9.943C252.139,223.986,242.19,223.076,242.19,223.076Z"/><path class="p" d="M246.908,233.339v-.482a8.374,8.374,0,0,1-3.548-2.234,6.328,6.328,0,0,0,2.919,2.716s-.051,6.31-.043,6.242S246.908,233.339,246.908,233.339Z"/><path class="s" d="M240.866,212.706c-.854,2.515-2.282,9.74-2.282,9.74s-2.662,3.88-3.569,5c-.456.561-1.441,1.676-1.441,1.676l2.228,1.751c1.611-1.859,4.043-4.335,5.045-5.619a4.8,4.8,0,0,0,1-1.68l1.015-6.426s-.009-5.136.788-5.81,1.01-.816,1.01-.816C243.657,210.447,241.537,210.732,240.866,212.706Z"/><path class="e" d="M245.131,210.446c-1.388-.159-3.168-.131-4.035,1.423s-2.311,9.558-2.311,9.558a5.253,5.253,0,0,0,2.84,1.043Z"/><path class="c" d="M241.271,217.921a14.4,14.4,0,0,1,.289,3.641,21.821,21.821,0,0,1-1.253,4.548s.9.819,3.347.435c1.991-.311,1.287-6.318.143-7.482A3.765,3.765,0,0,0,241.271,217.921Z"/><path class="f" d="M248.689,210.562s3.324.383,3.722.561c-3.119,2.194-.594,7.075-.594,7.075l-1.2,3.745c.768.982,1.475,1.735,2.072,2.555a8.43,8.43,0,0,1,1.114,2.025c.792,2.084-8.1,5.4-12.96,1.558.2-1.207.5-2.459.778-3.583a12.219,12.219,0,0,0,.6-3.478c-1.4-4.3-1.484-5.076-1.236-6.035.7-2.7,3.451-4.527,4.13-4.527Z"/><path class="e" d="M248.689,210.562a23.65,23.65,0,0,1,3.722.561c.61.292,1.625,2.045.716,4.6a27.2,27.2,0,0,0-1.639,6.15,26.761,26.761,0,0,0,2.261,3.717,5.884,5.884,0,0,1-2,.958l-1.111-2.427.26,2.58a13.226,13.226,0,0,1-3.428.36S246.419,217.167,248.689,210.562Z"/><path class="p" d="M240.782,209.635h5.151a6.136,6.136,0,0,0,6.136-6.136h0a5.644,5.644,0,0,0-5.644-5.644h0a5.643,5.643,0,0,0-5.643,5.644Z"/><path class="s" d="M242.95,200.4c-.6.353-1.333,1.852-1.26,5,.061,2.664.925,3.322,1.358,3.512a4.6,4.6,0,0,0,2.083-.061v1.6s-1.123,1.305-1.053,2.038,1.623.907,2.674.191a8.513,8.513,0,0,0,1.937-2.113l-.018-3.676s.478.465,1.289-.244a1.517,1.517,0,0,0,.374-2.1,1.167,1.167,0,0,0-1.857.37,3.54,3.54,0,0,0-2.324-1.867C244.461,202.489,243.541,201.853,242.95,200.4Z"/><path class="p" d="M244.737,204.626a.335.335,0,1,0,.352-.332A.339.339,0,0,0,244.737,204.626Z"/><path class="t" d="M244.575,206.986l-.778.248a.4.4,0,0,0,.506.279A.428.428,0,0,0,244.575,206.986Z"/><path class="p" d="M242.026,203.808l.678-.47a.4.4,0,0,0-.563-.115A.434.434,0,0,0,242.026,203.808Z"/><path class="p" d="M245.639,203.947l-.678-.47a.4.4,0,0,1,.563-.115A.433.433,0,0,1,245.639,203.947Z"/><path class="p" d="M242.205,204.546a.335.335,0,1,0,.352-.332A.341.341,0,0,0,242.205,204.546Z"/><path class="t" d="M243.819,204.294l-.053,2.017-1.061-.329Z"/><path class="t" d="M245.131,208.848c.857-.113,2.619-.619,2.894-1.316a1.8,1.8,0,0,1-.618.889,9.29,9.29,0,0,1-2.276.96Z"/><path class="s" d="M256.621,222.712a5.285,5.285,0,0,0-.516-3.385l-2.888,1.686a5.555,5.555,0,0,1,.388,1.7,40.01,40.01,0,0,1-1.14,6.1,1.138,1.138,0,0,1-.535.6,6.48,6.48,0,0,0-1.444,1.2c-.4.363-.72.438-.679.564a.61.61,0,0,0,.762.331,4.28,4.28,0,0,0,.925-.423,5.667,5.667,0,0,1-1.021,1.507c-.956,1.02-1.04,1.681.739,1.819,1.114.087,2.051-.54,3.059-2.94a22.426,22.426,0,0,0,.771-2.691C255.578,226.679,256.374,224.188,256.621,222.712Z"/><path class="c" d="M252.411,211.123c1.253.563,1.676,1.648,2.323,3.347.6,1.584,1.942,6.474,1.942,6.474a3.892,3.892,0,0,1-3.259,1.071l-2.218-5.424S250.157,213.054,252.411,211.123Z"/><path class="p" d="M207.452,283c-.19.071-.3.429-.383,1.3-.052.543-.237,1.26.59,1.7a2.089,2.089,0,0,0,1.954-.021c.716-.444.939-1.458,1.779-2.116.737-.578,1.92-1.154,2.334-2.046.341-.735.34-1.785-.881-1.729-1.488.069-2.33,1.242-3.34,1.264C208.941,281.365,207.642,282.925,207.452,283Z"/><path class="u" d="M207.454,282.564l0,.883c0,.432,1.835,1.075,2.35.089.039-.085.238-1.294.238-1.294Z"/><path class="p" d="M215.962,288.136s-.349,0-.486,1.424a5.981,5.981,0,0,0,0,2.058c.185.4,1.189.58,2.315.681a6.06,6.06,0,0,1,2.377.922,5.162,5.162,0,0,0,2.41.664,4.083,4.083,0,0,0,2.724-.707c.4-.319.915-.992.54-1.5a1.119,1.119,0,0,0-.568-.3q-.709-.264-1.434-.49a14.641,14.641,0,0,1-2.108-.809,9.239,9.239,0,0,1-2.851-1.875Z"/><path class="u" d="M215.967,287.4s0,.655,0,1.03.434.934,1.579.9c.8-.024,1.366-.238,1.338-.9l.005-.954Z"/><path class="c" d="M206.94,270.845a24,24,0,0,1,1.066-4.592s-.295-3.969-.427-7.73a99.839,99.839,0,0,1,.321-11.557s12.784-1.212,12.994,3.486-.094,16.648-.26,18.71-.331,4-.768,7.833c-.375,3.306-.982,10.479-.982,10.479a3.1,3.1,0,0,1-2.917-.075s-.963-9.632-1.073-12.012a11.922,11.922,0,0,1,.576-4.787s-.273-1.941-.748-5.932c-.335-2.819-.784-6.031-.784-6.031s-.436,3.975-.7,6.191c-.247,2.054-.663,3.678-1.28,7.507-.534,3.321-1.994,10.353-1.994,10.353a2.18,2.18,0,0,1-2.509-.124S206.521,273.728,206.94,270.845Z"/><path class="p" d="M213.938,258.637l-.6-3.924a9.578,9.578,0,0,1-3.753-2.272,5.324,5.324,0,0,0,2.994,2.651l.928,3.305.159,2.727Z"/><path class="f" d="M210.531,231.216c-1.994-.481-3.254.486-3.99,3.2-.63,2.324-1.553,7.134-1.912,8.931-.133.665-.394,1.428,1.006,2.267a61.8,61.8,0,0,0,6.272,3.166l.765-2.866-3.091-6.33Z"/><path class="v" d="M210.531,231.216c-1.994-.481-3.254.486-3.99,3.2-.63,2.324-1.553,7.134-1.912,8.931-.133.665-.394,1.428,1.006,2.267a61.8,61.8,0,0,0,6.272,3.166l.765-2.866-3.091-6.33Z"/><path class="u" d="M216.038,229.954l-.6,4.195-3.774-.131.363-4.9Z"/><path class="w" d="M218.747,224.776s1.013,1.484.9,1.634-.836.293-.836.293Z"/><path class="p" d="M217.163,224.532a1.233,1.233,0,1,1,1.252,1.213A1.234,1.234,0,0,1,217.163,224.532Zm.274-.005a.959.959,0,1,0,.943-.973A.96.96,0,0,0,217.437,224.527Z"/><path class="u" d="M215.936,220.668c2.008.391,2.6,1.261,2.838,4.437.25,3.318-.073,4.368-.5,4.822a4.612,4.612,0,0,1-2.756.172c-1.038-.268-3.386-1.059-4.507-2.713-1.318-1.945-1.7-4.6-.337-5.718A6.465,6.465,0,0,1,215.936,220.668Z"/><path class="w" d="M216.007,230.184a4.086,4.086,0,0,0,2.265-.257,5.9,5.9,0,0,1-2.148-.423Z"/><path class="p" d="M219.085,221.469l-.061.063c-.4.388-.909.639-1.324,1.007a3.116,3.116,0,0,0-.928,1.529c-.131.484-.176,1.055-.7,1.287,0,0-.351-1.279-1.431-1.1s-1.213,1.572-.513,2.4,1.335.5,1.335.5a5.683,5.683,0,0,1-.8,2.889,4.911,4.911,0,0,1-5.825-2.888c-1.362-2.91-1.5-5.545.363-6.365a2.8,2.8,0,0,1,2.442-2.274c1.806-.445,3.518.6,5.3.175.375-.09.738-.23,1.119-.284a.23.23,0,0,1,.13.009c.092.044.088.176.063.275a2.348,2.348,0,0,1-.512.976,5.565,5.565,0,0,0,2.027-.289A2.617,2.617,0,0,1,219.085,221.469Z"/><path class="p" d="M209.472,221.447l-1.209-.687a.7.7,0,1,1,1.209.687Z"/><path class="p" d="M216.1,226.074l-.059-1.389a.7.7,0,0,1,.059,1.389Z"/><path class="p" d="M219.509,224.237l-3.715.54.154.259,3.565-.52Z"/><path class="f" d="M207.5,233.422c.44-1.722,1.062-2.284,2.56-2.324a19.287,19.287,0,0,1,2.3.294c.158.727,2.038,1.222,3.941.829.566.165,2.064.573,2.535.743,1.346.489,2,1.887,2.088,6.326,0,0,.257,10.526,0,12.344a16.357,16.357,0,0,1-8.864.828c-4.05-.906-4.53-2.59-4.53-2.59s.212-4.225.35-7.438c-.2-2.046-.508-3.584-.618-5.216A13.7,13.7,0,0,1,207.5,233.422Z"/><path class="u" d="M230.479,232.7a13.658,13.658,0,0,1,1.58-3.321c.758-.987,1.058-1.754,1.365-1.311.4.584-.509,1.754-.307,1.871a6.085,6.085,0,0,1,1.04,2.517c.076.858-2.193,3.011-2.193,3.011Z"/><path class="u" d="M218.841,232.964a4.226,4.226,0,0,1,1.885.891c.945.794,5.714,4.529,5.714,4.529l4.283-6.213,2.095,2.414s-3.137,5.977-4.452,8.211c-.412.7-1.448.832-3.239-.2-1.49-.86-6.393-3.934-6.393-3.934S217.52,235.1,218.841,232.964Z"/><path class="f" d="M218.582,232.878a3.671,3.671,0,0,1,1.424.376c.71.36,6.434,5.017,6.434,5.017l1.459-2a4.94,4.94,0,0,1,2.949,2.027s-1.594,3.408-2.268,4.556-1.249.9-2.522.35-6.515-3.619-6.515-3.619a4.381,4.381,0,0,1-1.728-2.721C217.371,233.614,218.582,232.878,218.582,232.878Z"/><path class="i" d="M218.582,232.878a3.671,3.671,0,0,1,1.424.376c.71.36,6.434,5.017,6.434,5.017l1.459-2a4.94,4.94,0,0,1,2.949,2.027s-1.594,3.408-2.268,4.556-1.249.9-2.522.35-6.515-3.619-6.515-3.619a4.381,4.381,0,0,1-1.728-2.721C217.371,233.614,218.582,232.878,218.582,232.878Z"/><path class="i" d="M226.44,238.271a17.081,17.081,0,0,1,1.21,1.311,2.615,2.615,0,0,0-.958-1.658Z"/><path class="f" d="M227.9,236.268l.746-1.082a4.127,4.127,0,0,1,1.719.7,3.285,3.285,0,0,1,1.133,1.2l-.649,1.213A7.013,7.013,0,0,0,227.9,236.268Z"/><path class="v" d="M227.9,236.268l.746-1.082a4.127,4.127,0,0,1,1.719.7,3.285,3.285,0,0,1,1.133,1.2l-.649,1.213A7.013,7.013,0,0,0,227.9,236.268Z"/><path class="e" d="M231.048,237.218a.2.2,0,1,1-.2-.2A.2.2,0,0,1,231.048,237.218Z"/><path class="f" d="M211.942,230.3l-.03.4s.2.57,1.344.782c1.925.358,2.6-.24,2.6-.24l.049-.346s.185-.076.5.164a16.9,16.9,0,0,1,1.332,1.56s-.367-.108-1.57.4a5.736,5.736,0,0,1-3.755.142,2.071,2.071,0,0,1-1.372-1.54C210.987,231.28,211.611,230.159,211.942,230.3Z"/><path class="v" d="M211.942,230.3l-.03.4s.2.57,1.344.782c1.925.358,2.6-.24,2.6-.24l.049-.346s.185-.076.5.164a16.9,16.9,0,0,1,1.332,1.56s-.367-.108-1.57.4a5.736,5.736,0,0,1-3.755.142,2.071,2.071,0,0,1-1.372-1.54C210.987,231.28,211.611,230.159,211.942,230.3Z"/><path class="u" d="M233.054,229.8a14.124,14.124,0,0,1,3.144-.007c.4.231.279,1.425,0,2.153s-1.679,1.2-2.978,2.082C233.217,233.908,233.054,229.8,233.054,229.8Z"/><path class="s" d="M233.22,234.033c.525-.392.541-.87.644-1.635s2.2-1.587,2.267-1.017a1.68,1.68,0,0,1-.387,1.735C235.1,233.8,234.18,234.545,233.22,234.033Z"/><path class="s" d="M233.369,229.119a11.174,11.174,0,0,0-.851,1.837c-.265.423-.665.909-.084.989s1.286-.681,1.6-1.369a1.659,1.659,0,0,1,.846-.874c-.274-.092-.129-1.185-.322-1.335C234.561,228.367,233.574,228.771,233.369,229.119Z"/></g></svg>