<svg xmlns="http://www.w3.org/2000/svg" xmlns:xlink="http://www.w3.org/1999/xlink" width="119.064" height="117.107" viewBox="0 0 119.064 117.107"><defs><style>.a{fill:#284241;}.b{fill:#1c213a;}.c{fill:#0d1723;}.d{fill:#404366;}.e{fill:#51567a;}.f{fill:#fb6749;}.g{fill:#ec8a63;}.h{fill:#ffb890;}.i,.s,.u,.v,.y{fill:none;}.i{stroke:#000;}.i,.v{stroke-linecap:round;stroke-linejoin:round;stroke-width:0.814px;}.j,.t{fill:#fff;}.k,.n{fill:#c7d3df;}.k{fill-rule:evenodd;}.l{clip-path:url(#a);}.m{fill:#456866;}.o{fill:#fcfdfc;}.p{fill:#6c6799;}.q{fill:#86a5db;}.r{fill:#fe99b6;}.s{stroke:#fcfdfc;stroke-width:1.067px;}.s,.t,.u,.y{stroke-miterlimit:10;}.t{stroke:#fff;stroke-width:0.474px;}.u{stroke:#fe99b6;stroke-width:0.947px;}.v{stroke:#383838;}.w{fill:#e8b8b4;}.x{fill:#303556;}.y{stroke:#0d1723;stroke-width:0.811px;}</style><clipPath id="a"><path class="a" d="M242.839,237.2H202.364a4.133,4.133,0,0,1-4.119-3.8l-2.054-25.17a4.133,4.133,0,0,1,4.118-4.469h40.476a4.132,4.132,0,0,1,4.118,3.8l2.055,25.17A4.133,4.133,0,0,1,242.839,237.2Z" transform="translate(-196.177 -203.765)"/></clipPath></defs><g transform="translate(-169.675 -161.599)"><g transform="translate(179.114 161.599)"><g transform="translate(0 71.662)"><rect class="b" width="1.712" height="42.26" transform="translate(92.097 44.972) rotate(180)"/><rect class="c" width="1.712" height="42.26" transform="translate(67.41 44.972) rotate(180)"/><rect class="b" width="1.712" height="42.26" transform="translate(31.679 44.972) rotate(180)"/><rect class="c" width="1.712" height="42.26" transform="translate(6.992 44.972) rotate(180)"/><rect class="d" width="75.693" height="4.721" transform="translate(97.708 4.721) rotate(180)"/><rect class="e" width="22.015" height="4.721" transform="translate(22.015 4.721) rotate(180)"/></g><g transform="translate(0.446 0)"><g transform="translate(0 13.501)"><g transform="translate(0 16.825)"><path d="M204.225,200.656s11.972-1.011,21.368,4.419l-10.824,9.741-12.6-3.567Z" transform="translate(-186.774 -200.581)"/><path d="M200.289,200.649s2.472,8.16-7.28,16.39l-2.959,3.24a4.316,4.316,0,0,1-6.248.48h0a4.311,4.311,0,0,1-.542-5.806C187.207,209.768,192.627,200.373,200.289,200.649Z" transform="translate(-182.381 -200.595)"/></g><g transform="translate(22.862)"><g transform="translate(0.155 3.168)"><path d="M215.722,186.457l-1.942-3.43-1.24,1.225Z" transform="translate(-212.095 -183.027)"/><path d="M215.793,186.8l-3.825-.952.036,1.743Z" transform="translate(-211.968 -183.653)"/></g><path class="f" d="M231.4,185.79s2.524,1.711-1.2,5l-.068-5.415Z" transform="translate(-215.847 -180.381)"/><path class="g" d="M226.274,192.324a2.029,2.029,0,0,0,1.13,2.628,2.008,2.008,0,0,0,2.58-1.207,2.03,2.03,0,0,0-1.13-2.628A2.008,2.008,0,0,0,226.274,192.324Z" transform="translate(-214.959 -181.627)"/><path class="h" d="M221.377,196.626l-1.592,5.278c-.534,1.769-1.634,1.527-3.315,1h0c-1.435-.452-2.8-1.63-2.266-3.169l2.6-7.188Z" transform="translate(-212.283 -181.972)"/><path class="g" d="M220.373,202.558l-3.642-6.517c.041-1.577,5.4.725,5.4.725Z" transform="translate(-212.87 -182.626)"/><path class="h" d="M219.742,195.452h0a5.171,5.171,0,0,0,6.308-2.922l1.572-4.68a5.421,5.421,0,0,0-3.083-6.858h0c-2.739-1.049-6.308.212-7.377,3.045l-1.181,3.662A6.153,6.153,0,0,0,219.742,195.452Z" transform="translate(-212.633 -179.325)"/><path class="f" d="M217.424,188.415s1.507-5.583,3.258-6c0,0,7.27,4.984,9.461,2.126s-.333-6.793-6.248-5.2a41.088,41.088,0,0,0-5.717,1.8l-2.029,4.091-.01,2.531Z" transform="translate(-212.739 -178.959)"/><path class="f" d="M228.636,182.977s-14.951-10.844-12.495,3.077l.552-.026,2.825-4.8Z" transform="translate(-212.679 -178.954)"/><g transform="translate(3.207 4.983)"><path d="M215.892,185.36s9.162,4.431,11.573,4.164l-.907,2.7s-6.89-.529-10.411-4.748A6.464,6.464,0,0,1,215.892,185.36Z" transform="translate(-215.891 -185.36)"/><g transform="translate(4.458 1.022)"><path class="i" d="M225.534,192.617l.037,1.127-.712-.014" transform="translate(-222.341 -187.993)"/><path d="M223.03,187.2s1.089.661.779,1.028c0,0-.219.242-1.156-.35s-1.119-.815-1-1.1S222.547,186.858,223.03,187.2Z" transform="translate(-221.622 -186.674)"/><path d="M228.65,189s-1.017.079-.979.529c0,0,.033.3.919.217s1.139-.241,1.156-.494C229.765,188.965,229.123,188.925,228.65,189Z" transform="translate(-222.965 -187.183)"/><path class="j" d="M227.438,191.784a.469.469,0,1,0,.6-.307A.477.477,0,0,0,227.438,191.784Z" transform="translate(-222.908 -187.735)"/><path class="j" d="M222.444,190.083a.469.469,0,1,0,.6-.307A.477.477,0,0,0,222.444,190.083Z" transform="translate(-221.799 -187.357)"/><path class="i" d="M222.17,194.3a2.5,2.5,0,0,0,2.366,1.011" transform="translate(-221.744 -188.366)"/></g></g><g transform="translate(0 5.828)"><ellipse class="h" cx="2.031" cy="1.966" rx="2.031" ry="1.966" transform="translate(0 3.887) rotate(-73.156)"/><path class="i" d="M215.257,190.248s.52-1.377-.835-1.648" transform="translate(-212.358 -186.924)"/></g></g></g><g transform="translate(48.011)"><g transform="translate(0)"><circle cx="10.945" cy="10.945" r="10.945" transform="translate(0 21.516) rotate(-79.396)"/><path d="M248.514,185.062l-1.989,3.3,5.493-1.181Z" transform="translate(-244.635 -166.809)"/></g><g transform="translate(7.728 7.041)"><path class="k" d="M263.706,174.8c-.04-.223-.084-.464-.128-.727-.331-1.984-3.183-3.747-5.45-3.369s-4.4,2.969-4.065,4.952c.044.262.08.5.114.73.2,1.287.324,2.136,1.229,2.733.219.145.419.271.6.386a4.247,4.247,0,0,1,1.017.761,2.466,2.466,0,0,1,.19.385c.156.364.35.818.8.743l3.7-.615c.446-.074.482-.566.512-.961a2.46,2.46,0,0,1,.054-.426,4.242,4.242,0,0,1,.717-1.049c.133-.166.28-.352.44-.559a2.375,2.375,0,0,0,.456-1.831.133.133,0,0,0,0-.017.349.349,0,0,0-.023-.163c-.037-.3-.094-.618-.159-.972Zm-5.463-3.4c1.862-.31,4.378,1.2,4.641,2.791.044.266.089.51.13.737s.073.4.1.58l-.352-.036a.346.346,0,0,0-.2.04c0-1.168-.5-1.222-1.96-.979-.881.147-1.395.282-1.583.608a.343.343,0,0,0-.171-.067l-4.041-.411a4.788,4.788,0,0,1,3.435-3.262Zm4.63,5.956c-.159.2-.3.387-.435.551a4.312,4.312,0,0,0-.842,1.295,2.956,2.956,0,0,0-.079.566,3.279,3.279,0,0,1-.037.338l-.332.056-.09-.54a.351.351,0,1,0-.693.116l.089.539-.366.061-.09-.539a.351.351,0,0,0-.693.115l.089.54-.366.061-.09-.539a.351.351,0,1,0-.693.115l.089.539-.332.056a3.357,3.357,0,0,1-.144-.308,2.934,2.934,0,0,0-.259-.51,4.307,4.307,0,0,0-1.216-.951c-.177-.113-.373-.239-.59-.381-.643-.424-.73-1-.921-2.251-.034-.227-.072-.473-.116-.739a1.731,1.731,0,0,1-.015-.182l4.037.411a.339.339,0,0,0,.093,0,.344.344,0,0,0,.1-.033,3.265,3.265,0,0,0,.169.549,1.663,1.663,0,0,0,1.93,1.032,1.688,1.688,0,0,0,1.438-1.227.351.351,0,0,0,.189.079l.508.051a1.572,1.572,0,0,1-.329,1.134Z" transform="translate(-254.029 -170.65)"/><path class="k" d="M257.27,177.246a.813.813,0,1,0,.936.669.814.814,0,0,0-.936-.669" transform="translate(-254.598 -172.112)"/><path class="k" d="M260.427,179.768l-.283.664a.2.2,0,0,0,.216.275l.766-.128a.2.2,0,0,0,.115-.33l-.483-.536A.2.2,0,0,0,260.427,179.768Z" transform="translate(-255.383 -172.648)"/></g></g><g transform="translate(0 32.803)"><g transform="translate(10.733)"><g transform="translate(20.285 29.196)"><path d="M222.252,241.294l.648,9.663h11.58l-.756-9.663Z" transform="translate(-222.252 -241.294)"/><path class="a" d="M225.136,241.294l.648,9.663h11.58l-.756-9.663Z" transform="translate(-222.893 -241.294)"/></g><path class="a" d="M242.839,237.2H202.364a4.133,4.133,0,0,1-4.119-3.8l-2.054-25.17a4.133,4.133,0,0,1,4.118-4.469h40.476a4.132,4.132,0,0,1,4.118,3.8l2.055,25.17A4.133,4.133,0,0,1,242.839,237.2Z" transform="translate(-196.177 -203.765)"/><g class="l"><path class="m" d="M244.939,237.2H204.464a4.133,4.133,0,0,1-4.119-3.8l-2.054-25.17a4.134,4.134,0,0,1,4.119-4.469h40.475a4.133,4.133,0,0,1,4.119,3.8l2.054,25.17A4.133,4.133,0,0,1,244.939,237.2Z" transform="translate(-196.643 -203.765)"/></g><g transform="translate(3.069 1.581)"><path class="n" d="M243.459,235.76h-38.4a2.952,2.952,0,0,1-2.945-2.735l-1.824-24.652a2.4,2.4,0,0,1,2.394-2.577h39.4a2.326,2.326,0,0,1,2.32,2.154l1.834,24.814A2.789,2.789,0,0,1,243.459,235.76Z" transform="translate(-200.158 -205.797)"/><path class="o" d="M244.445,209.01H200.3l-.177-2.439a.721.721,0,0,1,.72-.774h41.333a2.188,2.188,0,0,1,2.182,2.029Z" transform="translate(-200.122 -205.797)"/><g transform="translate(2.288 1.068)"><path class="p" d="M204.15,207.721a.5.5,0,0,1-.5.552.6.6,0,0,1-.583-.552.5.5,0,0,1,.5-.551A.6.6,0,0,1,204.15,207.721Z" transform="translate(-203.063 -207.17)"/><path class="p" d="M207.036,207.721a.5.5,0,0,1-.5.552.6.6,0,0,1-.583-.552.5.5,0,0,1,.5-.551A.6.6,0,0,1,207.036,207.721Z" transform="translate(-203.704 -207.17)"/><path class="p" d="M210.107,207.721a.5.5,0,0,1-.5.552.6.6,0,0,1-.583-.552.5.5,0,0,1,.5-.551A.6.6,0,0,1,210.107,207.721Z" transform="translate(-204.386 -207.17)"/></g><g transform="translate(4.743 6.372)"><path class="q" d="M247.653,218.1H231.6a.491.491,0,0,1-.479-.453l-.234-3.211a.413.413,0,0,1,.414-.454h16.055a.493.493,0,0,1,.48.454l.233,3.211A.412.412,0,0,1,247.653,218.1Z" transform="translate(-211.695 -213.988)"/><path class="r" d="M248.967,233.252H232.98a.483.483,0,0,1-.471-.445l-.762-10.455a.405.405,0,0,1,.406-.445h15.987a.483.483,0,0,1,.471.445l.762,10.455A.405.405,0,0,1,248.967,233.252Z" transform="translate(-211.887 -215.746)"/><g transform="translate(0 0.993)"><line class="s" x2="16.124"/><g transform="translate(0.178 2.448)"><line class="s" x2="16.124"/></g><g transform="translate(0.357 4.897)"><line class="s" x2="16.124"/></g><g transform="translate(0.535 7.345)"><line class="s" x2="16.124"/></g></g></g></g></g><g transform="translate(0 10.095)"><g transform="translate(17.183 0.471)"><path class="j" d="M204.82,237.616l13.745-19.457a1.922,1.922,0,0,1,2.668-.468l7.124,4.956a1.922,1.922,0,0,1,.472,2.687L215.085,244.79a1.922,1.922,0,0,1-2.668.469l-7.124-4.956A1.922,1.922,0,0,1,204.82,237.616Z" transform="translate(-204.468 -217.346)"/><g transform="translate(3.289 3.858)"><g transform="translate(0 11.008)"><path class="q" d="M212.467,236.873c-.9,1.225-2.633,3.572-3.57,4.837a1.024,1.024,0,0,0,.248,1.456l4.731,3.21a1.024,1.024,0,0,0,1.4-.245l3.579-4.919a1.023,1.023,0,0,0-.263-1.456l-4.737-3.13A1.022,1.022,0,0,0,212.467,236.873Z" transform="translate(-208.696 -236.455)"/><g transform="translate(2.818 2.867)"><path class="t" d="M217.19,242.251l-2.01,2.687a.5.5,0,0,1-.748.066l-2.1-2.049a.058.058,0,0,1-.005-.077l2.03-2.714a.059.059,0,0,1,.075-.017l2.6,1.361a.5.5,0,0,1,.159.742Zm-4.735.656,2.058,2.013a.386.386,0,0,0,.571-.051l2.01-2.688a.385.385,0,0,0-.121-.567l-2.551-1.338Z" transform="translate(-212.319 -240.14)"/><path class="t" d="M214.316,241.32a.059.059,0,0,1-.082.012l-.45-.337a.723.723,0,1,0-.867,1.158l.45.337a.059.059,0,1,1-.071.094l-.45-.336a.841.841,0,0,1,1.007-1.347l.45.337A.059.059,0,0,1,214.316,241.32Z" transform="translate(-212.361 -240.272)"/></g></g><g transform="translate(7.384)"><line class="u" y1="9.914" x2="7.238"/><line class="u" y1="4.663" x2="3.281" transform="translate(1.744 6.181)"/><line class="u" y1="6.681" x2="4.754" transform="translate(3.205 5.31)"/></g></g><g transform="translate(1.861 8.705)"><path class="h" d="M212.728,229.033a.873.873,0,0,1,.684.677.72.72,0,0,1-.7.872l-.576-.057c.033.483.383,1.308,2.633,1.831a.743.743,0,0,1,.576.822.622.622,0,0,1-.553.517c-.013,0-.026,0-.04,0a.714.714,0,0,1,.22.627.622.622,0,0,1-.553.517.6.6,0,0,1-.112,0,.671.671,0,0,1,.034.338.622.622,0,0,1-.553.517.694.694,0,0,1-.242-.015c-.03-.006-.058-.015-.086-.022,0,.012,0,.024,0,.037a.622.622,0,0,1-.553.517.717.717,0,0,1-.243-.014,8.538,8.538,0,0,1-1.643-.548h0l-.021-.011a5.32,5.32,0,0,1-.618-.338,12.789,12.789,0,0,1-3.515-3.159l1.742-3.611Z" transform="translate(-206.86 -228.535)"/></g><path class="j" d="M215.169,228.274l-1.537,2.2,1.127.5.709-.324.573-1.519Z" transform="translate(-206.503 -219.773)"/></g><g transform="translate(12.933 6.559)"><path class="h" d="M200.986,225.171l5.886,2.634-1.414,3.824L199,229.294Z" transform="translate(-199.005 -225.171)"/></g><path class="j" d="M204.347,226.113l2.46,1.284-1.851,4.53-2.811-1.211Z" transform="translate(-186.769 -218.822)"/><path d="M188.374,216.962l11.432,6.08a1.745,1.745,0,0,1,.73,2.343l-1.725,3.332a1.745,1.745,0,0,1-2.162.832l-11.676-4.374a3.924,3.924,0,0,1-2.443-4.761h0C183.174,218.143,186.2,216.043,188.374,216.962Z" transform="translate(-182.381 -216.741)"/><line class="v" x1="5.468" y1="2.908" transform="translate(5.993 0.221)"/></g></g></g></g><g transform="translate(169.675 193.369)"><g transform="translate(42.886 2.32)"><g transform="translate(0 46.27)"><g transform="translate(22.266 4.12)"><g transform="translate(0 17.681)"><path class="w" d="M265.285,303.973,262.4,293.124l5.5-.2,2.884,11.65-5.3-.051Z" transform="translate(-255.416 -292.92)"/><g transform="translate(0 7.964)"><path d="M268.512,304.12s-4.064,1.671-5.972-.963l-9.117,5.082,16.349-.1Z" transform="translate(-253.423 -303.157)"/><rect class="j" width="16.349" height="1.437" transform="translate(0.001 5.082) rotate(-0.352)"/></g></g><path d="M253.99,270.192l7.028,24.411,7.866-.29L264,272.619Z" transform="translate(-253.549 -270.192)"/></g><g transform="translate(0 3.223)"><g transform="translate(0 17.128)"><path class="w" d="M236.465,301.956l3.127-10.9,5.245,2.186-3.478,11.65-4.948-2.339Z" transform="translate(-227.38 -291.057)"/><g transform="translate(0 9.197)"><path d="M240.391,303.875s-4.2,1.726-6.171-1L224.8,308.13l16.89-.1Z" transform="translate(-224.802 -302.879)"/><rect class="j" width="16.89" height="1.484" transform="translate(0.001 5.251) rotate(-0.352)"/></g></g><path d="M243.2,269.039,235.29,292.9l8.461,1.946,9.46-23.376Z" transform="translate(-227.131 -269.039)"/></g><path d="M261.694,265.518H249.367a4.4,4.4,0,0,0-4.4,4.4h0a4.4,4.4,0,0,0,4.4,4.4h25.7a5.752,5.752,0,0,0,5.784-6.294,4.462,4.462,0,0,0-1.723-3.123Z" transform="translate(-229.28 -264.896)"/></g><g transform="translate(28.63)"><path class="h" d="M269.624,223.195l2.427,6.308,6.058-2.011-3.964-10.1Z" transform="translate(-263.385 -208.078)"/><path class="g" d="M270.925,227.82l1.456-3.9-2.4,1.446Z" transform="translate(-263.464 -209.527)"/><path class="h" d="M265.8,207.8s-3.016.636-3.018,4.463c0,0,.029,2.773.1,6.765a3.3,3.3,0,0,0,4.061,3.2,9.858,9.858,0,0,0,3.837-1.931l1.688-1.72c3.9-4.763-.168-11.942-6.23-10.859Q266.023,207.753,265.8,207.8Z" transform="translate(-261.865 -205.905)"/><path class="h" d="M263.019,218.683l-1.328,1.373a.308.308,0,0,0,.2.521l1.386.088Z" transform="translate(-261.604 -208.364)"/><g transform="translate(1.167 6.316)"><path d="M264.178,213.552s-1.016-.121-1.074.338c0,0-.032.31.857.4s1.129.02,1.241-.269S264.658,213.567,264.178,213.552Z" transform="translate(-263.104 -213.538)"/></g><path d="M270.387,213.993s3.784-8.237-6.476-5.205c0,0,2.8-5.463,10.1-2.475a6.3,6.3,0,0,1,3.453,3.892c.553,2.548-.916,4.577-3.025,8.708,0,0-1.837.088-2.682-2.781A11.238,11.238,0,0,0,270.387,213.993Z" transform="translate(-262.116 -205.419)"/><path d="M263.91,209.268s-.226,1.136,2.77.906.639,4.639,2.736,5.583l4.173-5.652-2.487-2.521-2.7.039Z" transform="translate(-262.115 -205.9)"/><path d="M264.511,218.315a.433.433,0,1,1-.3-.532A.432.432,0,0,1,264.511,218.315Z" transform="translate(-262.061 -208.161)"/><path class="i" d="M263.16,222.17s.355-.152,1.065.213" transform="translate(-261.949 -209.132)"/><g transform="translate(6.921 7.089)"><circle class="h" cx="2.031" cy="2.031" r="2.031" transform="translate(0 0.386) rotate(-5.455)"/><path class="i" d="M272.262,217.941s-.182-1.461,1.244-1.406" transform="translate(-270.889 -214.977)"/></g></g><path class="r" d="M266.467,240.191c0,.3,2.029,5.153.938,17.342,0,0,5.76,4.409,18.052,1.746,0,0,3.948-18.861-4.224-28.159,0,0-4.294-5.062-13.99.221Z" transform="translate(-234.054 -210.641)"/><g transform="translate(4.853 20.225)"><g transform="translate(0 11.785)"><path class="h" d="M242.14,249.385h-3.687a5.635,5.635,0,0,0-4.57.075c-2.006.979-2.609,1.821-2.843,3.193h10.837Z" transform="translate(-231.04 -247.091)"/><path class="r" d="M2.781,0H14.135a0,0,0,0,1,0,0V5.562a0,0,0,0,1,0,0H2.781A2.781,2.781,0,0,1,0,2.781v0A2.781,2.781,0,0,1,2.781,0Z" transform="translate(8.465)"/></g><g transform="translate(18.756)"><path class="r" d="M263.754,232.669,255.983,242.8a3.643,3.643,0,0,0-.006,4.63h0a3.642,3.642,0,0,0,5.575.066l7.768-8.085c1.62-1.734,1.256-6.164-.756-7.422h0A3.774,3.774,0,0,0,263.754,232.669Z" transform="translate(-255.15 -231.417)"/><line class="i" y1="4.785" x2="4.597" transform="translate(9.572 7.997)"/></g></g><g transform="translate(16.425 27.909)"><g transform="translate(12.473 32.707)"><path class="b" d="M279.359,285.8H264.413a2.464,2.464,0,0,1-2.465-2.465h19.876A2.465,2.465,0,0,1,279.359,285.8Z" transform="translate(-261.948 -283.337)"/><g transform="translate(7.499 1.624)"><path class="b" d="M0,0H5.376a0,0,0,0,1,0,0V3.95A2.688,2.688,0,0,1,2.688,6.638h0A2.688,2.688,0,0,1,0,3.95V0A0,0,0,0,1,0,0Z"/><rect class="b" width="2.688" height="11.895" transform="translate(1.344 4.992)"/></g><rect class="b" width="18.025" height="1.859" transform="translate(1.198 16.975)"/><circle class="b" cx="2.095" cy="2.095" r="2.095" transform="translate(7.843 17.84)"/><circle class="b" cx="2.095" cy="2.095" r="2.095" transform="translate(16.023 17.84)"/><circle class="b" cx="2.095" cy="2.095" r="2.095" transform="translate(0.083 17.84)"/></g><g transform="translate(0 27.777)"><path class="x" d="M288.868,282.522H267.509a2.761,2.761,0,0,1-2.761-2.761h0A2.761,2.761,0,0,1,267.509,277h21.359a2.761,2.761,0,0,1,2.761,2.761h0A2.761,2.761,0,0,1,288.868,282.522Z" transform="translate(-250.097 -277)"/><path class="d" d="M265.165,282.522H248.676a2.761,2.761,0,0,1-2.761-2.761h0A2.761,2.761,0,0,1,248.676,277h16.489a2.761,2.761,0,0,1,2.761,2.761h0A2.761,2.761,0,0,1,265.165,282.522Z" transform="translate(-245.915 -277)"/></g><g transform="translate(27.885)"><g transform="translate(7.649 21.584)"><path class="e" d="M294.268,277.993H292.9a1.31,1.31,0,0,1-1.31-1.31v-7.644h1.558Z" transform="translate(-291.592 -269.039)"/><path class="d" d="M0,0H2.235a0,0,0,0,1,0,0V7.836A1.117,1.117,0,0,1,1.117,8.954h0A1.117,1.117,0,0,1,0,7.836V0A0,0,0,0,1,0,0Z" transform="translate(1.558 0)"/></g><rect class="e" width="16.861" height="21.585" rx="8.431"/><rect class="d" width="16.861" height="21.585" rx="8.431" transform="translate(3.81)"/></g></g></g><g transform="translate(94.125)"><rect class="j" width="13.897" height="10.595" rx="2.674"/><path class="j" d="M293.764,214.918v3.607l3.835-3.607Z" transform="translate(-291.354 -205.208)"/><g transform="translate(4.408 2.288)"><path class="d" d="M299.345,207.209c0-.333-.308-.533-.733-.533a1.172,1.172,0,0,0-1.04.6l-1.24-.666a2.68,2.68,0,0,1,2.472-1.232c1.282,0,2.2.549,2.2,1.565,0,1.3-1.365,1.49-1.365,2.255h-1.481C298.155,208.109,299.345,207.834,299.345,207.209Zm-1.39,3.313a.949.949,0,0,1,1.89,0,.948.948,0,0,1-1.89,0Z" transform="translate(-296.332 -205.378)"/></g></g><line class="y" x2="119.064" transform="translate(0 84.931)"/></g></g></svg>