<svg xmlns="http://www.w3.org/2000/svg" width="127.536" height="110.032" viewBox="0 0 127.536 110.032"><defs><style>.a{fill:#474646;}.b{fill:#008ee5;}.c{fill:#7d7f7f;}.d{fill:#4b4c4c;}.e{fill:#22abef;}.f{fill:#ffc278;}.g{fill:#f5802e;}.h{fill:#dd2ccd;}.i{fill:#85d7e0;}.j{fill:#a01fa0;}.k{fill:#dbdcdd;}.l{fill:#9ecc2e;}.m{fill:#e2340c;}</style></defs><g transform="translate(-2313.545 -201.054)"><path class="a" d="M16.349,0H61.218A16.351,16.351,0,0,1,77.568,16.351V37.81a16.35,16.35,0,0,1-16.35,16.35H16.348A16.348,16.348,0,0,1,0,37.812V16.349A16.349,16.349,0,0,1,16.349,0Z" transform="translate(2335.651 201.054)"/><rect class="b" width="55.526" height="22.765" transform="translate(2345.371 205.369)"/><path class="c" d="M2601.988,284.315h3.966v-3.967h-3.966Zm2.931-1.984a.948.948,0,1,1-.948-.949A.949.949,0,0,1,2604.919,282.331Z" transform="translate(-197.151 -54.197)"/><path class="d" d="M2395.827,263.28a1.2,1.2,0,0,1,1.2,1.2v12.37a1.2,1.2,0,0,1-1.2,1.2h0a1.2,1.2,0,0,1-1.2-1.2V264.48a1.2,1.2,0,0,1,1.2-1.2Z" transform="translate(-55.419 -42.531)"/><rect class="e" width="55.526" height="22.768" transform="translate(2345.371 228.134)"/><path class="f" d="M2346.585,313.794l2.966-7.256s-3.239-16.837-3.981-22.5l4.493-11.555a52.934,52.934,0,0,1,7.407-7.22v10.421l-2.236,2.542V285.2s2.838,3.161,6.209-7.868c1.112-3.642,2.013-7.344,3.019-11.017a3.1,3.1,0,0,1,6.094,1.051l-1.812,16.58a19.735,19.735,0,0,1,1.058,9.73c-.886,5.03-3.391,7.255-3.391,7.255l-5.18,22.538Z" transform="translate(-21.889 -42.98)"/><g transform="translate(2343.153 222.214)"><path class="g" d="M2407.092,272.577l3.763.635c1.056-2.889.86-4.972-.71-5.248-2.087-.364-3.06,1.115-3.053,4.613Z" transform="translate(-2407.092 -267.911)"/></g><g transform="translate(2313.545 263.44)"><rect class="h" width="16.389" height="26.036" transform="translate(2.272 19.163) rotate(-70.75)"/><rect class="h" width="27.105" height="23.368" transform="translate(0 29.721) rotate(-70.752)"/><path class="i" d="M2363.84,410l1.443-4.133-22.062-7.7-1.442,4.13Z" transform="translate(-2332.843 -398.166)"/><rect class="j" width="3.694" height="23.368" transform="translate(2.315 23.093) rotate(-70.758)"/><path class="k" d="M2387.264,445.41a1.485,1.485,0,1,0-.914-1.891A1.484,1.484,0,0,0,2387.264,445.41Z" transform="translate(-2363.251 -428.484)"/></g><path class="l" d="M2516.771,294.229a8.516,8.516,0,1,1-8.516-8.516A8.516,8.516,0,0,1,2516.771,294.229Z" transform="translate(-127.264 -57.864)"/><g transform="translate(2374.296 228.913)"><path class="m" d="M2512.168,301.991l-6.678-7.26,2.389-2.2,4.082,4.437,6.135-7.892,2.562,1.992Z" transform="translate(-2505.49 -289.076)"/></g><rect class="a" width="23.196" height="1.824" transform="translate(2371.743 212.576)"/><rect class="a" width="23.196" height="1.824" transform="translate(2371.743 217.347)"/><g transform="translate(2350.128 227.615)"><path class="i" d="M2442.6,284.975h-9.452A4.028,4.028,0,0,0,2429.13,289v9.451a4.028,4.028,0,0,0,4.023,4.024h9.452a4.028,4.028,0,0,0,4.023-4.024V289A4.028,4.028,0,0,0,2442.6,284.975Zm.729,13.475a.73.73,0,0,1-.729.73h-9.452a.73.73,0,0,1-.729-.73V289a.73.73,0,0,1,.729-.73h9.452a.73.73,0,0,1,.729.73Z" transform="translate(-2429.13 -284.975)"/></g><g transform="translate(2379.536 235.37)"><g transform="translate(0 0)"><path class="f" d="M2566.062,333.537l-5.713-11.678a.423.423,0,0,1-.061.084c-2.211-4.337-4.73-3.09-5.718-1.663l-.292-.574c-1.445-2.833-5.184-1.629-5.639.793-1.615-3.138-6.059-1.283-5.648,1.68l-.2-.393c-1.64-3.218-6.238-1.228-5.626,1.838l-6.824-12.716a2.84,2.84,0,1,0-4.928,2.825l8.177,15.444,4.7,9.751-4.966-2.193c-9.426-4.635-10.381-1.221-10.479-1.163a1.606,1.606,0,0,0,.081,2.821l14.231,7.117c6.789,5.286,4.922,4.179,11.738,6.935l3.723,7.45,17.511-7.358-3.368-6.365C2568.017,342.011,2568.623,338.154,2566.062,333.537Z" transform="translate(-2522.048 -309.479)"/><g transform="translate(3.924 0.848)"><path class="g" d="M2535.632,312.334c1.285-.693,2.608.693,3.487,3.375l-3.073,1.677C2534.06,314.874,2533.923,313.257,2535.632,312.334Z" transform="translate(-2534.446 -312.157)"/></g></g><g transform="translate(27.576 37.532)"><rect class="h" width="26.036" height="16.389" transform="translate(0.516 13.851) rotate(-23.461)"/><rect class="h" width="23.368" height="27.106" transform="matrix(0.917, -0.398, 0.398, 0.917, 1.742, 13.319)"/><rect class="i" width="23.368" height="4.376" transform="matrix(0.917, -0.398, 0.398, 0.917, 0, 9.306)"/><rect class="j" width="23.368" height="3.695" transform="translate(8.266 28.355) rotate(-23.47)"/><path class="k" d="M2672.62,461.39a1.485,1.485,0,1,0-1.954-.77A1.484,1.484,0,0,0,2672.62,461.39Z" transform="translate(-2651.12 -448.896)"/></g></g><g transform="translate(2354.262 230.587)"><path class="m" d="M2447.3,304.229l-5.1-5.546,1.825-1.68,3.118,3.389,4.687-6.029,1.957,1.521Z" transform="translate(-2442.193 -294.364)"/></g><g transform="translate(2350.128 208.002)"><path class="i" d="M2442.6,223.007h-9.452a4.028,4.028,0,0,0-4.023,4.023v9.452a4.028,4.028,0,0,0,4.023,4.024h9.452a4.028,4.028,0,0,0,4.023-4.024V227.03A4.028,4.028,0,0,0,2442.6,223.007Zm.729,13.475a.731.731,0,0,1-.729.73h-9.452a.731.731,0,0,1-.729-.73V227.03a.73.73,0,0,1,.729-.73h9.452a.73.73,0,0,1,.729.73Z" transform="translate(-2429.13 -223.007)"/></g><g transform="translate(2354.262 210.974)"><path class="m" d="M2447.3,242.262l-5.1-5.546,1.825-1.68,3.118,3.389,4.687-6.029,1.957,1.522Z" transform="translate(-2442.193 -232.397)"/></g></g></svg>