<svg xmlns="http://www.w3.org/2000/svg" width="112.801" height="109.712" viewBox="0 0 112.801 109.712"><defs><style>.a{mix-blend-mode:multiply;isolation:isolate;}.b{fill:#96aebd;}.c{fill:#b8b8b8;}.d{fill:#1a1a1a;}.e{fill:#363636;}.f{fill:#424242;}.g{fill:#c7d0cf;}.h{fill:#d9e3e2;}.i{fill:#c92e2e;}.j{fill:#ff8b2c;}.k{fill:#ffca2c;}.l{fill:#57c958;}.m{fill:#63dbe6;}.n{fill:#69a5f8;}.o{fill:#478bea;}.p{fill:#323232;}.q{fill:#3d3d3d;}.r{fill:#fff;}.s{fill:#2a6614;}.t{fill:#398a1b;}.u{fill:#ed5353;}.v{fill:#ff9c4b;}.w{fill:#ffda6b;}.x{fill:#33a534;}.y{fill:#3cb7c2;}.z{fill:#7998ab;}.aa{fill:#7a99ac;}.ab{fill:#7b9aac;}.ac{fill:#7c9aad;}.ad{fill:#7d9bae;}.ae{fill:#7e9cae;}.af{fill:#7f9daf;}.ag{fill:#809daf;}.ah{fill:#819eb0;}.ai{fill:#829fb1;}.aj{fill:#83a0b1;}.ak{fill:#84a0b2;}.al{fill:#85a1b3;}.am{fill:#86a2b3;}.an{fill:#87a3b4;}.ao{fill:#88a4b4;}.ap{fill:#89a4b5;}.aq{fill:#8aa5b6;}.ar{fill:#8ba6b6;}.as{fill:#8ca7b7;}.at{fill:#8da7b8;}.au{fill:#8ea8b8;}.av{fill:#8fa9b9;}.aw{fill:#90aab9;}.ax{fill:#91aaba;}.ay{fill:#92abbb;}.az{fill:#93acbb;}.ba{fill:#94adbc;}.bb{fill:#95aebd;}.bc{fill:#97afbe;}.bd{fill:#98b0be;}.be{fill:#99b1bf;}.bf{fill:#9ab1c0;}.bg{fill:#9bb2c0;}.bh{fill:#9cb3c1;}.bi{fill:#9db4c2;}.bj{fill:#9eb4c2;}.bk{fill:#9fb5c3;}.bl{fill:#a0b6c3;}.bm{fill:#a1b7c4;}.bn{fill:#a2b8c5;}.bo{fill:#a3b8c5;}.bp{fill:#a4b9c6;}.bq{fill:#a5bac7;}.br{fill:#a6bbc7;}.bs{fill:#a7bbc8;}.bt{fill:#a8bcc8;}.bu{fill:#a9bdc9;}.bv{fill:#aabeca;}.bw{fill:#abbeca;}.bx{fill:#acbfcb;}.by{fill:#adc0cc;}.bz{fill:#aec1cc;}.ca{fill:#afc2cd;}.cb{fill:#b0c2cd;}.cc{fill:#b1c3ce;}.cd{fill:#b2c4cf;}.ce{fill:#b3c5cf;}.cf{fill:#b4c5d0;}.cg{fill:#b5c6d1;}.ch{fill:#b6c7d1;}.ci{fill:#b7c8d2;}.cj{fill:#b8c8d2;}.ck{fill:#b9c9d3;}.cl{fill:#bacad4;}.cm{fill:#bbcbd4;}.cn{fill:#bccbd5;}.co{fill:#bdccd6;}.cp{fill:#becdd6;}.cq{fill:#bfced7;}.cr{fill:#c0cfd8;}.cs{fill:#c1cfd8;}.ct{fill:#c2d0d9;}.cu{fill:#c3d1d9;}.cv{fill:#c4d2da;}.cw{fill:#c5d2db;}.cx{fill:#c6d3db;}.cy{fill:#c7d4dc;}.cz{fill:#c8d5dd;}.da{fill:#c9d5dd;}.db{fill:#cad6de;}.dc{fill:#cbd7de;}.dd{fill:#ccd8df;}.de{fill:#cdd9e0;}.df{fill:#ced9e0;}.dg{fill:#cfdae1;}.dh{fill:#d0dbe2;}.di{fill:#d1dce2;}.dj{fill:#d2dce3;}.dk{fill:#d3dde3;}.dl{fill:#d4dee4;}.dm{fill:#d5dfe5;}.dn{fill:#d6dfe5;}.do{fill:#d7e0e6;}.dp{fill:#d8e1e7;}.dq{fill:#d9e2e7;}.dr{fill:#dae3e8;}.ds{fill:#dbe3e8;}.dt{fill:#dce4e9;}.du{fill:#dde5ea;}.dv{fill:#dee6ea;}.dw{fill:#dfe6eb;}.dx{fill:#e0e7ec;}.dy{fill:#e1e8ec;}.dz{fill:#e2e9ed;}.ea{fill:#e3e9ed;}.eb{fill:#e4eaee;}.ec{fill:#e5ebef;}.ed{fill:#e6ecef;}.ee{fill:#e7edf0;}.ef{fill:#e8edf1;}.eg{fill:#e9eef1;}.eh{fill:#eaeff2;}.ei{fill:#ebf0f2;}.ej{fill:#ecf0f3;}.ek{fill:#edf1f4;}.el{fill:#eef2f4;}.em{fill:#eff3f5;}.en{fill:#f0f3f6;}.eo{fill:#f1f4f6;}.ep{fill:#f2f5f7;}.eq{fill:#f3f6f7;}.er{fill:#f4f7f8;}.es{fill:#f5f7f9;}.et{fill:#f6f8f9;}.eu{fill:#f7f9fa;}.ev{fill:#f8fafb;}.ew{fill:#f9fafb;}.ex{fill:#fafbfc;}.ey{fill:#fbfcfc;}.ez{fill:#fcfdfd;}.fa{fill:#fdfdfe;}.fb{fill:#fefefe;}.fc{fill:#b1cbcc;}.fd{fill:#90aaad;}.fe{fill:#454545;}.ff{fill:#6c6c6c;}.fg{fill:#919191;}.fh{fill:#7b7b7b;}.fi{fill:#a32525;}</style></defs><g transform="translate(-221.22 -191.67)"><g class="a" transform="translate(221.22 191.67)"><ellipse class="b" cx="55.434" cy="54.856" rx="55.434" ry="54.856"/></g><g transform="translate(221.22 191.67)"><ellipse class="c" cx="55.434" cy="54.856" rx="55.434" ry="54.856"/><path class="d" d="M250.7,191.934V300.653c30.339,0,54.933-24.337,54.933-54.362S281.042,191.934,250.7,191.934Z" transform="translate(-195.271 -191.438)"/><path class="e" d="M227.379,246.292c0,26.8,21.955,48.533,49.039,48.533v5.829c-30.335,0-54.931-24.337-54.931-54.362s24.6-54.358,54.931-54.358v5.829C249.334,197.763,227.379,219.492,227.379,246.292Z" transform="translate(-220.986 -191.438)"/><ellipse class="f" cx="50.751" cy="50.222" rx="50.751" ry="50.222" transform="translate(4.683 4.635)"/><path class="g" d="M299.744,243.563c0,26.8-21.955,48.533-49.041,48.533V195.034C277.789,195.034,299.744,216.763,299.744,243.563Z" transform="translate(-195.271 -188.709)"/><path class="g" d="M273.66,195.034V292.1c-27.084,0-49.039-21.729-49.039-48.533S246.576,195.034,273.66,195.034Z" transform="translate(-218.227 -188.709)"/><path class="h" d="M271.93,196.979v89.748c-25.044,0-45.344-20.092-45.344-44.876S246.886,196.979,271.93,196.979Z" transform="translate(-216.498 -186.997)"/><g transform="translate(31.129 38.606)"><path class="i" d="M245.98,227.475l-5.661,2.777-.983-2a3.232,3.232,0,0,1-.423-2.153,2.156,2.156,0,0,1,1.264-1.359,2.053,2.053,0,0,1,1.831-.139,3.325,3.325,0,0,1,1.4,1.634l.37.752,1.577-.773Zm-3.292.045-.417-.85c-.207-.417-.431-.662-.675-.731a1.208,1.208,0,0,0-.854.137.872.872,0,0,0-.547.635,1.8,1.8,0,0,0,.246,1.019l.353.718Z" transform="translate(-236.825 -201.433)"/><path class="i" d="M243.564,225.559a3.289,3.289,0,0,1-4.623.432,3.439,3.439,0,0,1-.438-4.687,3.3,3.3,0,0,1,4.623-.432,3.438,3.438,0,0,1,.438,4.687Zm-3.837-.681a2.186,2.186,0,0,0,2.865-.267,1.786,1.786,0,0,0-.246-2.645,2.054,2.054,0,0,0-1.48-.4,2.079,2.079,0,0,0-1.388.671,1.774,1.774,0,0,0,.248,2.645Z" transform="translate(-237.777 -205.235)"/><path class="i" d="M243.012,222.034a3.289,3.289,0,0,1-4.432-1.388,3.437,3.437,0,0,1,1.4-4.492,3.3,3.3,0,0,1,4.432,1.386,3.438,3.438,0,0,1-1.4,4.494Zm-3.279-2.11a2.084,2.084,0,0,0,1.216.948,2.06,2.06,0,0,0,1.532-.088,1.787,1.787,0,0,0,.793-2.534,2.054,2.054,0,0,0-1.209-.946,2.09,2.09,0,0,0-1.54.085,1.778,1.778,0,0,0-.793,2.536Z" transform="translate(-237.384 -209.063)"/><path class="i" d="M244.694,219.372l-4.919-3.945,1.5-1.865a3.4,3.4,0,0,1,1.7-1.324,1.929,1.929,0,0,1,1.641.515,1.851,1.851,0,0,1,.775,2.157l2.753.165-1.083,1.35-2.439-.169-.609.76,1.566,1.256Zm-1.636-3.119.641-.8a1.521,1.521,0,0,0,.434-.916.958.958,0,0,0-.414-.667.8.8,0,0,0-.713-.224,1.775,1.775,0,0,0-.741.622l-.658.822Z" transform="translate(-236.018 -212.203)"/></g><g transform="translate(11.872 11.783)"><path class="i" d="M248.091,236.6l-5.8,5.8-5.379,5.381a42.64,42.64,0,0,1-9.375-26.717c0-.152,0-.308,0-.459h15.715c-.006.15-.006.3-.006.459A27.236,27.236,0,0,0,248.091,236.6Z" transform="translate(-227.535 -177.989)"/><path class="j" d="M248.1,217.75a27.252,27.252,0,0,0-4.661,11.841H227.624a42.62,42.62,0,0,1,9.3-23.013Z" transform="translate(-227.457 -190.331)"/><path class="k" d="M261.5,197.937V213.5a27.88,27.88,0,0,0-13.78,4.58l-5.8-5.8-5.377-5.375A43.607,43.607,0,0,1,261.5,197.937Z" transform="translate(-219.611 -197.937)"/><path class="l" d="M276.672,206.992,265.5,218.168a27.845,27.845,0,0,0-13.9-4.665V197.937A43.64,43.64,0,0,1,276.672,206.992Z" transform="translate(-206.359 -197.937)"/><path class="m" d="M283.328,229.539h-15.81a27.228,27.228,0,0,0-4.578-11.719l5.8-5.8,5.379-5.381A42.639,42.639,0,0,1,283.328,229.539Z" transform="translate(-196.373 -190.279)"/><path class="n" d="M283.536,221.06a42.629,42.629,0,0,1-9.469,26.828l-11.172-11.172a27.22,27.22,0,0,0,4.928-15.656c0-.156,0-.308-.006-.459h15.715C283.536,220.751,283.536,220.908,283.536,221.06Z" transform="translate(-196.412 -177.989)"/></g><g transform="translate(68.925 38.834)"><path class="o" d="M257.9,215.257a3.354,3.354,0,0,1,3.672-2.9,3.228,3.228,0,0,1,2.162,1.241,3.494,3.494,0,0,1,.8,2.378l-1.279.085a2.716,2.716,0,0,0-.081-.931,2.067,2.067,0,0,0-.369-.69,1.84,1.84,0,0,0-1.275-.714,1.976,1.976,0,0,0-1.483.478,2,2,0,0,0-.807,1.318,1.692,1.692,0,0,0,.357,1.322,2.378,2.378,0,0,0,.98.777l1.363-1.085.878,1.1-1.76,1.4a3.292,3.292,0,0,1-2.412-1.373l-.008-.009A3.218,3.218,0,0,1,257.9,215.257Z" transform="translate(-257.879 -212.324)"/><path class="o" d="M260.064,217.555a3.292,3.292,0,0,1,4.433-1.382,3.438,3.438,0,0,1,1.4,4.494,3.3,3.3,0,0,1-4.433,1.384,3.442,3.442,0,0,1-1.4-4.5Zm3.9-.13a2.184,2.184,0,0,0-2.749.855,1.788,1.788,0,0,0,.79,2.536,2.051,2.051,0,0,0,1.532.09,2.076,2.076,0,0,0,1.216-.948,1.77,1.77,0,0,0-.79-2.534Z" transform="translate(-256.271 -209.277)"/><path class="o" d="M261.318,220.808a3.287,3.287,0,0,1,4.627.395,3.438,3.438,0,0,1-.4,4.689,3.3,3.3,0,0,1-4.627-.395,3.434,3.434,0,0,1,.4-4.689Zm3.657,1.35a2.075,2.075,0,0,0-1.393-.662,2.046,2.046,0,0,0-1.476.416,1.786,1.786,0,0,0-.226,2.647,2.053,2.053,0,0,0,1.384.662,2.085,2.085,0,0,0,1.485-.417,1.776,1.776,0,0,0,.226-2.645Z" transform="translate(-255.86 -205.538)"/><path class="o" d="M260.615,223.731l5.644,2.807-.991,1.991a3.7,3.7,0,0,1-1.886,1.95,2.955,2.955,0,0,1-2.461-.218,3.1,3.1,0,0,1-1.694-1.824,3.718,3.718,0,0,1,.427-2.777Zm.479,1.813-.395.8a2.09,2.09,0,0,0-.226,1.549,1.869,1.869,0,0,0,1.044,1.1,1.919,1.919,0,0,0,1.515.177,2.206,2.206,0,0,0,1.158-1.2l.35-.7Z" transform="translate(-256.796 -202.284)"/></g><g transform="translate(44.531 80.966)"><path class="p" d="M244.9,240.122v-5.389h2.042a2.911,2.911,0,0,1,1.792.427,1.639,1.639,0,0,1,.534,1.369,1.583,1.583,0,0,1-1.023,1.67l1.361,1.923h-1.478l-1.194-1.717h-.831v1.717Zm1.2-2.758h.878a1.287,1.287,0,0,0,.84-.2.81.81,0,0,0,.224-.632.675.675,0,0,0-.231-.594,1.5,1.5,0,0,0-.812-.162h-.9Z" transform="translate(-244.905 -234.733)"/><path class="p" d="M247.511,240.122l2.324-5.389H251l2.324,5.389h-1.277l-.5-1.164H249.29l-.5,1.164Zm2.234-2.22h1.346l-.669-1.564Z" transform="translate(-242.611 -234.733)"/><path class="p" d="M250.935,240.122v-5.389h1.122L254.7,238.2v-3.469h1.2v5.389h-1.2l-2.566-3.375v3.375Z" transform="translate(-239.598 -234.733)"/><path class="p" d="M254.282,240.122v-5.389h1.2v2.213l2.032-2.213h1.489l-2.145,2.382q.279.384,1.027,1.438t1.119,1.568h-1.4L256.023,238l-.538.6v1.529Z" transform="translate(-236.652 -234.733)"/></g><g transform="translate(44.704 89.98)"><rect width="6.259" height="9.666" rx="0.981"/><rect class="q" width="8.198" height="4.791" rx="0.751" transform="translate(5.523 1.147) rotate(90)"/><g transform="translate(1.66 2.001)"><path class="r" d="M245.88,241.727v-1.136h2.442v6.03h-1.3v-4.894Z" transform="translate(-245.88 -240.591)"/></g><rect width="6.259" height="9.666" rx="0.981" transform="translate(7.603)"/><rect class="q" width="8.198" height="4.791" rx="0.751" transform="translate(13.126 1.147) rotate(90)"/><g transform="translate(8.433 1.867)"><path class="r" d="M249.482,244.882a1.872,1.872,0,0,1,.76-1.553,1.584,1.584,0,0,1-.54-1.175,1.45,1.45,0,0,1,.592-1.149,2.528,2.528,0,0,1,2.978,0,1.449,1.449,0,0,1,.6,1.154,1.559,1.559,0,0,1-.534,1.169,1.877,1.877,0,0,1,.754,1.553,1.679,1.679,0,0,1-.639,1.327,2.827,2.827,0,0,1-3.328,0A1.679,1.679,0,0,1,249.482,244.882Zm1.638-.637a.7.7,0,0,0-.291.6.682.682,0,0,0,.3.6,1.159,1.159,0,0,0,1.31,0,.682.682,0,0,0,.3-.6.7.7,0,0,0-.293-.6,1.16,1.16,0,0,0-1.327,0Zm.088-2.457a.617.617,0,0,0-.241.489.607.607,0,0,0,.246.491.926.926,0,0,0,1.143,0,.613.613,0,0,0,0-.98.933.933,0,0,0-1.153,0Z" transform="translate(-249.482 -240.52)"/></g><rect class="s" width="6.259" height="9.666" rx="0.981" transform="translate(15.206)"/><rect class="t" width="8.198" height="4.791" rx="0.751" transform="translate(20.729 1.147) rotate(90)"/><path class="r" d="M256.5,239.527a.929.929,0,0,1,.081.384.771.771,0,0,1-.267.611.976.976,0,0,1-.666.231.773.773,0,0,1-.622-.261.952.952,0,0,1-.222-.639.93.93,0,0,1,.055-.322,2.25,2.25,0,0,0-1.316.478,1.913,1.913,0,0,0,.558,1.331,1.949,1.949,0,0,0,1.414.551,2.073,2.073,0,0,0,1.183-.369,1.888,1.888,0,0,1-.372,1.019,1.051,1.051,0,0,1-.861.372,1.208,1.208,0,0,1-.534-.139,2.24,2.24,0,0,1-.384-.218c-.068-.055-.122-.1-.16-.133l-.677.951c.175.135.327.246.459.329a2.715,2.715,0,0,0,.588.252,2.658,2.658,0,0,0,.812.124,2.215,2.215,0,0,0,1.668-.724,2.565,2.565,0,0,0,.534-.985,4.766,4.766,0,0,0,.2-1.453,5.311,5.311,0,0,0-.1-1.044,2.247,2.247,0,0,0-1.2-.346Z" transform="translate(-237.471 -239.527)"/></g><path class="u" d="M244.542,236.6l-5.8,5.8a35.215,35.215,0,0,1-7.173-21.336c0-.152,0-.308.006-.459H239.7c-.006.15-.006.3-.006.459A27.236,27.236,0,0,0,244.542,236.6Z" transform="translate(-212.114 -166.205)"/><path class="v" d="M238.734,209.437l5.8,5.8a27.252,27.252,0,0,0-4.661,11.841h-8.194A35.134,35.134,0,0,1,238.734,209.437Z" transform="translate(-212.018 -176.032)"/><path class="w" d="M258.98,201.931v8.057a27.88,27.88,0,0,0-13.78,4.58l-5.8-5.8A36.053,36.053,0,0,1,258.98,201.931Z" transform="translate(-205.221 -182.638)"/><path class="x" d="M251.594,201.931a36.046,36.046,0,0,1,19.7,6.921l-5.8,5.8a27.845,27.845,0,0,0-13.9-4.665Z" transform="translate(-194.486 -182.638)"/><path class="y" d="M275.709,227.02h-8.192a27.228,27.228,0,0,0-4.578-11.719l5.8-5.8A35.187,35.187,0,0,1,275.709,227.02Z" transform="translate(-184.501 -175.977)"/><path class="o" d="M275.955,221.06a35.184,35.184,0,0,1-7.265,21.453l-5.795-5.8a27.22,27.22,0,0,0,4.928-15.656c0-.156,0-.308-.006-.459h8.13C275.955,220.751,275.955,220.908,275.955,221.06Z" transform="translate(-184.54 -166.205)"/><path class="k" d="M245.407,208.082a35.847,35.847,0,0,0-7.461,7.278l-5.375-5.375a43.108,43.108,0,0,1,7.459-7.278Z" transform="translate(-211.23 -181.955)"/><path class="w" d="M248.693,211.368a27.872,27.872,0,0,0-7.466,7.273l-5.8-5.8a35.847,35.847,0,0,1,7.461-7.278Z" transform="translate(-208.714 -179.439)"/><path class="l" d="M274.883,210.056l-5.379,5.381a35.887,35.887,0,0,0-7.43-7.308l5.375-5.375A43.513,43.513,0,0,1,274.883,210.056Z" transform="translate(-185.263 -181.915)"/><path class="x" d="M272.219,212.92l-5.8,5.8a27.756,27.756,0,0,0-7.429-7.31l5.8-5.8A35.886,35.886,0,0,1,272.219,212.92Z" transform="translate(-187.978 -179.398)"/><g class="a" transform="translate(52.599 21.783)"><path class="z" d="M254.866,257.275H249.2l2.835-54.02,5.015,30.165Z" transform="translate(-249.196 -203.256)"/><path class="aa" d="M254.96,257.357h-5.67l2.835-54.02,5.015,30.165Z" transform="translate(-249.113 -203.184)"/><path class="ab" d="M255.053,257.438h-5.67l2.835-54.02,5.014,30.165Z" transform="translate(-249.031 -203.112)"/><path class="ac" d="M255.147,257.52h-5.67l2.835-54.02,5.015,30.165Z" transform="translate(-248.949 -203.041)"/><path class="ad" d="M255.24,257.6h-5.67l2.835-54.02,5.015,30.165Z" transform="translate(-248.866 -202.969)"/><path class="ae" d="M255.334,257.682h-5.67l2.835-54.02,5.015,30.165Z" transform="translate(-248.784 -202.897)"/><path class="af" d="M255.427,257.764h-5.67l2.835-54.02,5.015,30.165Z" transform="translate(-248.702 -202.826)"/><path class="ag" d="M255.521,257.845h-5.67l2.835-54.02L257.7,233.99Z" transform="translate(-248.619 -202.754)"/><path class="ah" d="M255.615,257.926h-5.67l2.835-54.02,5.015,30.165Z" transform="translate(-248.537 -202.683)"/><path class="ai" d="M255.708,258.008h-5.67l2.835-54.02,5.015,30.165Z" transform="translate(-248.455 -202.611)"/><path class="aj" d="M255.8,258.089h-5.67l2.835-54.02,5.015,30.165Z" transform="translate(-248.372 -202.539)"/><path class="ak" d="M255.9,258.17h-5.67l2.835-54.02,5.015,30.165Z" transform="translate(-248.29 -202.468)"/><path class="al" d="M255.989,258.252h-5.67l2.835-54.02,5.015,30.165Z" transform="translate(-248.207 -202.396)"/><path class="am" d="M256.082,258.333h-5.67l2.835-54.02,5.015,30.165Z" transform="translate(-248.125 -202.325)"/><path class="an" d="M256.176,258.415h-5.67l2.835-54.02,5.015,30.165Z" transform="translate(-248.043 -202.253)"/><path class="ao" d="M256.27,258.5H250.6l2.835-54.02,5.015,30.165Z" transform="translate(-247.96 -202.181)"/><path class="ap" d="M256.363,258.577h-5.67l2.835-54.02,5.015,30.165Z" transform="translate(-247.878 -202.11)"/><path class="aq" d="M256.457,258.659h-5.67l2.835-54.02,5.014,30.165Z" transform="translate(-247.796 -202.038)"/><path class="ar" d="M256.55,258.74h-5.67l2.835-54.02,5.015,30.165Z" transform="translate(-247.713 -201.966)"/><path class="as" d="M256.644,258.821h-5.67l2.835-54.02,5.015,30.165Z" transform="translate(-247.631 -201.895)"/><path class="at" d="M256.738,258.9h-5.67l2.835-54.02,5.015,30.165Z" transform="translate(-247.549 -201.823)"/><path class="au" d="M256.831,258.984h-5.67L254,204.964l5.015,30.165Z" transform="translate(-247.466 -201.752)"/><path class="av" d="M256.925,259.065h-5.67l2.835-54.02,5.015,30.165Z" transform="translate(-247.384 -201.68)"/><path class="aw" d="M257.018,259.147h-5.67l2.835-54.02,5.015,30.165Z" transform="translate(-247.301 -201.608)"/><path class="ax" d="M257.112,259.228h-5.67l2.835-54.02,5.015,30.165Z" transform="translate(-247.219 -201.537)"/><path class="ay" d="M257.205,259.31h-5.67l2.835-54.02,5.015,30.165Z" transform="translate(-247.137 -201.465)"/><path class="az" d="M257.3,259.391h-5.67l2.835-54.02,5.015,30.165Z" transform="translate(-247.054 -201.394)"/><path class="ba" d="M257.393,259.472h-5.67l2.835-54.02,5.015,30.165Z" transform="translate(-246.972 -201.322)"/><path class="bb" d="M257.486,259.554h-5.67l2.835-54.02,5.015,30.165Z" transform="translate(-246.89 -201.25)"/><path class="b" d="M257.58,259.635h-5.67l2.835-54.02,5.015,30.165Z" transform="translate(-246.807 -201.179)"/><path class="bc" d="M257.673,259.716H252l2.835-54.02,5.015,30.165Z" transform="translate(-246.725 -201.107)"/><path class="bd" d="M257.767,259.8H252.1l2.835-54.02,5.015,30.165Z" transform="translate(-246.643 -201.036)"/><path class="be" d="M257.86,259.879h-5.67l2.835-54.02,5.015,30.165Z" transform="translate(-246.56 -200.964)"/><path class="bf" d="M257.954,259.96h-5.67l2.835-54.02,5.015,30.165Z" transform="translate(-246.478 -200.892)"/><path class="bg" d="M258.048,260.042h-5.67l2.835-54.02,5.015,30.165Z" transform="translate(-246.396 -200.821)"/><path class="bh" d="M258.141,260.123h-5.67l2.835-54.02,5.015,30.165Z" transform="translate(-246.313 -200.749)"/><path class="bi" d="M258.235,260.2h-5.67l2.835-54.02,5.014,30.165Z" transform="translate(-246.231 -200.677)"/><path class="bj" d="M258.328,260.286h-5.67l2.835-54.02,5.015,30.165Z" transform="translate(-246.148 -200.606)"/><path class="bk" d="M258.422,260.367h-5.67l2.835-54.02,5.015,30.165Z" transform="translate(-246.066 -200.534)"/><path class="bl" d="M258.515,260.449h-5.67l2.835-54.02,5.015,30.165Z" transform="translate(-245.984 -200.463)"/><path class="bm" d="M258.609,260.53h-5.67l2.835-54.02,5.015,30.165Z" transform="translate(-245.901 -200.391)"/><path class="bn" d="M258.7,260.611h-5.67l2.835-54.02,5.015,30.165Z" transform="translate(-245.819 -200.319)"/><path class="bo" d="M258.8,260.693h-5.67l2.835-54.02,5.015,30.165Z" transform="translate(-245.737 -200.248)"/><path class="bp" d="M258.89,260.774h-5.67l2.835-54.02,5.015,30.165Z" transform="translate(-245.654 -200.176)"/><path class="bq" d="M258.983,260.856h-5.67l2.835-54.02L261.163,237Z" transform="translate(-245.572 -200.105)"/><path class="br" d="M259.077,260.937h-5.67l2.835-54.02,5.015,30.165Z" transform="translate(-245.49 -200.033)"/><path class="bs" d="M259.17,261.018H253.5L256.335,207l5.015,30.165Z" transform="translate(-245.407 -199.961)"/><path class="bt" d="M259.264,261.1h-5.67l2.835-54.02,5.015,30.165Z" transform="translate(-245.325 -199.89)"/><path class="bu" d="M259.357,261.181h-5.67l2.835-54.02,5.015,30.165Z" transform="translate(-245.242 -199.818)"/><path class="bv" d="M259.451,261.262h-5.67l2.835-54.02,5.015,30.165Z" transform="translate(-245.16 -199.746)"/><path class="bw" d="M259.545,261.344h-5.67l2.835-54.02,5.015,30.165Z" transform="translate(-245.078 -199.675)"/><path class="bx" d="M259.638,261.425h-5.67L256.8,207.4l5.014,30.165Z" transform="translate(-244.995 -199.603)"/><path class="by" d="M259.732,261.506h-5.67l2.835-54.02,5.015,30.165Z" transform="translate(-244.913 -199.532)"/><path class="bz" d="M259.825,261.588h-5.67l2.835-54.02L262,237.733Z" transform="translate(-244.831 -199.46)"/><path class="ca" d="M259.919,261.669h-5.67l2.835-54.02,5.015,30.165Z" transform="translate(-244.748 -199.388)"/><path class="cb" d="M260.012,261.751h-5.67l2.835-54.02,5.015,30.165Z" transform="translate(-244.666 -199.317)"/><path class="cc" d="M260.106,261.832h-5.67l2.835-54.02,5.015,30.165Z" transform="translate(-244.584 -199.245)"/><path class="cd" d="M260.2,261.913h-5.67l2.835-54.02,5.015,30.165Z" transform="translate(-244.501 -199.173)"/><path class="ce" d="M260.293,261.995h-5.67l2.835-54.02,5.015,30.165Z" transform="translate(-244.419 -199.102)"/><path class="cf" d="M260.387,262.076h-5.67l2.835-54.02,5.015,30.165Z" transform="translate(-244.336 -199.03)"/><path class="cg" d="M260.48,262.157h-5.67l2.835-54.02L262.66,238.3Z" transform="translate(-244.254 -198.959)"/><path class="ch" d="M260.574,262.239H254.9l2.835-54.02,5.015,30.165Z" transform="translate(-244.172 -198.887)"/><path class="ci" d="M260.667,262.32H255l2.835-54.02,5.015,30.165Z" transform="translate(-244.089 -198.815)"/><path class="cj" d="M260.761,262.4h-5.67l2.835-54.02,5.015,30.165Z" transform="translate(-244.007 -198.744)"/><path class="ck" d="M260.855,262.483h-5.67l2.835-54.02,5.015,30.165Z" transform="translate(-243.925 -198.672)"/><path class="cl" d="M260.948,262.564h-5.67l2.835-54.02,5.015,30.165Z" transform="translate(-243.842 -198.601)"/><path class="cm" d="M261.042,262.646h-5.67l2.835-54.02,5.014,30.165Z" transform="translate(-243.76 -198.529)"/><path class="cn" d="M261.135,262.727h-5.67l2.835-54.02,5.015,30.165Z" transform="translate(-243.678 -198.457)"/><path class="co" d="M261.229,262.808h-5.67l2.835-54.02,5.015,30.165Z" transform="translate(-243.595 -198.386)"/><path class="cp" d="M261.323,262.89h-5.67l2.835-54.02,5.015,30.165Z" transform="translate(-243.513 -198.314)"/><path class="cq" d="M261.416,262.971h-5.67l2.835-54.02,5.015,30.165Z" transform="translate(-243.43 -198.243)"/><path class="cr" d="M261.51,263.052h-5.67l2.835-54.02,5.015,30.165Z" transform="translate(-243.348 -198.171)"/><path class="cs" d="M261.6,263.134h-5.67l2.835-54.02,5.015,30.165Z" transform="translate(-243.266 -198.099)"/><path class="ct" d="M261.7,263.215h-5.67l2.835-54.02,5.015,30.165Z" transform="translate(-243.183 -198.028)"/><path class="cu" d="M261.79,263.3h-5.67l2.835-54.02,5.015,30.165Z" transform="translate(-243.101 -197.956)"/><path class="cv" d="M261.884,263.378h-5.67l2.835-54.02,5.015,30.165Z" transform="translate(-243.019 -197.884)"/><path class="cw" d="M261.978,263.459h-5.67l2.835-54.02,5.015,30.165Z" transform="translate(-242.936 -197.813)"/><path class="cx" d="M262.071,263.541H256.4l2.835-54.02,5.015,30.165Z" transform="translate(-242.854 -197.741)"/><path class="cy" d="M262.165,263.622h-5.67l2.835-54.02,5.015,30.165Z" transform="translate(-242.772 -197.67)"/><path class="cz" d="M262.258,263.7h-5.67l2.835-54.02,5.015,30.165Z" transform="translate(-242.689 -197.598)"/><path class="da" d="M262.352,263.785h-5.67l2.835-54.02,5.015,30.165Z" transform="translate(-242.607 -197.526)"/><path class="db" d="M262.445,263.866h-5.67l2.835-54.02,5.014,30.165Z" transform="translate(-242.524 -197.455)"/><path class="dc" d="M262.539,263.947h-5.67l2.835-54.02,5.015,30.165Z" transform="translate(-242.442 -197.383)"/><path class="dd" d="M262.633,264.029h-5.67l2.835-54.02,5.015,30.165Z" transform="translate(-242.36 -197.312)"/><path class="de" d="M262.726,264.11h-5.67l2.835-54.02,5.015,30.165Z" transform="translate(-242.277 -197.24)"/><path class="df" d="M262.82,264.191h-5.67l2.835-54.02L265,240.337Z" transform="translate(-242.195 -197.168)"/><path class="dg" d="M262.913,264.273h-5.67l2.835-54.02,5.015,30.165Z" transform="translate(-242.113 -197.097)"/><path class="dh" d="M263.007,264.354h-5.67l2.835-54.02,5.015,30.165Z" transform="translate(-242.03 -197.025)"/><path class="di" d="M263.1,264.436h-5.67l2.835-54.02,5.015,30.165Z" transform="translate(-241.948 -196.954)"/><path class="dj" d="M263.194,264.517h-5.67l2.835-54.02,5.015,30.165Z" transform="translate(-241.866 -196.882)"/><path class="dk" d="M263.288,264.6h-5.67l2.835-54.02,5.015,30.165Z" transform="translate(-241.783 -196.81)"/><path class="dl" d="M263.381,264.679h-5.67l2.835-54.02,5.015,30.165Z" transform="translate(-241.701 -196.739)"/><path class="dm" d="M263.475,264.761H257.8l2.835-54.02,5.015,30.165Z" transform="translate(-241.619 -196.667)"/><path class="dn" d="M263.568,264.842H257.9l2.835-54.02,5.015,30.165Z" transform="translate(-241.536 -196.595)"/><path class="do" d="M263.662,264.924h-5.67l2.835-54.02,5.015,30.165Z" transform="translate(-241.454 -196.524)"/><path class="dp" d="M263.756,265h-5.67l2.835-54.02,5.015,30.165Z" transform="translate(-241.371 -196.452)"/><path class="dq" d="M263.849,265.086h-5.67l2.835-54.02,5.014,30.165Z" transform="translate(-241.289 -196.381)"/><path class="dr" d="M263.943,265.168h-5.67l2.835-54.02,5.015,30.165Z" transform="translate(-241.207 -196.309)"/><path class="ds" d="M264.036,265.249h-5.67l2.835-54.02,5.015,30.165Z" transform="translate(-241.124 -196.237)"/><path class="dt" d="M264.13,265.331h-5.67l2.835-54.02,5.015,30.165Z" transform="translate(-241.042 -196.166)"/><path class="du" d="M264.223,265.412h-5.67l2.835-54.02,5.014,30.165Z" transform="translate(-240.96 -196.094)"/><path class="dv" d="M264.317,265.493h-5.67l2.835-54.02,5.015,30.165Z" transform="translate(-240.877 -196.023)"/><path class="dw" d="M264.411,265.574h-5.67l2.835-54.02,5.015,30.165Z" transform="translate(-240.795 -195.951)"/><path class="dx" d="M264.5,265.656h-5.67l2.835-54.02,5.015,30.165Z" transform="translate(-240.713 -195.879)"/><path class="dy" d="M264.6,265.737h-5.67l2.835-54.02,5.015,30.165Z" transform="translate(-240.63 -195.808)"/><path class="dz" d="M264.691,265.819h-5.67l2.835-54.02,5.015,30.165Z" transform="translate(-240.548 -195.736)"/><path class="ea" d="M264.785,265.9h-5.67l2.835-54.02,5.015,30.165Z" transform="translate(-240.465 -195.664)"/><path class="eb" d="M264.878,265.981h-5.67l2.835-54.02,5.015,30.165Z" transform="translate(-240.383 -195.593)"/><path class="ec" d="M264.972,266.063H259.3l2.835-54.02,5.015,30.165Z" transform="translate(-240.301 -195.521)"/><path class="ed" d="M265.066,266.144H259.4l2.835-54.02,5.015,30.165Z" transform="translate(-240.218 -195.45)"/><path class="ee" d="M265.159,266.225h-5.67l2.835-54.02,5.015,30.165Z" transform="translate(-240.136 -195.378)"/><path class="ef" d="M265.253,266.307h-5.67l2.835-54.02,5.015,30.165Z" transform="translate(-240.054 -195.306)"/><path class="eg" d="M265.346,266.388h-5.67l2.835-54.02,5.015,30.165Z" transform="translate(-239.971 -195.235)"/><path class="eh" d="M265.44,266.469h-5.67l2.835-54.02,5.015,30.165Z" transform="translate(-239.889 -195.163)"/><path class="ei" d="M265.533,266.551h-5.67l2.835-54.02,5.015,30.165Z" transform="translate(-239.807 -195.091)"/><path class="ej" d="M265.627,266.632h-5.67l2.835-54.02,5.014,30.165Z" transform="translate(-239.724 -195.02)"/><path class="ek" d="M265.721,266.714h-5.67l2.835-54.02,5.015,30.165Z" transform="translate(-239.642 -194.948)"/><path class="el" d="M265.814,266.795h-5.67l2.835-54.02,5.015,30.165Z" transform="translate(-239.56 -194.877)"/><path class="em" d="M265.908,266.876h-5.67l2.835-54.02,5.015,30.165Z" transform="translate(-239.477 -194.805)"/><path class="en" d="M266,266.958h-5.67l2.835-54.02,5.015,30.165Z" transform="translate(-239.395 -194.733)"/><path class="eo" d="M266.095,267.039h-5.67l2.835-54.02,5.015,30.165Z" transform="translate(-239.313 -194.662)"/><path class="ep" d="M266.188,267.12h-5.67l2.835-54.02,5.015,30.165Z" transform="translate(-239.23 -194.59)"/><path class="eq" d="M266.282,267.2h-5.67l2.835-54.02,5.015,30.165Z" transform="translate(-239.148 -194.519)"/><path class="er" d="M266.375,267.283h-5.67l2.835-54.02,5.015,30.165Z" transform="translate(-239.065 -194.447)"/><path class="es" d="M266.469,267.365H260.8l2.835-54.02,5.015,30.165Z" transform="translate(-238.983 -194.375)"/><path class="et" d="M266.563,267.446h-5.67l2.835-54.02,5.015,30.165Z" transform="translate(-238.901 -194.304)"/><path class="eu" d="M266.656,267.527h-5.67l2.835-54.02,5.015,30.165Z" transform="translate(-238.818 -194.232)"/><path class="ev" d="M266.75,267.609h-5.67l2.835-54.02,5.015,30.165Z" transform="translate(-238.736 -194.161)"/><path class="ew" d="M266.843,267.69h-5.67l2.835-54.02,5.015,30.165Z" transform="translate(-238.654 -194.089)"/><path class="ex" d="M266.937,267.771h-5.67l2.835-54.02,5.015,30.165Z" transform="translate(-238.571 -194.017)"/><path class="ey" d="M267.03,267.853h-5.67l2.835-54.02L269.21,244Z" transform="translate(-238.489 -193.946)"/><path class="ez" d="M267.124,267.934h-5.67l2.835-54.02,5.015,30.165Z" transform="translate(-238.406 -193.874)"/><path class="fa" d="M267.218,268.015h-5.67L264.383,214l5.015,30.165Z" transform="translate(-238.324 -193.802)"/><path class="fb" d="M267.311,268.1h-5.67l2.835-54.02,5.015,30.165Z" transform="translate(-238.242 -193.731)"/><path class="r" d="M267.4,268.178h-5.67l2.835-54.02,5.015,30.165Z" transform="translate(-238.159 -193.659)"/></g><g transform="translate(48.182 21.783)"><path class="fc" d="M255.886,257.275h-5.67l-2.18-23.855,5.015-30.165,5.015,30.165Z" transform="translate(-245.799 -203.256)"/><path class="fd" d="M250.7,203.256v54.019h2.835l2.18-23.855L250.7,203.256Z" transform="translate(-243.452 -203.256)"/><g transform="translate(0 25.82)"><path class="fe" d="M255.831,229.373A7.237,7.237,0,0,1,250.7,231.5V216.988a7.256,7.256,0,0,1,5.127,12.385Z" transform="translate(-243.452 -216.988)"/><path class="ff" d="M255.442,228.721a6.667,6.667,0,0,1-4.738,1.961v-13.4a6.7,6.7,0,0,1,4.738,11.437Z" transform="translate(-243.452 -216.727)"/><path class="fg" d="M248.972,229.373A7.23,7.23,0,0,0,254.1,231.5V216.988a7.256,7.256,0,0,0-5.127,12.385Z" transform="translate(-246.847 -216.988)"/><path class="fh" d="M249.1,228.721a6.668,6.668,0,0,0,4.74,1.961v-13.4a6.7,6.7,0,0,0-4.74,11.437Z" transform="translate(-246.589 -216.727)"/></g><path class="i" d="M251.822,203.256l-2.39,14.375h4.779Z" transform="translate(-244.571 -203.256)"/><path class="fi" d="M250.7,217.63h2.39l-2.39-14.375h0Z" transform="translate(-243.452 -203.256)"/></g><g class="a" transform="translate(6.393 6.327)"><ellipse class="z" cx="49.04" cy="48.529" rx="49.04" ry="48.529"/><ellipse class="aa" cx="49.017" cy="48.506" rx="49.017" ry="48.506" transform="translate(0.11 0.062)"/><ellipse class="ab" cx="48.993" cy="48.482" rx="48.993" ry="48.482" transform="translate(0.22 0.123)"/><ellipse class="ac" cx="48.969" cy="48.459" rx="48.969" ry="48.459" transform="translate(0.33 0.185)"/><ellipse class="ad" cx="48.945" cy="48.435" rx="48.945" ry="48.435" transform="translate(0.44 0.247)"/><ellipse class="ae" cx="48.921" cy="48.411" rx="48.921" ry="48.411" transform="translate(0.549 0.308)"/><ellipse class="af" cx="48.897" cy="48.388" rx="48.897" ry="48.388" transform="translate(0.659 0.37)"/><ellipse class="ag" cx="48.873" cy="48.364" rx="48.873" ry="48.364" transform="translate(0.769 0.432)"/><ellipse class="ah" cx="48.849" cy="48.34" rx="48.849" ry="48.34" transform="translate(0.879 0.494)"/><ellipse class="ai" cx="48.825" cy="48.317" rx="48.825" ry="48.317" transform="translate(0.989 0.555)"/><ellipse class="aj" cx="48.802" cy="48.293" rx="48.802" ry="48.293" transform="translate(1.099 0.617)"/><ellipse class="ak" cx="48.778" cy="48.269" rx="48.778" ry="48.269" transform="translate(1.209 0.679)"/><ellipse class="al" cx="48.754" cy="48.246" rx="48.754" ry="48.246" transform="translate(1.319 0.74)"/><ellipse class="am" cx="48.73" cy="48.222" rx="48.73" ry="48.222" transform="translate(1.428 0.802)"/><ellipse class="an" cx="48.706" cy="48.199" rx="48.706" ry="48.199" transform="translate(1.538 0.864)"/><ellipse class="ao" cx="48.682" cy="48.175" rx="48.682" ry="48.175" transform="translate(1.648 0.925)"/><ellipse class="ap" cx="48.658" cy="48.151" rx="48.658" ry="48.151" transform="translate(1.758 0.987)"/><ellipse class="aq" cx="48.635" cy="48.128" rx="48.635" ry="48.128" transform="translate(1.868 1.049)"/><ellipse class="ar" cx="48.611" cy="48.104" rx="48.611" ry="48.104" transform="translate(1.978 1.11)"/><ellipse class="as" cx="48.587" cy="48.08" rx="48.587" ry="48.08" transform="translate(2.088 1.172)"/><ellipse class="at" cx="48.563" cy="48.057" rx="48.563" ry="48.057" transform="translate(2.198 1.234)"/><ellipse class="au" cx="48.539" cy="48.033" rx="48.539" ry="48.033" transform="translate(2.308 1.296)"/><ellipse class="av" cx="48.515" cy="48.01" rx="48.515" ry="48.01" transform="translate(2.417 1.357)"/><ellipse class="aw" cx="48.491" cy="47.986" rx="48.491" ry="47.986" transform="translate(2.527 1.419)"/><ellipse class="ax" cx="48.467" cy="47.962" rx="48.467" ry="47.962" transform="translate(2.637 1.48)"/><ellipse class="ay" cx="48.444" cy="47.939" rx="48.444" ry="47.939" transform="translate(2.747 1.542)"/><ellipse class="az" cx="48.42" cy="47.915" rx="48.42" ry="47.915" transform="translate(2.857 1.604)"/><ellipse class="ba" cx="48.396" cy="47.891" rx="48.396" ry="47.891" transform="translate(2.967 1.666)"/><ellipse class="bb" cx="48.372" cy="47.868" rx="48.372" ry="47.868" transform="translate(3.077 1.727)"/><ellipse class="b" cx="48.348" cy="47.844" rx="48.348" ry="47.844" transform="translate(3.187 1.789)"/><ellipse class="bc" cx="48.324" cy="47.821" rx="48.324" ry="47.821" transform="translate(3.296 1.851)"/><ellipse class="bd" cx="48.3" cy="47.797" rx="48.3" ry="47.797" transform="translate(3.406 1.912)"/><ellipse class="be" cx="48.277" cy="47.773" rx="48.277" ry="47.773" transform="translate(3.516 1.974)"/><ellipse class="bf" cx="48.253" cy="47.75" rx="48.253" ry="47.75" transform="translate(3.626 2.036)"/><ellipse class="bg" cx="48.229" cy="47.726" rx="48.229" ry="47.726" transform="translate(3.736 2.097)"/><ellipse class="bh" cx="48.205" cy="47.703" rx="48.205" ry="47.703" transform="translate(3.846 2.159)"/><ellipse class="bi" cx="48.181" cy="47.679" rx="48.181" ry="47.679" transform="translate(3.956 2.221)"/><ellipse class="bj" cx="48.157" cy="47.655" rx="48.157" ry="47.655" transform="translate(4.065 2.282)"/><ellipse class="bk" cx="48.133" cy="47.632" rx="48.133" ry="47.632" transform="translate(4.175 2.344)"/><ellipse class="bl" cx="48.109" cy="47.608" rx="48.109" ry="47.608" transform="translate(4.285 2.406)"/><ellipse class="bm" cx="48.085" cy="47.584" rx="48.085" ry="47.584" transform="translate(4.395 2.468)"/><ellipse class="bn" cx="48.062" cy="47.561" rx="48.062" ry="47.561" transform="translate(4.505 2.529)"/><ellipse class="bo" cx="48.038" cy="47.537" rx="48.038" ry="47.537" transform="translate(4.615 2.591)"/><ellipse class="bp" cx="48.014" cy="47.514" rx="48.014" ry="47.514" transform="translate(4.725 2.653)"/><ellipse class="bq" cx="47.99" cy="47.49" rx="47.99" ry="47.49" transform="translate(4.835 2.714)"/><ellipse class="br" cx="47.966" cy="47.466" rx="47.966" ry="47.466" transform="translate(4.945 2.776)"/><ellipse class="bs" cx="47.942" cy="47.443" rx="47.942" ry="47.443" transform="translate(5.054 2.838)"/><ellipse class="bt" cx="47.918" cy="47.419" rx="47.918" ry="47.419" transform="translate(5.164 2.899)"/><ellipse class="bu" cx="47.895" cy="47.395" rx="47.895" ry="47.395" transform="translate(5.274 2.961)"/><ellipse class="bv" cx="47.871" cy="47.372" rx="47.871" ry="47.372" transform="translate(5.384 3.023)"/><ellipse class="bw" cx="47.847" cy="47.348" rx="47.847" ry="47.348" transform="translate(5.494 3.084)"/><ellipse class="bx" cx="47.823" cy="47.325" rx="47.823" ry="47.325" transform="translate(5.604 3.146)"/><ellipse class="by" cx="47.799" cy="47.301" rx="47.799" ry="47.301" transform="translate(5.714 3.208)"/><ellipse class="bz" cx="47.775" cy="47.277" rx="47.775" ry="47.277" transform="translate(5.824 3.27)"/><ellipse class="ca" cx="47.751" cy="47.254" rx="47.751" ry="47.254" transform="translate(5.933 3.331)"/><ellipse class="cb" cx="47.727" cy="47.23" rx="47.727" ry="47.23" transform="translate(6.043 3.393)"/><ellipse class="cc" cx="47.704" cy="47.206" rx="47.704" ry="47.206" transform="translate(6.153 3.455)"/><ellipse class="cd" cx="47.68" cy="47.183" rx="47.68" ry="47.183" transform="translate(6.263 3.516)"/><ellipse class="ce" cx="47.656" cy="47.159" rx="47.656" ry="47.159" transform="translate(6.373 3.578)"/><ellipse class="cf" cx="47.632" cy="47.136" rx="47.632" ry="47.136" transform="translate(6.483 3.64)"/><ellipse class="cg" cx="47.608" cy="47.112" rx="47.608" ry="47.112" transform="translate(6.593 3.701)"/><ellipse class="ch" cx="47.584" cy="47.088" rx="47.584" ry="47.088" transform="translate(6.703 3.763)"/><ellipse class="ci" cx="47.56" cy="47.065" rx="47.56" ry="47.065" transform="translate(6.813 3.825)"/><ellipse class="cj" cx="47.536" cy="47.041" rx="47.536" ry="47.041" transform="translate(6.922 3.886)"/><ellipse class="ck" cx="47.513" cy="47.017" rx="47.513" ry="47.017" transform="translate(7.032 3.948)"/><ellipse class="cl" cx="47.489" cy="46.994" rx="47.489" ry="46.994" transform="translate(7.142 4.01)"/><ellipse class="cm" cx="47.465" cy="46.97" rx="47.465" ry="46.97" transform="translate(7.252 4.072)"/><ellipse class="cn" cx="47.441" cy="46.947" rx="47.441" ry="46.947" transform="translate(7.362 4.133)"/><ellipse class="co" cx="47.417" cy="46.923" rx="47.417" ry="46.923" transform="translate(7.472 4.195)"/><ellipse class="cp" cx="47.393" cy="46.899" rx="47.393" ry="46.899" transform="translate(7.582 4.257)"/><ellipse class="cq" cx="47.369" cy="46.876" rx="47.369" ry="46.876" transform="translate(7.692 4.318)"/><ellipse class="cr" cx="47.346" cy="46.852" rx="47.346" ry="46.852" transform="translate(7.801 4.38)"/><ellipse class="cs" cx="47.322" cy="46.828" rx="47.322" ry="46.828" transform="translate(7.911 4.442)"/><ellipse class="ct" cx="47.298" cy="46.805" rx="47.298" ry="46.805" transform="translate(8.021 4.503)"/><ellipse class="cu" cx="47.274" cy="46.781" rx="47.274" ry="46.781" transform="translate(8.131 4.565)"/><ellipse class="cv" cx="47.25" cy="46.758" rx="47.25" ry="46.758" transform="translate(8.241 4.627)"/><ellipse class="cw" cx="47.226" cy="46.734" rx="47.226" ry="46.734" transform="translate(8.351 4.688)"/><ellipse class="cx" cx="47.202" cy="46.71" rx="47.202" ry="46.71" transform="translate(8.461 4.75)"/><ellipse class="cy" cx="47.178" cy="46.687" rx="47.178" ry="46.687" transform="translate(8.571 4.812)"/><ellipse class="cz" cx="47.154" cy="46.663" rx="47.154" ry="46.663" transform="translate(8.681 4.873)"/><ellipse class="da" cx="47.131" cy="46.64" rx="47.131" ry="46.64" transform="translate(8.79 4.935)"/><ellipse class="db" cx="47.107" cy="46.616" rx="47.107" ry="46.616" transform="translate(8.9 4.997)"/><ellipse class="dc" cx="47.083" cy="46.592" rx="47.083" ry="46.592" transform="translate(9.01 5.058)"/><ellipse class="dd" cx="47.059" cy="46.569" rx="47.059" ry="46.569" transform="translate(9.12 5.12)"/><ellipse class="de" cx="47.035" cy="46.545" rx="47.035" ry="46.545" transform="translate(9.23 5.182)"/><ellipse class="df" cx="47.011" cy="46.521" rx="47.011" ry="46.521" transform="translate(9.34 5.244)"/><ellipse class="dg" cx="46.987" cy="46.498" rx="46.987" ry="46.498" transform="translate(9.45 5.305)"/><ellipse class="dh" cx="46.964" cy="46.474" rx="46.964" ry="46.474" transform="translate(9.56 5.367)"/><ellipse class="di" cx="46.94" cy="46.45" rx="46.94" ry="46.45" transform="translate(9.669 5.429)"/><ellipse class="dj" cx="46.916" cy="46.427" rx="46.916" ry="46.427" transform="translate(9.779 5.49)"/><ellipse class="dk" cx="46.892" cy="46.403" rx="46.892" ry="46.403" transform="translate(9.889 5.552)"/><ellipse class="dl" cx="46.868" cy="46.38" rx="46.868" ry="46.38" transform="translate(9.999 5.614)"/><ellipse class="dm" cx="46.844" cy="46.356" rx="46.844" ry="46.356" transform="translate(10.109 5.675)"/><ellipse class="dn" cx="46.82" cy="46.332" rx="46.82" ry="46.332" transform="translate(10.219 5.737)"/><ellipse class="do" cx="46.796" cy="46.309" rx="46.796" ry="46.309" transform="translate(10.329 5.799)"/><ellipse class="dp" cx="46.773" cy="46.285" rx="46.773" ry="46.285" transform="translate(10.439 5.861)"/><ellipse class="dq" cx="46.749" cy="46.262" rx="46.749" ry="46.262" transform="translate(10.549 5.922)"/><ellipse class="dr" cx="46.725" cy="46.238" rx="46.725" ry="46.238" transform="translate(10.658 5.984)"/><ellipse class="ds" cx="46.701" cy="46.214" rx="46.701" ry="46.214" transform="translate(10.768 6.045)"/><ellipse class="dt" cx="46.677" cy="46.191" rx="46.677" ry="46.191" transform="translate(10.878 6.107)"/><ellipse class="du" cx="46.653" cy="46.167" rx="46.653" ry="46.167" transform="translate(10.988 6.169)"/><ellipse class="dv" cx="46.629" cy="46.143" rx="46.629" ry="46.143" transform="translate(11.098 6.231)"/><ellipse class="dw" cx="46.605" cy="46.12" rx="46.605" ry="46.12" transform="translate(11.208 6.292)"/><ellipse class="dx" cx="46.582" cy="46.096" rx="46.582" ry="46.096" transform="translate(11.318 6.354)"/><ellipse class="dy" cx="46.558" cy="46.073" rx="46.558" ry="46.073" transform="translate(11.428 6.416)"/><ellipse class="dz" cx="46.534" cy="46.049" rx="46.534" ry="46.049" transform="translate(11.538 6.477)"/><ellipse class="ea" cx="46.51" cy="46.025" rx="46.51" ry="46.025" transform="translate(11.647 6.539)"/><ellipse class="eb" cx="46.486" cy="46.002" rx="46.486" ry="46.002" transform="translate(11.757 6.601)"/><ellipse class="ec" cx="46.462" cy="45.978" rx="46.462" ry="45.978" transform="translate(11.867 6.662)"/><ellipse class="ed" cx="46.438" cy="45.955" rx="46.438" ry="45.955" transform="translate(11.977 6.724)"/><ellipse class="ee" cx="46.414" cy="45.931" rx="46.414" ry="45.931" transform="translate(12.087 6.786)"/><ellipse class="ef" cx="46.391" cy="45.907" rx="46.391" ry="45.907" transform="translate(12.197 6.847)"/><ellipse class="eg" cx="46.367" cy="45.884" rx="46.367" ry="45.884" transform="translate(12.307 6.909)"/><ellipse class="eh" cx="46.343" cy="45.86" rx="46.343" ry="45.86" transform="translate(12.417 6.971)"/><ellipse class="ei" cx="46.319" cy="45.836" rx="46.319" ry="45.836" transform="translate(12.526 7.033)"/><ellipse class="ej" cx="46.295" cy="45.813" rx="46.295" ry="45.813" transform="translate(12.636 7.094)"/><ellipse class="ek" cx="46.271" cy="45.789" rx="46.271" ry="45.789" transform="translate(12.746 7.156)"/><ellipse class="el" cx="46.247" cy="45.765" rx="46.247" ry="45.765" transform="translate(12.856 7.218)"/><ellipse class="em" cx="46.223" cy="45.742" rx="46.223" ry="45.742" transform="translate(12.966 7.279)"/><ellipse class="en" cx="46.2" cy="45.718" rx="46.2" ry="45.718" transform="translate(13.076 7.341)"/><ellipse class="eo" cx="46.176" cy="45.695" rx="46.176" ry="45.695" transform="translate(13.186 7.403)"/><ellipse class="ep" cx="46.152" cy="45.671" rx="46.152" ry="45.671" transform="translate(13.295 7.464)"/><ellipse class="eq" cx="46.128" cy="45.647" rx="46.128" ry="45.647" transform="translate(13.405 7.526)"/><ellipse class="er" cx="46.104" cy="45.624" rx="46.104" ry="45.624" transform="translate(13.515 7.588)"/><ellipse class="es" cx="46.08" cy="45.6" rx="46.08" ry="45.6" transform="translate(13.625 7.649)"/><ellipse class="et" cx="46.056" cy="45.576" rx="46.056" ry="45.576" transform="translate(13.735 7.711)"/><ellipse class="eu" cx="46.033" cy="45.553" rx="46.033" ry="45.553" transform="translate(13.845 7.773)"/><ellipse class="ev" cx="46.009" cy="45.529" rx="46.009" ry="45.529" transform="translate(13.955 7.835)"/><ellipse class="ew" cx="45.985" cy="45.506" rx="45.985" ry="45.506" transform="translate(14.065 7.896)"/><ellipse class="ex" cx="45.961" cy="45.482" rx="45.961" ry="45.482" transform="translate(14.175 7.958)"/><ellipse class="ey" cx="45.937" cy="45.458" rx="45.937" ry="45.458" transform="translate(14.284 8.02)"/><ellipse class="ez" cx="45.913" cy="45.435" rx="45.913" ry="45.435" transform="translate(14.394 8.081)"/><ellipse class="fa" cx="45.889" cy="45.411" rx="45.889" ry="45.411" transform="translate(14.504 8.143)"/><ellipse class="fb" cx="45.865" cy="45.388" rx="45.865" ry="45.388" transform="translate(14.614 8.205)"/><ellipse class="r" cx="45.842" cy="45.364" rx="45.842" ry="45.364" transform="translate(14.724 8.266)"/></g></g></g></svg>