<svg xmlns="http://www.w3.org/2000/svg" xmlns:xlink="http://www.w3.org/1999/xlink" width="167.079" height="155.635" viewBox="0 0 167.079 155.635"><defs><style>.a,.h{fill:none;}.b,.e{fill:#e89f1f;}.c{fill:#fcba33;}.d{clip-path:url(#a);}.e{opacity:0.3;mix-blend-mode:screen;isolation:isolate;}.f{clip-path:url(#b);}.g{fill:#caaa75;}.h,.m,.n{stroke:#00325b;stroke-miterlimit:10;}.h{stroke-width:1.433px;}.i,.m,.n{fill:#00325b;}.i{font-size:4px;font-family:Montserrat-SemiBold, Montserrat;font-weight:600;letter-spacing:0.06em;}.j{letter-spacing:0.1em;}.k,.n{letter-spacing:0.04em;}.l{letter-spacing:0.08em;}.m,.n{stroke-width:0.207px;font-size:1px;font-family:Montserrat-Regular, Montserrat;}.m{letter-spacing:0.02em;}.o{fill:#fefeff;}</style><clipPath id="a"><rect class="a" width="120.216" height="70.312" rx="14.181" transform="matrix(0.911, 0.413, -0.413, 0.911, 29.023, 0)"/></clipPath><clipPath id="b"><rect class="a" width="22.982" height="15.807" rx="5.683" transform="translate(6.529 0) rotate(24.395)"/></clipPath></defs><g transform="matrix(0.899, -0.438, 0.438, 0.899, -612.085, 234.714)"><g transform="translate(624.299 105.817)"><path class="b" d="M728.785,220.054l-94.227-42.7a8.382,8.382,0,0,1-4.175-11.094l22.1-48.774a8.382,8.382,0,0,1,11.094-4.175l94.227,42.7a8.381,8.381,0,0,1,4.175,11.094l-22.1,48.774A8.382,8.382,0,0,1,728.785,220.054Z" transform="translate(-626.481 -108.574)"/><rect class="c" width="120.216" height="70.312" rx="14.181" transform="matrix(0.911, 0.413, -0.413, 0.911, 29.023, 0)"/><g transform="translate(0 0)"><g class="d"><path class="e" d="M596.266,194.255,625.9,207.684l107.21-51.315L703.476,142.94Z" transform="translate(-612.836 -120.998)"/><path class="e" d="M548.864,129.156,578.5,142.585,685.706,91.27,656.074,77.841Z" transform="translate(-593.451 -94.377)"/><path class="e" d="M653.862,220.357l12.753,5.779,107.21-51.315-12.753-5.779Z" transform="translate(-636.389 -131.672)"/><path class="e" d="M726.212,250.116l12.753,5.779,107.21-51.315L833.422,198.8Z" transform="translate(-665.975 -143.841)"/></g></g></g><g transform="translate(644.651 127.354)"><g class="f" transform="translate(0 0)"><rect class="g" width="22.982" height="15.807" rx="5.683" transform="translate(6.529 0) rotate(24.395)"/><g transform="translate(1.487 4.002)"><path class="h" d="M665.864,149.026l4.879,2.213a3.3,3.3,0,0,1,1.644,4.372h0l16.254,7.371" transform="translate(-663.135 -149.026)"/><path class="h" d="M661.247,159.205l4.88,2.213a3.3,3.3,0,0,0,4.372-1.644h0l8.366,3.794" transform="translate(-661.247 -153.189)"/></g><g transform="translate(2.852 7.01)"><path class="h" d="M686.593,160.936l-4.88-2.213a3.3,3.3,0,0,0-4.372,1.644h0l-13.785-6.252" transform="translate(-663.556 -154.115)"/><path class="h" d="M687.614,168.653l-4.88-2.213a3.3,3.3,0,0,1-1.644-4.372h0l-8.366-3.794" transform="translate(-667.305 -155.816)"/></g></g></g><text class="i" transform="translate(640.905 149.978) rotate(24.38)"><tspan x="0" y="0">1</tspan><tspan class="j" y="0">234</tspan><tspan class="k" y="0"> </tspan><tspan class="j" y="0" xml:space="preserve"> 4567</tspan><tspan class="k" y="0" xml:space="preserve">  </tspan><tspan class="l" y="0">7899</tspan><tspan class="k" y="0" xml:space="preserve">  </tspan><tspan y="0">1234</tspan></text><text class="m" transform="translate(636.784 159.071) rotate(24.38)"><tspan x="0" y="0" xml:space="preserve">NAME    SURNAME</tspan></text><text class="n" transform="translate(655.878 116.939) rotate(24.38)"><tspan x="0" y="0">CREDIT CARD</tspan></text><g transform="translate(734.189 152.297)"><g transform="translate(0 0)"><path class="o" d="M815.356,189.594a5.1,5.1,0,0,1,2.188-2.369,1.294,1.294,0,0,0-.041-2.3,5.342,5.342,0,0,0-.753-.278,5.139,5.139,0,0,0-3.514,9.627l.026.011a1.293,1.293,0,0,0,1.756-1.485A5.1,5.1,0,0,1,815.356,189.594Z" transform="translate(-810.217 -184.455)"/><path class="o" d="M830.662,190.473a5.322,5.322,0,0,0-.7-.382,1.294,1.294,0,0,0-1.756,1.485,5.123,5.123,0,0,1-2.526,5.575,1.293,1.293,0,0,0,.04,2.3l.026.012a5.139,5.139,0,0,0,4.921-8.99Z" transform="translate(-816.26 -186.715)"/><g transform="translate(5.573 3.136)"><path class="o" d="M824.783,194.289a5.094,5.094,0,0,0,.447-2.442,2.237,2.237,0,0,0-3.586-1.625,5.128,5.128,0,0,0-1.988,4.388,2.237,2.237,0,0,0,3.586,1.625A5.1,5.1,0,0,0,824.783,194.289Z" transform="translate(-819.646 -189.761)"/></g></g></g></g></svg>