<svg xmlns="http://www.w3.org/2000/svg" xmlns:xlink="http://www.w3.org/1999/xlink" width="170.51" height="89.32" viewBox="0 0 170.51 89.32"><defs><style>.a{fill:url(#a);}.b{fill:#41b8e1;}.c{fill:#fff;}.d{fill:#eaeaea;}.e{fill:#ffb792;}.f{fill:#ff9f23;}.g{fill:#4a2c6a;}.h{fill:#6139bc;}.i{fill:#4a2c76;}.j{fill:#f3b395;}.k{fill:#ff4a1e;}.l{fill:#ff7042;}.m{fill:#744da5;}.n{fill:#56309e;}.o{fill:#4f326e;}.p{fill:#c8d1ce;}.q{fill:#f2ac8c;}.r{fill:#ffdd71;}.s{fill:#5b36a1;}.t{fill:#f3b396;}.u{fill:#533771;}</style><linearGradient id="a" y1="0.5" x2="1" y2="0.5" gradientUnits="objectBoundingBox"><stop offset="0" stop-color="#fed747"/><stop offset="1" stop-color="#f94e43"/></linearGradient></defs><g transform="translate(-1989.491 -1179.771)"><g transform="translate(1989.491 1179.771)"><g transform="translate(0 9.075)"><g transform="translate(0 9.938)"><path class="a" d="M2144.486,1259.579l-58.151,48.648-30.6-26.064c-5.726,5.043-14.57,12.826-23.468,20.636-6.08,5.338-11,9.651-14.992,13.141l-27.789-.032c7.706-6.561,38.734-33.827,59.637-52.253l6.392-5.634,30.928,26.348,45.4-37.978Z" transform="translate(-1989.491 -1246.391)"/></g><path class="a" d="M2462.495,1215.525l27.695,27.779,7.823-31.734Z" transform="translate(-2327.503 -1211.57)"/></g><g transform="translate(33.389 49.241)"><g transform="translate(5.109)"><path class="b" d="M2130.089,1402.343a51.385,51.385,0,0,0-.593-6.3c-.425-2.46-.809-3.875-.813-3.89-.056-.216-.866-1.092-2.665-1.065s-1.629,1.175-1.629,1.175h0a.373.373,0,0,0,.013.1,55.125,55.125,0,0,1,1.6,13.784c0,.108-.013.3-.005.421,0,0,4.171.108,4.172,0A20.783,20.783,0,0,0,2130.089,1402.343Z" transform="translate(-2124.385 -1380.021)"/><path class="b" d="M2131.779,1406.112c0,.108-.058.194-.128.194h0c-.069,0-.125-.088-.126-.194h-3.574c0,.108-.058.194-.128.194h0c-.071,0-.126-.091-.126-.2a54.024,54.024,0,0,0-.3-6.106,47.974,47.974,0,0,0-1.366-7.634.392.392,0,0,1-.013-.1s-.17-1.148,1.629-1.175,2.61.848,2.666,1.065c0,.011.22.813.508,2.254.1.477.2,1.025.3,1.636a51.337,51.337,0,0,1,.593,6.3A16.243,16.243,0,0,1,2131.779,1406.112Z" transform="translate(-2125.55 -1380.021)"/><path class="c" d="M2130.975,1441.546h14.013s-.326-1.321-8.442-1.124C2130.8,1440.561,2130.975,1441.546,2130.975,1441.546Z" transform="translate(-2129.094 -1415.261)"/><g transform="translate(0.74 26.49)"><path class="d" d="M2126.979,1458.716a53.242,53.242,0,0,0,1.2-13.336c0-.127.229-.242.355-.246s.688-.038.753.071a36.412,36.412,0,0,1-2.009,13.511Z" transform="translate(-2126.979 -1445.127)"/></g><g transform="translate(11.449 26.49)"><path class="d" d="M2166.877,1458.716a53.222,53.222,0,0,1-1.205-13.336c0-.127-.229-.242-.355-.246s-.688-.038-.753.071a36.418,36.418,0,0,0,2.009,13.511Z" transform="translate(-2164.501 -1445.127)"/></g><g transform="translate(14.042 26.49)"><path class="b" d="M2175.962,1458.716a53.213,53.213,0,0,1-1.2-13.336c0-.127-.23-.242-.355-.246s-.688-.038-.753.071a36.415,36.415,0,0,0,2.009,13.511Z" transform="translate(-2173.586 -1445.127)"/></g><g transform="translate(3.351 26.49)"><path class="b" d="M2136.126,1458.716a53.242,53.242,0,0,0,1.2-13.336c0-.127.229-.242.355-.246s.688-.038.753.071a36.409,36.409,0,0,1-2.009,13.511Z" transform="translate(-2136.126 -1445.127)"/></g><rect class="d" width="14.588" height="0.763" rx="0.381" transform="translate(1.602 25.944)"/><g transform="translate(2.732)"><path class="e" d="M2176.366,1399.016l4.658-1.009.274.669s-5.139,3.059-5.621,2.909S2176.366,1399.016,2176.366,1399.016Z" transform="translate(-2163.688 -1384.965)"/><path class="e" d="M2163.276,1466.063a.414.414,0,0,0-.074.443v0a2.748,2.748,0,0,0,.869.954c.053.042.1.081.14.116l.031.028.024.022c.382.352.238.433.925,1.147.783.815,1.322.829,1.475.755.13-.063-.134-.5-.426-.981l-.042-.071-.116-.195c-.342-.584-.254-.858-.173-1.728.066-.707,1.1-3.948,1.1-3.948l-1.5-.258s-.452,2.581-.95,2.978c-.266.212-.564.214-.82.371l-.053.034A1.963,1.963,0,0,0,2163.276,1466.063Z" transform="translate(-2154.832 -1430.945)"/><path class="f" d="M2163.276,1474.451a.414.414,0,0,0-.074.443v0a3.185,3.185,0,0,0,.871.951c.052.043.1.083.138.119l.031.028.024.022c.382.352.238.433.925,1.147.783.814,1.322.829,1.475.755.13-.063-.134-.5-.426-.981a3.336,3.336,0,0,1-1.4-1.028c-.471-.6-.786-1.375-1.107-1.822l-.053.034A1.963,1.963,0,0,0,2163.276,1474.451Z" transform="translate(-2154.832 -1439.332)"/><path class="e" d="M2202.921,1463.983c.093.463.752.386,1.49.206s.562.034,1.612-.082,1.367-.507,1.4-.664c.029-.138-.49-.187-1.046-.251l-.21-.025a4.538,4.538,0,0,1-1.658-.817,6.666,6.666,0,0,1-1.347-1.6l-1.439.114s.755,1.147,1.048,1.646a1.739,1.739,0,0,1,.141.981A1.839,1.839,0,0,0,2202.921,1463.983Z" transform="translate(-2182.382 -1429.802)"/><path class="f" d="M2207.36,1470.3c.738-.18.562.034,1.612-.082s1.368-.507,1.4-.663c.029-.138-.49-.187-1.046-.251l-.005.011a2.959,2.959,0,0,1-1.5.467c-.712.017-1.467-.187-1.958-.179a1.841,1.841,0,0,0,.011.493C2205.963,1470.56,2206.623,1470.482,2207.36,1470.3Z" transform="translate(-2185.331 -1435.915)"/><path class="e" d="M2194.7,1395.511s.343-.84.72-.875,1.577-.223,1.663-.051a1.187,1.187,0,0,1-.257,1.012,9.171,9.171,0,0,1-1.852.583Z" transform="translate(-2177.367 -1382.469)"/><path class="g" d="M2174.236,1434.054l-3.1,8.348a2.846,2.846,0,0,1-.934-.086,4.013,4.013,0,0,1-.9-.439s.769-8.016,2.18-9.682S2174.236,1434.054,2174.236,1434.054Z" transform="translate(-2159.212 -1409.076)"/><path class="h" d="M2139.312,1421.833s8.913-3.014,10.9-2.373,7.956,12.516,7.956,12.516a1.152,1.152,0,0,1-.5.317,4.751,4.751,0,0,1-1.17.12s-5.386-4.617-6.028-5.964-.9-2.629-1.539-2.5-8.272,3.142-10,1.347a5,5,0,0,1-1.279-4.128Z" transform="translate(-2136.557 -1400.232)"/><path class="i" d="M2142.889,1352.658a2.162,2.162,0,0,0-1.17-.224.548.548,0,0,1,.247-.117,1.818,1.818,0,0,0-.647.169c-2.785-1.073-3.224,3.028-3.165,3.981a2.726,2.726,0,0,1-1.325,2.9c-2.736,1.681-.428,4.617-.428,4.617.022.013,1.273,2.135,1.273,2.135-.071-.77,3.482-4.834,5.336-6.051a5.358,5.358,0,0,0,.624-1.93,5.072,5.072,0,0,1-.379,1.747C2144.824,1358.445,2143.911,1353.239,2142.889,1352.658Z" transform="translate(-2135.053 -1352.308)"/><path class="e" d="M2154.883,1372.856a2.566,2.566,0,0,1-1.575.288,2.044,2.044,0,0,1-1.049-1.006c.271-.054.349-.426.343-2.026l.123.024,2.06.408s-.047.648-.048,1.259C2154.735,1372.316,2154.766,1372.8,2154.883,1372.856Z" transform="translate(-2147.035 -1365.031)"/><path class="j" d="M2155.951,1370.6s-.047.648-.048,1.259a2.444,2.444,0,0,1-2.011-1.667Z" transform="translate(-2148.202 -1365.091)"/><path class="i" d="M2151.227,1358.815a6.053,6.053,0,0,1-.749-1.77,2.079,2.079,0,0,1,2.363-2.431,2.948,2.948,0,0,1,1.223.462c.471.318,1.151,1.005.391,2.89l-.2.637Z" transform="translate(-2145.75 -1353.934)"/><path class="e" d="M2155.548,1362.13s-2.727.045-2.729-1.654-.355-2.837,1.386-2.937,2.08.547,2.219,1.114S2156.257,1362.074,2155.548,1362.13Z" transform="translate(-2147.414 -1356.039)"/><path class="i" d="M2153.251,1356.555s-.747,1.992-1.893,2.287a2.257,2.257,0,0,1-1.643-.012,3.245,3.245,0,0,0,1.061-1.917S2152.688,1355.607,2153.251,1356.555Z" transform="translate(-2145.219 -1355.097)"/><path class="i" d="M2161.455,1357.173a2.406,2.406,0,0,1,.693.877c.136.433.2,1.323.457,1.293,0,0,.562-1.354-.07-2.121C2161.865,1356.41,2161.455,1357.173,2161.455,1357.173Z" transform="translate(-2153.607 -1355.553)"/><path class="h" d="M2137.248,1385.263c-.269-1.128.646-3.316,1.6-5.128a14.168,14.168,0,0,1,1.847-2.926c2.285,1.357,2.492.229,2.492.229h0s2.076.275,2.664,1.287c.729,1.255,1.517,4.764,2.3,5.428a1.474,1.474,0,0,0,.059,1.019c.027.1.057.191.09.278a5.392,5.392,0,0,0,.393.807c-.4.242-1.166.7-1.731.371-.863-.5-1.536-2.042-1.915-2.654l0-.007c-.823,4.661.3,5.722-.271,6.214-.6.519-1.454-.247-3.334.568a18,18,0,0,1-4.1,1.444c-.6.071-1.056-.034-1.2-.442C2135.708,1390.564,2137.76,1387.413,2137.248,1385.263Z" transform="translate(-2135.472 -1370.102)"/><path class="d" d="M2160.333,1369.7s.051.216.588.182c0,0,.45-.028.437-.265A1.45,1.45,0,0,0,2160.333,1369.7Z" transform="translate(-2152.805 -1364.636)"/><path class="g" d="M2136.136,1404.345c.147.408.6.513,1.2.442.8-.348,4.244-1.683,4.205-2.587-.057-1.339-.663-1.382-.235-3.035.343-1.327-2.841-3.8-3.349-4.332-.955,1.812-.981,1.9-.712,3.025C2137.76,1400.008,2135.708,1403.159,2136.136,1404.345Z" transform="translate(-2135.472 -1382.697)"/><path class="h" d="M2134.231,1386.922a5.047,5.047,0,0,1,1.667-1.54c-.1-.249,2.571-3.518,2.571-4.025s.711-4.146.711-4.146-2.222.137-2.992,1.21C2135.226,1379.763,2133.228,1384.928,2134.231,1386.922Z" transform="translate(-2133.957 -1370.104)"/><path class="e" d="M2136.514,1405.84l4.441,1.159-.417.748s-5.4-.038-5.69-.367S2136.514,1405.84,2136.514,1405.84Z" transform="translate(-2134.573 -1390.562)"/><path class="g" d="M2167.5,1400.916c.379.612,1.052,2.149,1.915,2.654.566.33,1.334-.129,1.731-.371a5.375,5.375,0,0,1-.393-.807c-.317.073-.7.166-.955.241C2169.318,1402.78,2167.5,1400.916,2167.5,1400.916Z" transform="translate(-2157.93 -1387.044)"/><path class="e" d="M2155.275,1409.108a6.824,6.824,0,0,1,1.727-.3c.332.093,1.47.846,1.31,1.051s-1.163-.122-1.624-.06-.818.29-1.15.24a3.838,3.838,0,0,1-.679-.18Z" transform="translate(-2148.893 -1392.671)"/><path class="e" d="M2156.319,1408.482a5.241,5.241,0,0,0,.876-.55.054.054,0,0,1,.084.01c.052.082.1.24-.138.4A1.288,1.288,0,0,1,2156.319,1408.482Z" transform="translate(-2149.937 -1392.046)"/></g><g transform="translate(9.052 11.312)"><path class="k" d="M2162.609,1415.476H2156.1a.519.519,0,0,1,.519-.519h5.987Z" transform="translate(-2156.103 -1408.39)"/><path class="k" d="M2172.63,1391.946h10.059l-2.413,7.086h-10.124Z" transform="translate(-2166.143 -1391.946)"/><path class="l" d="M2183.209,1391.946l-2.413,7.086h-10.124l2.478-7.086Z" transform="translate(-2166.514 -1391.946)"/><path class="m" d="M2193.111,1402.9a.654.654,0,0,1-.6.49.377.377,0,0,1-.377-.49.653.653,0,0,1,.6-.49A.378.378,0,0,1,2193.111,1402.9Z" transform="translate(-2181.839 -1399.426)"/><path class="k" d="M2191.771,1391.946l-2.413,7.086h-6.7c4.441-1.516,5.624-6.138,5.822-7.086Z" transform="translate(-2175.076 -1391.946)"/></g></g><g transform="translate(0 18.397)"><g transform="translate(1.467 1.094)"><path class="d" d="M2111.811,1441.191a.26.26,0,0,0,.258-.211l1.264-7.161,1.817-10.3.508-2.88-1.294-.037-.225,1.672-1.577,11.749-.935,6.964A.183.183,0,0,0,2111.811,1441.191Z" transform="translate(-2111.626 -1420.602)"/><path class="b" d="M2120.432,1422.274a1.856,1.856,0,0,1,1.01,1.245l.508-2.88-1.294-.037Z" transform="translate(-2117.919 -1420.602)"/></g><g transform="translate(30.001 1.094)"><path class="d" d="M2215.45,1441.191a.26.26,0,0,1-.258-.211l-1.264-7.161-1.817-10.3-.508-2.88,1.294-.037.224,1.672,1.577,11.749.935,6.964A.183.183,0,0,1,2215.45,1441.191Z" transform="translate(-2211.604 -1420.602)"/><path class="b" d="M2213.123,1422.274a1.857,1.857,0,0,0-1.01,1.245l-.508-2.88,1.294-.037Z" transform="translate(-2211.604 -1420.602)"/></g><path class="d" d="M1.131,0H33.594a1.131,1.131,0,0,1,1.131,1.131v0a1.131,1.131,0,0,1-1.131,1.131H1.131A1.131,1.131,0,0,1,0,1.131v0A1.131,1.131,0,0,1,1.131,0Z" transform="translate(34.725 2.261) rotate(-180)"/></g></g><g transform="translate(111.207 45.674)"><path class="e" d="M2396.12,1412.547s-.86,1.067-.591,1.212.979.418,1.146.246a4.971,4.971,0,0,0,.22-1.428Z" transform="translate(-2390.819 -1391.789)"/><path class="e" d="M2395.673,1412.609a1.266,1.266,0,0,0-.49.3c-.138.183-.444.462-.369.539s.514-.264.514-.264Z" transform="translate(-2390.337 -1391.833)"/><path class="m" d="M2400.941,1362.65s-.969,9.022-1.055,9.279c-.019.056-.095.342-.2.752-.153.587-.368,1.43-.573,2.232-.309,1.212-.592,2.329-.592,2.329l-.841-.277a51.771,51.771,0,0,1,.173-5.394c.217-1.01.909-7.213,1.259-8.048S2400.941,1362.65,2400.941,1362.65Z" transform="translate(-2392.39 -1356.132)"/><g transform="translate(0 21.614)"><rect class="k" width="4.954" height="8.051" rx="2.477" transform="matrix(0.254, -0.967, 0.967, 0.254, 0, 4.824)"/><path class="l" d="M2383.225,1417.011l-.608,2.317a1.3,1.3,0,0,0,.315,1.222,1.276,1.276,0,0,0,.348.261h0a1.255,1.255,0,0,0,.263.1l5.276,1.384a1.3,1.3,0,0,0,1.585-.926l.608-2.317a1.3,1.3,0,0,0-.926-1.585l-1.817-.476.13-.494a.429.429,0,0,0-.305-.523l-.2-.052-1.1-.29-.275-.072a.428.428,0,0,0-.522.305l-.13.494-1.052-.276c-.042-.011-.083-.019-.125-.026h0a1.3,1.3,0,0,0-1.13.374h0A1.288,1.288,0,0,0,2383.225,1417.011Zm4.784-.087-1.888-.495.129-.494a.161.161,0,0,1,.2-.114l.474.125.87.228.235.062a.161.161,0,0,1,.114.2Z" transform="translate(-2381.599 -1415.547)"/></g><path class="e" d="M2396.794,1416.034s.235-.4.146-.533-.4.41-.4.41.216-.47.136-.548-.412.463-.412.463.206-.457.134-.472-.318.384-.318.384.128-.342.011-.326-.369.329-.369.329Z" transform="translate(-2390.99 -1393.794)"/><path class="n" d="M2402.168,1387.254c-.153.587-.368,1.43-.572,2.232a8.644,8.644,0,0,1-.405-1.769,21.554,21.554,0,0,1,.4-4.674Z" transform="translate(-2394.874 -1370.704)"/><path class="e" d="M2442.178,1411.247a7.468,7.468,0,0,1,1.053,1,5.124,5.124,0,0,1,.392,1.4c-.015.284-.718-.649-.924-.725s.216.383.168.482-.487-.223-.655-.328-.285-.817-.535-1.2S2442.178,1411.247,2442.178,1411.247Z" transform="translate(-2423.797 -1390.86)"/><path class="o" d="M2400.478,1484.688h4.672c.335-.227-.09-2.447-.09-2.447s-1.275-.484-1.5.5-1.624,1.3-2.367,1.416A.8.8,0,0,0,2400.478,1484.688Z" transform="translate(-2394.393 -1441.508)"/><path class="o" d="M2424.756,1484.688h4.672c.335-.227-.09-2.447-.09-2.447s-1.275-.484-1.5.5-1.624,1.3-2.367,1.416A.8.8,0,0,0,2424.756,1484.688Z" transform="translate(-2411.742 -1441.508)"/><path class="d" d="M2404.882,1410.868s.21,2.62.457,5.77c.335,4.278,1.24,14.885,1.24,14.885a2.279,2.279,0,0,0,1.907.229,41.537,41.537,0,0,0,1.453-7.836c.005-.069.01-.138.016-.206.311-4.252.795-13.2.795-13.2Z" transform="translate(-2397.54 -1390.329)"/><path class="p" d="M2404.631,1408.6s.281,3.525.528,6.675l4.6,7.279c.005-.068.01-.138.016-.206.311-4.252.795-13.2.795-13.2Z" transform="translate(-2397.36 -1388.972)"/><path class="d" d="M2409.329,1404.587s3.336,8.3,4.4,11.453c.76,2.242,2.9,10.109,2.9,10.109a2.153,2.153,0,0,0,1.715-.265s.8-8.037-.813-10.3c-.854-1.2-.212-12.5-3.676-12.595S2409.329,1404.587,2409.329,1404.587Z" transform="translate(-2400.718 -1384.954)"/><path class="m" d="M2410.951,1376.234c-1.391.785-7.351.767-7.627.151-.617-1.375-.771-8.366-.48-10.51,0,0,.151-3.3.48-3.15,2.2-1.011,5.764-.093,5.764-.093.961.283.879,2.479,1.147,5.561.034.4.073.811.115,1.239.19,1.9.465,4.091.885,6.4C2411.263,1375.983,2411.157,1376.117,2410.951,1376.234Z" transform="translate(-2395.982 -1355.846)"/><path class="e" d="M2413.357,1356.206c-.037.589-.805.522-1.73.311s-.589-.755-.589-.755.014-.419.073-.921c.021-.182.048-.377.083-.565.016-.092.034-.183.055-.27.121-.519,1.846-.018,1.834.121C2413.048,1354.5,2413.321,1355.743,2413.357,1356.206Z" transform="translate(-2401.896 -1349.79)"/><path class="f" d="M2412.188,1363.856l-.073-.814,1.023.193-.394.727Z" transform="translate(-2402.708 -1356.412)"/><path class="n" d="M2409.731,1359.391l-.612.93a1.353,1.353,0,0,0,.531.987l.835-.778A1.5,1.5,0,0,1,2409.731,1359.391Z" transform="translate(-2400.567 -1353.803)"/><path class="n" d="M2413.907,1360.9a2.189,2.189,0,0,0,.508.907s1.305-.351,1.616-1.02l-.68-.878S2415.319,1360.574,2413.907,1360.9Z" transform="translate(-2403.989 -1354.174)"/><path class="q" d="M2413.42,1355.45a3.2,3.2,0,0,1-1.982.421c.021-.182.048-.376.083-.565.227-.055.417-.089.417-.089Z" transform="translate(-2402.225 -1350.82)"/><path class="e" d="M2412.6,1345.809c-.406,1.118-1.888.833-2.519.653-.178-.05-.288-.092-.288-.092-.2-.089-.256-.429-.238-.859a6.636,6.636,0,0,1,.562-2.341c.29-.436.774-.878,2.212-.262S2413.119,1344.377,2412.6,1345.809Z" transform="translate(-2400.876 -1341.807)"/><path class="o" d="M2414.182,1343.24c-.454.37-1.428,1.055-1.428,1.055a1.76,1.76,0,0,0,.241-.5.479.479,0,0,0,.018-.168.926.926,0,0,1,.133-.516c.059-.1.081-.2.006-.267-.123-.117-.333-.01-.471.085a.278.278,0,0,1-.3.008h0c-.387-.243.041-.67-.274-1.026s-1.679-.4-1.624-.626c-.466-.263-.172-1.233-.164-1.285a5.031,5.031,0,0,0,1.5-.149,2.22,2.22,0,0,1,1.66.444.377.377,0,0,0-.038-.166.352.352,0,0,1,.1.219c.01.01.015.017.012.02a.448.448,0,0,1,.213.049s-.057-.018-.085.016a.042.042,0,0,1-.012.009A2.431,2.431,0,0,1,2414.182,1343.24Z" transform="translate(-2401.349 -1339.812)"/><path class="d" d="M2410.963,1352.672s-.073.141-.439.024c0,0-.308-.1-.257-.26A1.036,1.036,0,0,1,2410.963,1352.672Z" transform="translate(-2401.384 -1348.831)"/><path class="r" d="M2410.355,1365.9s-.816,10.315-.8,11.175a3.24,3.24,0,0,0,.9,1.768,3.778,3.778,0,0,0,.851-1.6c.139-.822-.394-11.236-.394-11.236Z" transform="translate(-2400.876 -1358.451)"/><path class="m" d="M2425.082,1363.591a4.191,4.191,0,0,1,2.359,2.317c1.042,2,1.865,6.038,2.362,7.1a22.474,22.474,0,0,1,.838,4.42l-.787.387a35.714,35.714,0,0,1-2.183-4.566c-.152-.61-2.477-5.494-2.477-5.494Z" transform="translate(-2411.975 -1356.804)"/><path class="n" d="M2427.046,1389.708h0c-2.481-.357-1.77-8.569-1.575-8.6s.908,1.468.908,1.468l.068.333c.189,1.9.465,4.091.885,6.4C2427.359,1389.458,2427.253,1389.592,2427.046,1389.708Z" transform="translate(-2412.077 -1369.321)"/></g><g transform="translate(135.341 27.139)"><g transform="translate(3.045 26.981)"><path class="o" d="M2530.707,1472.985s1.033.943.832,1.613-1.134,1.116-1.26,1.935-.63,1.265-1.084,1.265h-2.162s-.334-.576.472-.75,1.11-1.136,1.06-2.029a15.71,15.71,0,0,1,.076-2.084l1.713-.4Z" transform="translate(-2511.961 -1443.105)"/><path class="o" d="M2480.464,1480.568s.185,2.146-.268,2.369l-5.8-.012s0-.67.932-.819,2.57-.695,2.847-1.91S2480.464,1480.568,2480.464,1480.568Z" transform="translate(-2474.391 -1448.25)"/><path class="s" d="M2478.5,1375.142s.306,3.761.666,8.282c.489,6.141,1.077,13.685,1.135,15.114.1,2.481.5,6.451.5,6.451a3.2,3.2,0,0,0,2.873.546,64.047,64.047,0,0,0,2.195-11.662c.008-.1.015-.2.022-.3.454-6.1,1.159-18.956,1.159-18.956Z" transform="translate(-2477.326 -1373.132)"/><path class="o" d="M2478.5,1375.142s.306,3.761.666,8.282l6.707,10.449c.008-.1.015-.2.022-.3.454-6.1,1.159-18.956,1.159-18.956Z" transform="translate(-2477.326 -1373.132)"/><path class="s" d="M2483.4,1371.861s5.519,13.621,9.147,20.022,4.762,8.188,4.762,8.188,2.079-.819,2.268-1.377c0,0-1.388-12.358-3.818-15.37a14.479,14.479,0,0,1-2.5-7.266,23.118,23.118,0,0,0-1.055-6.653Z" transform="translate(-2480.826 -1369.405)"/></g><path class="e" d="M2464.929,1378.713a10.709,10.709,0,0,0-1.106,1.767,7.353,7.353,0,0,0-.042,2.091c.124.389.766-1.161,1.026-1.34s-.162.61-.061.73.6-.484.793-.691.1-1.239.313-1.867S2464.929,1378.713,2464.929,1378.713Z" transform="translate(-2463.72 -1349.075)"/><path class="d" d="M2471.857,1307.675s-1.392,12.961-1.516,13.33c-.027.08-.136.491-.29,1.081-.219.843-.529,2.054-.823,3.206-.443,1.74-.922,3.245-.922,3.245a1.224,1.224,0,0,1-.718.093.759.759,0,0,1-.532-.325s.051-6.364.362-7.814,1.305-10.362,1.808-11.561S2471.857,1307.675,2471.857,1307.675Z" transform="translate(-2466.104 -1298.311)"/><path class="p" d="M2473.891,1343.021c-.219.843-.529,2.055-.823,3.206a12.482,12.482,0,0,1-.582-2.542,30.982,30.982,0,0,1,.58-6.714Z" transform="translate(-2469.945 -1319.245)"/><path class="d" d="M2486.509,1327.189c-2,1.127-10.561,1.1-10.957.218-.886-1.976-1.108-12.018-.69-15.1,0,0,.216-4.734.69-4.525,3.162-1.453,8.282-.133,8.282-.133,1.38.407,1.261,3.561,1.646,7.99.05.571.1,1.166.166,1.78.272,2.735.669,5.877,1.271,9.192C2486.957,1326.829,2486.805,1327.022,2486.509,1327.189Z" transform="translate(-2471.536 -1297.9)"/><path class="e" d="M2489.965,1298.417c-.053.847-1.157.751-2.485.448s-.847-1.086-.847-1.086.02-.6.1-1.323c.031-.262.069-.541.119-.811.023-.132.049-.263.079-.389.173-.745,2.652-.026,2.635.174C2489.521,1295.971,2489.913,1297.752,2489.965,1298.417Z" transform="translate(-2480.033 -1289.2)"/><path class="o" d="M2488.286,1309.407l-.1-1.17,1.47.277-.566,1.044Z" transform="translate(-2481.2 -1298.713)"/><path class="p" d="M2484.756,1302.994l-.878,1.336a1.944,1.944,0,0,0,.762,1.418l1.2-1.118A2.16,2.16,0,0,1,2484.756,1302.994Z" transform="translate(-2478.125 -1294.966)"/><path class="p" d="M2490.756,1305.161a3.146,3.146,0,0,0,.73,1.3s1.875-.5,2.322-1.465l-.977-1.26S2492.784,1304.693,2490.756,1305.161Z" transform="translate(-2483.04 -1295.498)"/><path class="q" d="M2490.055,1297.331a4.6,4.6,0,0,1-2.847.6c.031-.262.069-.541.119-.811.327-.079.6-.129.6-.129Z" transform="translate(-2480.505 -1290.68)"/><path class="e" d="M2488.875,1283.48c-.583,1.606-2.712,1.2-3.619.938-.255-.072-.413-.132-.413-.132-.28-.127-.367-.616-.342-1.233a9.549,9.549,0,0,1,.808-3.364c.417-.626,1.112-1.262,3.177-.376S2489.623,1281.423,2488.875,1283.48Z" transform="translate(-2478.567 -1277.731)"/><path class="i" d="M2491.15,1279.789c-.652.532-2.052,1.516-2.052,1.516a2.535,2.535,0,0,0,.346-.715.7.7,0,0,0,.025-.242,1.339,1.339,0,0,1,.192-.742c.085-.138.116-.282.008-.384-.177-.167-.479-.014-.677.122a.4.4,0,0,1-.437.011l0,0c-.557-.349.058-.964-.394-1.474s-2.412-.58-2.333-.9c-.669-.378-.247-1.772-.235-1.846a7.229,7.229,0,0,0,2.158-.215,3.193,3.193,0,0,1,2.385.638.546.546,0,0,0-.054-.238.506.506,0,0,1,.145.315c.015.015.021.025.017.028a.645.645,0,0,1,.307.071s-.083-.026-.122.023a.059.059,0,0,1-.017.013C2491.71,1276.69,2491.691,1279.347,2491.15,1279.789Z" transform="translate(-2479.247 -1274.864)"/><path class="d" d="M2486.525,1293.339s-.1.2-.631.035c0,0-.442-.141-.369-.374A1.489,1.489,0,0,1,2486.525,1293.339Z" transform="translate(-2479.297 -1287.822)"/><path class="s" d="M2485.653,1312.336s-1.172,14.819-1.156,16.054a4.656,4.656,0,0,0,1.3,2.54,5.432,5.432,0,0,0,1.222-2.3c.2-1.181-.566-16.142-.566-16.142Z" transform="translate(-2478.567 -1301.642)"/><path class="p" d="M2509.632,1346.547h0c-3.564-.513-2.543-12.31-2.263-12.357s1.3,2.109,1.3,2.109l.1.478c.272,2.735.669,5.877,1.271,9.192C2510.08,1346.187,2509.928,1346.38,2509.632,1346.547Z" transform="translate(-2494.659 -1317.258)"/><g transform="translate(14.586 30.552)"><path class="k" d="M2525.694,1390.986l-7.537,2.194a1.863,1.863,0,0,1-2.3-1.265l-.951-3.267a1.863,1.863,0,0,1,1.265-2.3l7.537-2.194a1.864,1.864,0,0,1,2.3,1.265l.95,3.266A1.863,1.863,0,0,1,2525.694,1390.986Z" transform="translate(-2514.83 -1383.462)"/><path class="l" d="M2518.382,1386.814l.962,3.3a1.868,1.868,0,0,0,1.29,1.274,1.835,1.835,0,0,0,.621.066h0a1.814,1.814,0,0,0,.4-.07l7.524-2.19a1.87,1.87,0,0,0,1.269-2.311l-.961-3.3a1.87,1.87,0,0,0-2.311-1.269l-2.591.754-.2-.7a.616.616,0,0,0-.762-.419l-.284.083-1.576.459-.392.114a.616.616,0,0,0-.419.763l.205.7-1.5.437a1.827,1.827,0,0,0-.173.06h0a1.871,1.871,0,0,0-1.116,1.295h0A1.851,1.851,0,0,0,2518.382,1386.814Zm5.833-3.64-2.692.784-.205-.705a.23.23,0,0,1,.156-.284l.676-.2,1.24-.362.335-.1a.223.223,0,0,1,.069-.009.229.229,0,0,1,.216.165Z" transform="translate(-2517.315 -1381.918)"/></g><path class="e" d="M2530.936,1377.536s-.234,1.955.2,1.927,1.51-.238,1.583-.575a7.137,7.137,0,0,0-.821-1.907Z" transform="translate(-2511.709 -1347.838)"/><path class="e" d="M2530.122,1378.908a1.82,1.82,0,0,0-.364.745c-.029.328-.188.9-.039.938s.425-.714.425-.714Z" transform="translate(-2510.838 -1349.215)"/><path class="d" d="M2506.809,1309.025s1.893.453,3.39,3.328,2.679,8.673,3.393,10.2,1.259,6.123,1.259,6.123a.7.7,0,0,1-.5.312,2.344,2.344,0,0,1-.605.039s-2.815-4.508-3.219-6.128c-.219-.876-3.558-7.892-3.558-7.892Z" transform="translate(-2494.512 -1299.276)"/></g><g transform="translate(7.995 32.28)"><path class="e" d="M2069.235,1476.8l-.283-2.043,1.192-1,.375,2.7Z" transform="translate(-2054.269 -1422.142)"/><path class="o" d="M2071.58,1484.331h-4.858a2.67,2.67,0,0,1,.137-1.3c.243-.539.622-.872.656-1.284a1.459,1.459,0,0,0,1.391.428,5.334,5.334,0,0,0,.843,1.093C2070.067,1483.493,2071.482,1483.412,2071.58,1484.331Z" transform="translate(-2052.657 -1427.844)"/><path class="d" d="M2065.313,1381.086c-.318,2.556-.577,4.965-.789,7.21a171.849,171.849,0,0,0-.908,19.276s-.082.216-.783.22a4.017,4.017,0,0,1-.784-.084s-2.531-7.813-2.336-12.258a6.838,6.838,0,0,1,.2-1.439c.607-2.275-2.247-10.974.856-14.213S2065.459,1379.914,2065.313,1381.086Z" transform="translate(-2047.366 -1354.011)"/><path class="p" d="M2065.313,1381.086c-.318,2.556-.577,4.965-.789,7.21l-4.811,7.153a6.838,6.838,0,0,1,.2-1.439c.607-2.275-2.247-10.974.856-14.213S2065.459,1379.914,2065.313,1381.086Z" transform="translate(-2047.366 -1354.011)"/><path class="e" d="M2093.148,1295.579s-.117-.584-.249-1.029a3.207,3.207,0,0,1,.63-1.651c.281-.159,1.014.713.807,1.382-.107.344-.282,1.463-.282,1.463Z" transform="translate(-2071.379 -1292.879)"/><path class="e" d="M2092.087,1299.149s-.153-.339-.291-.393-.286-.608-.387-.828c0,0,.1-.144.269.041.1.113.338.443.338.443Z" transform="translate(-2070.317 -1296.449)"/><path class="e" d="M2019.222,1306.2c-.03.061-.071.171-.108.275,0-.028,0-.056,0-.084a3.2,3.2,0,0,0-1.085-1.395c-.316-.07-.761.978-.367,1.558.2.3.7,1.317.7,1.317l.818-.423s.047-.368.163-.461.1-.666.129-.905C2019.468,1306.081,2019.332,1305.973,2019.222,1306.2Z" transform="translate(-2017.506 -1301.535)"/><path class="e" d="M2041.186,1475.535c-.068-.655-.086-2.378-.086-2.378s1.755-.561,1.691-.176a12.409,12.409,0,0,0-.232,2.832l-.71.424Z" transform="translate(-2034.366 -1421.485)"/><path class="d" d="M2049.851,1386.42s-6.782,18.59-8.117,26.653a1.353,1.353,0,0,1-.886.142.992.992,0,0,1-.834-.534s-1.225-9.665,1.21-13.02c1.673-2.305-.721-12.429,3.175-13.241S2049.851,1386.42,2049.851,1386.42Z" transform="translate(-2033.37 -1359.466)"/><path class="k" d="M2043.308,1315.487h0a.151.151,0,0,0-.006-.024q-.06-.245-.13-.485h0a10.926,10.926,0,0,0-.493-1.365c-.105-.236-.214-.454-.325-.649l-.05-.087h0a1.948,1.948,0,0,0-.775-.839,2.325,2.325,0,0,0-1.276-.053.584.584,0,0,1,.243-.163,1.938,1.938,0,0,0-.66.281c-3.124-.7-2.941,3.72-2.728,4.721s-.794,1.488-2.212,2.513c-2.707,1.955-2.661,4.028-2.661,4.028.024.01.051.022.079.036.109-.268.34-.776.582-.883a10.471,10.471,0,0,0-.26,1.05c.412.227.983.579,1.6.976h0c.829.531,1.744,1.141,2.477,1.637a1.681,1.681,0,0,1-.018-.652l.234.724.031.094c.468.317.837.571,1.025.7l.052.035.084.058a3.947,3.947,0,0,1,.669-1.763c.031-.058.065-.118.1-.178.148-.266.313-.545.491-.834.064-.1.129-.209.2-.315h0c.054-.086.109-.17.165-.257h0c.133-.205.27-.412.41-.619.363-.536.748-1.069,1.127-1.557a13.672,13.672,0,0,1,1.546-1.733c.015-.031.029-.062.041-.093a3.073,3.073,0,0,0,.168-.534c.013-.056.025-.112.035-.169a7.344,7.344,0,0,0,.114-1.324,7.508,7.508,0,0,1-.017,1.335c-.009.072-.018.138-.029.2h0a2.7,2.7,0,0,1-.082.351,1.832,1.832,0,0,0,.2-.3,2.212,2.212,0,0,0,.1-.227A6.579,6.579,0,0,0,2043.308,1315.487Z" transform="translate(-2028.032 -1306.415)"/><path class="e" d="M2061.724,1333.963a2.752,2.752,0,0,1-1.625.554,2.193,2.193,0,0,1-1.271-.9c.279-.1.3-.507.044-2.2l.134.006,2.249.108s.052.695.147,1.343C2061.481,1333.412,2061.591,1333.923,2061.724,1333.963Z" transform="translate(-2047.035 -1320.415)"/><path class="j" d="M2061.7,1331.542s.052.695.147,1.343a2.62,2.62,0,0,1-2.4-1.45Z" transform="translate(-2047.481 -1320.431)"/><path class="k" d="M2055.638,1318.922a6.492,6.492,0,0,1-1.074-1.759c-.2-.6-.228-2.938,2.123-2.951a3.159,3.159,0,0,1,1.37.3c.55.263,1.379.885.87,3l-.109.706Z" transform="translate(-2043.928 -1308.123)"/><path class="r" d="M2057.283,1351.6a9.524,9.524,0,0,1-6.6.845c-.043-.011-3.025-.486-3.025-.486.051-.141.437-2.444.487-2.573.652-1.682,1.843-10.81,2.838-11.26a2.253,2.253,0,0,0,1.6.411c.716-.063.956-.372.9-.7.792.375,1.4.723,1.4.723C2055.607,1339.637,2057.283,1351.6,2057.283,1351.6Z" transform="translate(-2039.053 -1325.001)"/><path class="e" d="M2060.445,1321.8s-2.884.478-3.154-1.323-.824-2.952,1.006-3.334,2.292.252,2.528.831S2061.188,1321.626,2060.445,1321.8Z" transform="translate(-2045.726 -1310.133)"/><path class="k" d="M2057.656,1315.906s-.478,2.231-1.646,2.724a2.418,2.418,0,0,1-1.744.246,3.478,3.478,0,0,0,.823-2.2S2056.909,1314.989,2057.656,1315.906Z" transform="translate(-2043.775 -1309.139)"/><path class="k" d="M2065.547,1316.226a2.582,2.582,0,0,1,.874.821c.212.437.417,1.372.688,1.3,0,0,.383-1.525-.408-2.238C2065.862,1315.352,2065.547,1316.226,2065.547,1316.226Z" transform="translate(-2051.836 -1309.259)"/><path class="n" d="M2076.329,1302.079a1.848,1.848,0,0,0-.516-.16,1.6,1.6,0,0,0-.453.048s-.814,5.059-.875,5.327-3.49,4.132-4.416,4.117a4.194,4.194,0,0,0-2.008.755,44.346,44.346,0,0,1,2.042,4.885c.105.841,1.113,13.786,1.113,13.786s-.06.6,1.065.278a3.844,3.844,0,0,0,1.406-.592s-1.033-10.191-1.25-13.361a6.047,6.047,0,0,0-.2-1.183,1.2,1.2,0,0,1,.194-1.018c1.422-1.953,3.669-5.117,3.794-5.789C2076.412,1308.185,2076.329,1302.079,2076.329,1302.079Z" transform="translate(-2053.634 -1299.337)"/><path class="o" d="M2043.352,1484.331h-4.858a2.667,2.667,0,0,1,.137-1.3c.243-.539.622-.872.656-1.284a1.46,1.46,0,0,0,1.391.428,5.33,5.33,0,0,0,.843,1.093C2041.839,1483.493,2043.254,1483.412,2043.352,1484.331Z" transform="translate(-2032.485 -1427.844)"/><path class="n" d="M2033.844,1325.408a38.44,38.44,0,0,0-2.254-5.053,4.3,4.3,0,0,0-2.191-.08c-.87.315-5.37-2.225-5.514-2.459s-2.554-4.725-2.554-4.725a.559.559,0,0,0-.52.051.587.587,0,0,0-.318.488s1.86,5.654,2.355,6.529a32.939,32.939,0,0,0,4.752,3.739,1.22,1.22,0,0,1,.505,1.16c-.261,1.933-.328,3.022-.629,6.34-.25,2.752-.345,8.081-.345,8.081a17.984,17.984,0,0,0,3.679.853,1.823,1.823,0,0,0,1.83-1.484S2034.012,1326.444,2033.844,1325.408Z" transform="translate(-2019.64 -1307.295)"/><path class="d" d="M2065.768,1329.97a1.287,1.287,0,0,0,.764.144c.283-.042.348-.379.348-.379a1.12,1.12,0,0,0-.511,0A2.177,2.177,0,0,0,2065.768,1329.97Z" transform="translate(-2051.994 -1319.197)"/></g><g transform="translate(73.218)"><path class="e" d="M2387.114,1202.576s-1.35-2.4,0-2.887,1.96-.038,2.025.508a14.951,14.951,0,0,1-.514,2.7Z" transform="translate(-2346.424 -1193.856)"/><path class="l" d="M2344,1224.149a43.656,43.656,0,0,1-6.766.695,37.755,37.755,0,0,1-5.2-.234q-.613-.07-1.179-.157a23.415,23.415,0,0,1-6.185-1.676s3.641-7.621,6.582-7.329c3.45.344,9.3,3.44,9.878,2.572.654-.978,1.2-9.369,1.2-9.369a1.743,1.743,0,0,1,2.443.057S2347.766,1223.47,2344,1224.149Z" transform="translate(-2302.232 -1200.087)"/><path class="k" d="M2360.169,1253.6a43.657,43.657,0,0,1-6.765.695,37.757,37.757,0,0,1-5.2-.234c-.917-2.92-1.578-5.9.268-4.1C2351.728,1253.125,2360.169,1253.6,2360.169,1253.6Z" transform="translate(-2318.398 -1229.535)"/><path class="o" d="M2323.571,1476.753s-.261,3.03.379,3.345l8.2-.017s0-.946-1.316-1.156-3.629-.981-4.02-2.7S2323.571,1476.753,2323.571,1476.753Z" transform="translate(-2301.407 -1391.159)"/><path class="s" d="M2318.7,1327.444c-.041,1.981-.136,4.025-.322,5.861-.885,8.714-1.2,19.243-1.323,21.273-.22,3.524-.917,9.154-.917,9.154a4.5,4.5,0,0,1-4.072.685,91.616,91.616,0,0,1-2.728-16.646c-.008-.14-.015-.281-.022-.421-.058-1.129-.118-2.42-.18-3.812-.41-9.322-.855-23.169-.855-23.169l10.285-2.415S2318.8,1322.506,2318.7,1327.444Z" transform="translate(-2290.515 -1278.518)"/><path class="o" d="M2318.7,1327.444c-2.607,4.5-7.575,12.782-9.565,16.094-.41-9.322-.855-23.169-.855-23.169l10.285-2.415S2318.8,1322.506,2318.7,1327.444Z" transform="translate(-2290.515 -1278.518)"/><path class="e" d="M2248.183,1320.683a15.95,15.95,0,0,0-1.824,2.514,10.953,10.953,0,0,0-.275,3.1c.144.591,1.256-1.647,1.661-1.886s-.3.89-.165,1.079.937-.659,1.249-.946.281-1.83.655-2.743S2248.183,1320.683,2248.183,1320.683Z" transform="translate(-2246.042 -1280.468)"/><path class="o" d="M2249.133,1466.046s-1.458,1.331-1.174,2.277,1.6,1.577,1.779,2.733.889,1.787,1.53,1.787h3.053s.471-.813-.667-1.059-1.568-1.6-1.5-2.865a22.226,22.226,0,0,0-.106-2.943l-2.419-.561Z" transform="translate(-2247.385 -1383.895)"/><path class="s" d="M2276.843,1319.318s-9.628,20.6-14.751,29.638-6.724,11.561-6.724,11.561-2.935-1.156-3.2-1.944c0,0,1.959-17.449,5.39-21.7,1.939-2.4,4.216-9.617,4.323-12.139s2.356-8.543,2.356-8.543Z" transform="translate(-2250.418 -1277.256)"/><path class="l" d="M2305.464,1255.74a16.684,16.684,0,0,1-9.247,2.322c-2.378-.1-7.1-.778-7.857-2.669a2.978,2.978,0,0,1,.22-1.873c.7-2.248,2.318-6.529,1.828-16.021a15.565,15.565,0,0,1,.064-2.491c.51-4.675,3.19-7.444,5.779-8.349,6.316-2.207,8.421.851,8.421.851a10.162,10.162,0,0,1,3.212,6.828C2308.726,1243.571,2305.464,1255.74,2305.464,1255.74Z" transform="translate(-2276.224 -1212.706)"/><path class="e" d="M2322.7,1212.156a10.03,10.03,0,0,0,6.041,1.264s.621-.158.316-.887a9.4,9.4,0,0,0,.279-.973,14.674,14.674,0,0,0,.36-1.588l-1.784-1.875-1.69-1.792A7.493,7.493,0,0,1,2322.7,1212.156Z" transform="translate(-2300.824 -1198.733)"/><path class="t" d="M2334.1,1212a6.988,6.988,0,0,0,3.384,3.63c.276-1.007.455-2.06.455-2.06l-1.879-1.4Z" transform="translate(-2308.967 -1202.799)"/><path class="e" d="M2338.343,1196.19s-5.531.692-5.92-2.708-1.363-5.6,2.152-6.185,4.351.636,4.76,1.74S2339.772,1195.922,2338.343,1196.19Z" transform="translate(-2307.468 -1185.041)"/><path class="u" d="M2326.322,1181.475c-.048-.059-.161-.11-.417-.133a1.038,1.038,0,0,1,.484-.117,1.29,1.29,0,0,1,.9-1.108.769.769,0,0,0-.394.54c.738-.7,2.279-1.176,6.48-.684,5.536.648,3.572,4.134,2.837,4.531s-2.5-.834-3.844-.778-1.671,1.981-2.136,2.23-.268-.214-.872-.515-.7.715-.549,1.384-.725,1.511-.725,1.511l-.818-.952c-.819-.952-1.476-4.876-1.057-5.691C2326.247,1181.621,2326.284,1181.549,2326.322,1181.475Z" transform="translate(-2303.113 -1179.772)"/><g transform="translate(30.182 2.734)"><path class="s" d="M2362.885,1199.607l-9.391.083-.064-1.413,9.362-.725Z" transform="translate(-2352.964 -1195.212)"/><path class="s" d="M2385.5,1197.539l-10.224.148-.117-2.568,10.2-.79Z" transform="translate(-2368.496 -1192.908)"/><path class="o" d="M2413.572,1195.672l-8.622.011-.158-3.468,8.587-.781Z" transform="translate(-2389.668 -1190.84)"/><path class="o" d="M2434.218,1194.769h0a.482.482,0,0,0,.46-.5l-.2-4.454a.482.482,0,0,0-.5-.46h0a.482.482,0,0,0-.46.5l.2,4.454A.482.482,0,0,0,2434.218,1194.769Z" transform="translate(-2410.191 -1189.351)"/><path class="s" d="M2352.3,1201.062h0a.428.428,0,0,1-.447-.409l-.053-1.156a.429.429,0,0,1,.409-.448h0a.429.429,0,0,1,.448.409l.052,1.156A.428.428,0,0,1,2352.3,1201.062Z" transform="translate(-2351.799 -1196.282)"/></g><path class="k" d="M2289.338,1276.4c.7-2.248,2.318-6.529,1.828-16.021a15.566,15.566,0,0,1,.063-2.491h0c2.078-.178,5.256,2.068,5.256,2.068S2294.53,1271.89,2289.338,1276.4Z" transform="translate(-2276.982 -1235.59)"/><path class="l" d="M2271.6,1226.806s-5.329.916-8.109,4.31-7.251,8.178-8.308,9.854-3.992,13.078-3.992,13.078.194.366,1,.58a1.908,1.908,0,0,0,1.336-.112s3.888-6.655,5.352-9.979c.608-1.381,11.124-6.851,15.076-6.284C2275.509,1238.475,2271.6,1226.806,2271.6,1226.806Z" transform="translate(-2249.72 -1213.383)"/><path class="e" d="M2386.363,1195.191s1.146.7,1.832.4.625-.568.625-.568S2386.749,1194.453,2386.363,1195.191Z" transform="translate(-2346.317 -1190.521)"/><path class="r" d="M2288.888,1239.179s-2.339,14.766-18.934,19.066l-1.808,3.566,3.176.537s18.892-5.473,18.638-23.43Z" transform="translate(-2261.838 -1222.038)"/><path class="f" d="M2337.635,1231.574l-.766.075v1.109l1.129,1.173,1.073-.261v-1.539l-.771-.557Z" transform="translate(-2310.947 -1216.79)"/><path class="k" d="M2322.92,1221.285a7.377,7.377,0,0,0-2.437,1.576s1.686,3.579,5.243,4.007a11.892,11.892,0,0,1,.2-2.646S2323.106,1223.212,2322.92,1221.285Z" transform="translate(-2299.238 -1209.437)"/><path class="k" d="M2339.553,1229.11s1.736.921,1.864,2.357a2.9,2.9,0,0,0,.471-1.779,5.933,5.933,0,0,0-.787-1.562S2341.16,1229,2339.553,1229.11Z" transform="translate(-2312.866 -1214.326)"/></g></g></g></svg>