<svg xmlns="http://www.w3.org/2000/svg" width="106.824" height="106.472" viewBox="0 0 106.824 106.472"><defs><style>.a{fill:#f0f0f0;}.b{fill:#e0e0e0;}.c{fill:#27debf;}.d{opacity:0.2;}.e,.j,.t,.u{fill:#fff;}.f{fill:#37474f;}.g{fill:#263238;}.h,.k{fill:#455a64;}.i{opacity:0.15;}.j{opacity:0.7;}.k,.q{opacity:0.8;}.l{fill:#ebebeb;}.m,.r,.t{opacity:0.3;}.n,.u{opacity:0.4;}.o{opacity:0.5;}.p,.q{fill:#fafafa;}.s{opacity:0.1;}.v{fill:#ffa8a7;}.w{fill:#f5f5f5;}.x{fill:#f28f8f;}</style></defs><g transform="translate(-183.612 -185.762)"><ellipse class="a" cx="53.412" cy="30.837" rx="53.412" ry="30.837" transform="translate(183.612 230.559)"/><path class="b" d="M261.887,288.932a2.916,2.916,0,0,0-.426-1.5h0c-.056-.1-.118-.19-.182-.28l-.01-.013a3.175,3.175,0,0,0-.2-.246l-.019-.02a2.625,2.625,0,0,0-.216-.209l-.019-.016a2.234,2.234,0,0,0-.237-.174q-.07-.044-.138-.077c-.022-.011-.042-.019-.063-.028s-.048-.023-.072-.031-.069-.023-.1-.033l-.027-.009a.929.929,0,0,0-.119-.023l-.007,0a.746.746,0,0,0-.441.068h0c-1.22.612-8.252,5.086-11.488,7.1l-1.6.973a.363.363,0,0,0-.118.112l-.012.018a.5.5,0,0,0-.037.069c-.006.015-.011.031-.017.048a.628.628,0,0,0-.019.062c0,.014,0,.028-.006.043l-.265.144-.237.128a9.355,9.355,0,0,0-1.829-1.356,18.238,18.238,0,0,0-16.552,0c-2.3,1.327-3.563,3.119-3.563,5.045s1.265,3.718,3.563,5.045a18.238,18.238,0,0,0,16.552,0c2.3-1.327,3.563-3.118,3.563-5.045a4.637,4.637,0,0,0-.753-2.492l.212-.115a.473.473,0,0,0,.454.044l.01,0c1.1-.605,11.8-5.167,13.991-6.34h0A.979.979,0,0,0,261.887,288.932ZM242.96,302.02a16.239,16.239,0,0,1-14.529,0c-1.646-.95-2.552-2.119-2.552-3.292s.906-2.342,2.552-3.292a16.246,16.246,0,0,1,14.529,0c1.645.95,2.551,2.119,2.551,3.292S244.605,301.07,242.96,302.02Z" transform="translate(-7.771 -19.407)"/><path class="b" d="M256.639,254.426l-10.858-6.282a2.207,2.207,0,0,0-2,0L188.63,279.988a.608.608,0,0,0,0,1.153l10.858,6.282a2.207,2.207,0,0,0,2,0l20.669-11.933,3.177,1.847a6.736,6.736,0,0,0,6.093,0l9.471-5.428c1.682-.971,1.682-2.546,0-3.516l-3.174-1.846,18.919-10.967A.609.609,0,0,0,256.639,254.426Z" transform="translate(-0.889 -12)"/><ellipse class="b" cx="10.646" cy="6.147" rx="10.646" ry="6.147" transform="translate(263.318 259.869)"/><g transform="translate(278.488 249.09)"><g transform="translate(1.495)"><path class="c" d="M303.075,274.23c0-1.441-.286-4.1.934-6.588.884-1.805,2.465-3.558,3.936-3.384,1.369.162,1.494,2.268.184,3.71a11.411,11.411,0,0,0-3.341,6.623l-.943,2.365Z" transform="translate(-303.047 -264.245)"/><g class="d"><path d="M303.075,274.23c0-1.441-.286-4.1.934-6.588.884-1.805,2.465-3.558,3.936-3.384,1.369.162,1.494,2.268.184,3.71a11.411,11.411,0,0,0-3.341,6.623l-.943,2.365Z" transform="translate(-303.047 -264.245)"/></g><g transform="translate(0.388 0.882)"><path class="e" d="M303.659,275.453a.1.1,0,0,0,.082-.1,11.876,11.876,0,0,1,3.857-9.837.1.1,0,0,0-.132-.152,12.072,12.072,0,0,0-3.926,10,.1.1,0,0,0,.1.1Z" transform="translate(-303.528 -265.338)"/></g></g><g transform="translate(0 7.754)"><path class="c" d="M302.457,281.237a5.086,5.086,0,0,0,2.534.705,2.463,2.463,0,0,0,2.112-.775s-.784-1.336-1.7-1.619a8.51,8.51,0,0,1,2.765.724s.924-.11,1.1-1.566a3.993,3.993,0,0,0-2.554-.985,6.091,6.091,0,0,1,2.739-.236,10.639,10.639,0,0,0,.439-2.717c.044-.86-.293-.806-.971-.893s-2.921.1-3.282.516a3.766,3.766,0,0,0-.4,1.674,2.455,2.455,0,0,1-.475-1.278,2.36,2.36,0,0,0-1.388.22c-.7.354-.926.638-.96,1.177a5.35,5.35,0,0,0,.136,1.969,4.144,4.144,0,0,1-.606-1.926,9.493,9.493,0,0,0-.652,1.364A3.99,3.99,0,0,0,302.457,281.237Z" transform="translate(-301.193 -273.855)"/><g transform="translate(1.163 0.45)"><path class="e" d="M302.761,281.442a.1.1,0,0,0,.069-.065c.878-2.691,5.008-6.235,6.586-6.767a.1.1,0,0,0,.063-.127.1.1,0,0,0-.127-.063c-1.609.542-5.819,4.153-6.713,6.895a.1.1,0,0,0,.064.127A.106.106,0,0,0,302.761,281.442Z" transform="translate(-302.635 -274.413)"/></g></g></g><g transform="translate(194.362 185.762)"><g transform="translate(22.853 55.221)"><g transform="translate(0.002)"><path class="f" d="M238.578,277.636l8.16-4.718A2.141,2.141,0,0,0,248,271.16c0-.637,0-1.135,0-1.135l-7.679-4.358a1.8,1.8,0,0,1-.812-1.407V254.2l-14.254,8.236V272.5a1.8,1.8,0,0,0,.812,1.407l6.415,3.734A6.734,6.734,0,0,0,238.578,277.636Z" transform="translate(-225.259 -254.198)"/></g><path class="g" d="M228.681,275.873V277l-2.612-1.506a1.8,1.8,0,0,1-.812-1.407v-10.06l2.715-1.566c.057.689.118,1.4.173,2.1l-1.9,1.1v7.86a1.785,1.785,0,0,0,.811,1.407Z" transform="translate(-225.257 -255.794)"/><path class="h" d="M226.477,272.32a1.8,1.8,0,0,0,.813,1.407l5.43,3.165a6.736,6.736,0,0,0,6.093,0l8.164-4.718c1.683-.971,1.683-2.545,0-3.516l-5.434-3.169a1.8,1.8,0,0,1-.813-1.406v-7.862l-14.254,8.236Z" transform="translate(-225.493 -254.589)"/><path class="i" d="M243.2,266.447v0l-1.654-.955a1.8,1.8,0,0,1-.813-1.406v-7.862l-14.254,8.236v7.862a1.8,1.8,0,0,0,.813,1.407l1.626.938Z" transform="translate(-225.493 -254.589)"/><path class="f" d="M250.493,273.813v1.134a2.144,2.144,0,0,1-1.261,1.759l-8.162,4.716a6.11,6.11,0,0,1-2.907.722v-1.13a6.11,6.11,0,0,0,2.907-.723l8.162-4.72A2.138,2.138,0,0,0,250.493,273.813Z" transform="translate(-227.749 -257.986)"/></g><path class="h" d="M197.887,269.567a2.174,2.174,0,0,0,1.968-.036l55.122-31.823a2.245,2.245,0,0,0,1.015-1.759V187.7a1.907,1.907,0,0,0-2.92-1.686l-55.121,31.824a2.244,2.244,0,0,0-1.016,1.758v48.248A2.176,2.176,0,0,0,197.887,269.567Z" transform="translate(-196.935 -185.762)"/><path class="f" d="M200.311,269.82,255.433,238a2.243,2.243,0,0,0,1.015-1.758V187.99c0-.648-.454-.91-1.015-.587l-55.121,31.824a2.244,2.244,0,0,0-1.015,1.759v48.247C199.3,269.882,199.75,270.144,200.311,269.82Z" transform="translate(-197.391 -186.052)"/><path class="c" d="M201.656,263.608V222.366a1.345,1.345,0,0,1,.609-1.055l52.122-30.093c.336-.194.609-.037.609.352l0,41.242a1.347,1.347,0,0,1-.609,1.055L202.265,263.96C201.929,264.154,201.656,264,201.656,263.608Z" transform="translate(-197.847 -186.799)"/><path class="j" d="M201.656,263.608V222.366a1.345,1.345,0,0,1,.609-1.055l52.122-30.093c.336-.194.609-.037.609.352l0,41.242a1.347,1.347,0,0,1-.609,1.055L202.265,263.96C201.929,264.154,201.656,264,201.656,263.608Z" transform="translate(-197.847 -186.799)"/><path class="c" d="M234.427,266.793a.6.6,0,0,1-.3-.079.778.778,0,0,1-.337-.717,2.2,2.2,0,0,1,1.011-1.75h0a.693.693,0,0,1,1.126.65,2.2,2.2,0,0,1-1.01,1.75A.977.977,0,0,1,234.427,266.793Zm.851-2.461a.751.751,0,0,0-.367.115h0a1.98,1.98,0,0,0-.9,1.55.47.47,0,0,0,.78.45,1.983,1.983,0,0,0,.895-1.551.563.563,0,0,0-.221-.516A.379.379,0,0,0,235.279,264.332Z" transform="translate(-204.051 -200.889)"/></g><g transform="translate(205.607 194.146)"><g transform="translate(0 3.06)"><g transform="translate(1.278 0.735)"><path class="a" d="M266.138,200.856l-53.683,30.957v39.565a.686.686,0,0,0,1.026.595l.957-.553,50.7-29.232a2.211,2.211,0,0,0,1-1.733Z" transform="translate(-212.455 -200.856)"/><path class="b" d="M265.907,201.255v39.2a1.989,1.989,0,0,1-.886,1.533l-50.7,29.232-.957.553a.439.439,0,0,1-.224.061.464.464,0,0,1-.318-.129.45.45,0,0,1-.138-.327V231.947l53.221-30.691m.231-.4-53.683,30.957v39.565a.687.687,0,0,0,.687.687.679.679,0,0,0,.34-.092l.957-.553,50.7-29.232a2.211,2.211,0,0,0,1-1.733v-39.6Z" transform="translate(-212.455 -200.856)"/></g><path class="k" d="M264.559,199.945,210.873,230.9l1.277.737,53.683-30.957Z" transform="translate(-210.871 -199.945)"/><path class="l" d="M212.509,279.214a.691.691,0,0,1-.36-.6V239.046l-1.277-.738,0,39.347a1.113,1.113,0,0,0,.01.146,1.059,1.059,0,0,0,.522.775l1.054.609.052.029Z" transform="translate(-210.871 -207.353)"/></g><g transform="translate(0.002)"><path class="c" d="M210.873,230.185v-2.67a1.111,1.111,0,0,1,.5-.867l52.69-30.375a1.1,1.1,0,0,1,1,0l.275.159a1.1,1.1,0,0,1,.5.865v2.673L212.15,230.922Z" transform="translate(-210.873 -196.152)"/><path class="m" d="M210.873,230.185v-2.67a1.111,1.111,0,0,1,.5-.867l52.69-30.375a1.1,1.1,0,0,1,1,0l.275.159a1.1,1.1,0,0,1,.5.865v2.673L212.15,230.922Z" transform="translate(-210.873 -196.152)"/><path class="c" d="M212.455,228.441a1.11,1.11,0,0,1,.5-.867L265.639,197.2c.275-.161.5-.032.5.286v2.673L212.455,231.11Z" transform="translate(-211.178 -196.34)"/><path class="n" d="M212.455,228.441a1.11,1.11,0,0,1,.5-.867L265.639,197.2c.275-.161.5-.032.5.286v2.673L212.455,231.11Z" transform="translate(-211.178 -196.34)"/><path class="c" d="M212.295,235.147a1.037,1.037,0,0,0-.145.494v2.669l-1.276-.736V234.9a1.028,1.028,0,0,1,.145-.491Z" transform="translate(-210.873 -203.54)"/><path class="o" d="M212.295,235.147a1.037,1.037,0,0,0-.145.494v2.669l-1.276-.736V234.9a1.028,1.028,0,0,1,.145-.491Z" transform="translate(-210.873 -203.54)"/><g transform="translate(48.868 2.82)"><path class="p" d="M276.081,200.522c0,.3.21.42.469.271a1.037,1.037,0,0,0,.469-.812c0-.3-.21-.42-.469-.27A1.034,1.034,0,0,0,276.081,200.522Z" transform="translate(-272.333 -199.647)"/><path class="p" d="M273.759,201.863c0,.3.21.42.468.271a1.037,1.037,0,0,0,.469-.812c0-.3-.21-.42-.469-.27A1.036,1.036,0,0,0,273.759,201.863Z" transform="translate(-271.885 -199.906)"/><path class="p" d="M271.436,203.2c0,.3.21.42.469.27a1.036,1.036,0,0,0,.468-.811c0-.3-.21-.42-.468-.27A1.034,1.034,0,0,0,271.436,203.2Z" transform="translate(-271.436 -200.165)"/></g></g><g transform="translate(1.278 5.645)"><path class="p" d="M212.455,237.351V276.9a.686.686,0,0,0,1.026.595l.957-.553,11.731-6.764V229.442l-13.715,7.908Z" transform="translate(-212.455 -208.226)"/><path class="p" d="M230.613,225.033v38.411l37.905-21.885V203.148Z" transform="translate(-215.961 -203.148)"/><g transform="translate(1.533 25.079)"><path class="c" d="M223.4,235.184l-8.749,5.056a.647.647,0,0,0-.293.508v.911c0,.186.131.262.293.169l8.749-5.055a.65.65,0,0,0,.293-.508v-.911C223.69,235.167,223.559,235.091,223.4,235.184Z" transform="translate(-214.355 -234.406)"/><path class="q" d="M223.4,235.184l-8.749,5.056a.647.647,0,0,0-.293.508v.911c0,.186.131.262.293.169l8.749-5.055a.65.65,0,0,0,.293-.508v-.911C223.69,235.167,223.559,235.091,223.4,235.184Z" transform="translate(-214.355 -234.406)"/><path class="h" d="M227.715,235.369l-.257-.248a1.155,1.155,0,0,0,.081-.412.488.488,0,0,0-.193-.443.306.306,0,0,0-.314.014,1.032,1.032,0,0,0-.405.838.486.486,0,0,0,.193.442.271.271,0,0,0,.138.038.355.355,0,0,0,.176-.052.7.7,0,0,0,.229-.235l.211.2a.1.1,0,0,0,.07.029.1.1,0,0,0,.07-.175Zm-.683,0a.108.108,0,0,1-.111.014c-.042-.024-.091-.108-.091-.266a.841.841,0,0,1,.3-.662.154.154,0,0,1,.073-.023.071.071,0,0,1,.037.01c.042.024.091.109.091.267A.838.838,0,0,1,227.032,235.371Z" transform="translate(-216.725 -234.229)"/></g><g transform="translate(1.529 30.936)"><g transform="translate(0 3.309)"><g transform="translate(0)"><path class="h" d="M214.567,246.6l-.2.113c-.012.007-.021,0-.021-.015v-.532a.048.048,0,0,1,.021-.04l.2-.114c.011-.006.021,0,.021.016v.531A.05.05,0,0,1,214.567,246.6Z" transform="translate(-214.35 -245.67)"/><path class="h" d="M214.931,246.389l-.2.113c-.011.006-.021,0-.021-.016v-.531a.053.053,0,0,1,.021-.04l.2-.113c.012-.006.021,0,.021.016v.531A.05.05,0,0,1,214.931,246.389Z" transform="translate(-214.42 -245.629)"/><path class="h" d="M215.3,246.178l-.2.114c-.012.006-.021,0-.021-.016v-.531a.048.048,0,0,1,.021-.04l.2-.113c.011-.007.021,0,.021.015v.532A.05.05,0,0,1,215.3,246.178Z" transform="translate(-214.491 -245.588)"/><path class="h" d="M214.567,247.448l-.2.113c-.012.007-.021,0-.021-.015v-.532a.048.048,0,0,1,.021-.04l.2-.114c.011-.006.021,0,.021.016v.532A.05.05,0,0,1,214.567,247.448Z" transform="translate(-214.35 -245.834)"/><path class="h" d="M214.931,247.238l-.2.113c-.011.006-.021,0-.021-.016V246.8a.053.053,0,0,1,.021-.04l.2-.113c.012-.006.021,0,.021.016v.531A.05.05,0,0,1,214.931,247.238Z" transform="translate(-214.42 -245.793)"/><path class="h" d="M215.3,247.027l-.2.114c-.012.006-.021,0-.021-.016v-.531a.048.048,0,0,1,.021-.04l.2-.113c.011-.007.021,0,.021.015v.532A.05.05,0,0,1,215.3,247.027Z" transform="translate(-214.491 -245.752)"/></g><g transform="translate(0 2.673)"><g transform="translate(0 0.121)"><path class="h" d="M214.6,249.681l-.242-.147c-.009-.006-.009-.027,0-.044l.242-.426c.011-.02.028-.018.028,0v.574C214.627,249.666,214.61,249.688,214.6,249.681Z" transform="translate(-214.35 -249.051)"/></g><g transform="translate(0.098)"><path class="h" d="M214.52,249.385l.318-.183v.151l-.318.183c-.027.016-.049-.006-.049-.047A.128.128,0,0,1,214.52,249.385Z" transform="translate(-214.471 -248.959)"/><path class="h" d="M215,249.144l.108-.063v.151L215,249.3Z" transform="translate(-214.573 -248.936)"/><path class="h" d="M215.44,248.953v.556a.129.129,0,0,1-.048.1c-.027.015-.049,0-.049-.048v-.48l-.135.077v-.151l.184-.107C215.419,248.89,215.44,248.911,215.44,248.953Z" transform="translate(-214.613 -248.901)"/></g></g><g transform="translate(0 4.614)"><path class="h" d="M214.692,251.363a1.053,1.053,0,0,0-.335.9c.04.29.211.278.23.412,0,.015.011.02.022.014l.215-.122a.054.054,0,0,0,.022-.04,2.552,2.552,0,0,0,.244-.822C215.091,251.375,214.91,251.213,214.692,251.363Z" transform="translate(-214.35 -251.307)"/><path class="h" d="M214.877,253.236l-.207.119c-.015.009-.026,0-.026-.019v-.191a.063.063,0,0,1,.026-.049l.207-.119c.015-.008.026,0,.026.019v.191A.061.061,0,0,1,214.877,253.236Z" transform="translate(-214.407 -251.629)"/></g><path class="h" d="M214.742,245.792a1.259,1.259,0,0,0-.376.8.829.829,0,0,0,.055.435l-.07.363c-.006.03.01.045.028.027l.209-.228a.327.327,0,0,0,.3-.09,1.264,1.264,0,0,0,.377-.8C215.318,245.79,215.054,245.536,214.742,245.792Zm.075,1.189c-.192.111-.349-.04-.349-.336a.923.923,0,0,1,.349-.739c.193-.111.349.04.349.336A.922.922,0,0,1,214.817,246.981Z" transform="translate(-214.35 -245.608)"/><path class="h" d="M214.742,254.468a1.259,1.259,0,0,0-.376.8.829.829,0,0,0,.055.435l-.07.363c-.006.03.01.046.028.027l.209-.228a.325.325,0,0,0,.3-.09,1.264,1.264,0,0,0,.377-.8C215.318,254.467,215.054,254.212,214.742,254.468Zm.075,1.189c-.192.111-.349-.04-.349-.336a.924.924,0,0,1,.349-.739c.193-.111.349.04.349.336A.921.921,0,0,1,214.817,255.657Z" transform="translate(-214.35 -247.284)"/><g transform="translate(0 9.553)"><path class="h" d="M215.114,257.624a.485.485,0,0,1-.184.39c-.1.059-.185-.02-.185-.177a.483.483,0,0,1,.185-.39C215.031,257.388,215.114,257.467,215.114,257.624Z" transform="translate(-214.426 -257.428)"/><path class="h" d="M215.535,257.709a.322.322,0,0,1-.123.26c-.068.04-.123-.014-.123-.118a.325.325,0,0,1,.123-.26C215.48,257.552,215.535,257.6,215.535,257.709Z" transform="translate(-214.532 -257.457)"/><path class="h" d="M215.139,258.891l-.435.251v-.55a.376.376,0,0,1,.157-.3l.12-.069c.087-.05.157,0,.157.119Z" transform="translate(-214.418 -257.577)"/><path class="h" d="M215.437,258.138l-.12.069v.634l.226-.131v-.493C215.543,258.14,215.5,258.1,215.437,258.138Z" transform="translate(-214.537 -257.563)"/><path class="h" d="M214.353,258.392c0,.1.055.157.123.118a.325.325,0,0,0,.123-.26c0-.1-.055-.157-.123-.118A.322.322,0,0,0,214.353,258.392Z" transform="translate(-214.351 -257.561)"/><path class="h" d="M214.456,258.693l.12-.069v.634l-.226.131V258.9A.256.256,0,0,1,214.456,258.693Z" transform="translate(-214.35 -257.659)"/></g></g><g transform="translate(1.878)"><path class="b" d="M216.927,244.481l5.123-2.957c.138-.08.249-.023.249.126a.533.533,0,0,1-.249.415l-5.123,2.958c-.138.08-.25.023-.25-.127A.536.536,0,0,1,216.927,244.481Z" transform="translate(-216.677 -241.487)"/><path class="b" d="M216.927,247.47l5.123-2.958c.138-.079.249-.023.249.127a.536.536,0,0,1-.249.415l-5.123,2.957c-.138.08-.25.023-.25-.126A.534.534,0,0,1,216.927,247.47Z" transform="translate(-216.677 -242.064)"/><path class="b" d="M216.927,250.458l5.123-2.957c.138-.08.249-.023.249.126a.536.536,0,0,1-.249.415L216.927,251c-.138.079-.25.023-.25-.127A.536.536,0,0,1,216.927,250.458Z" transform="translate(-216.677 -242.641)"/><path class="b" d="M216.927,253.446l5.123-2.957c.138-.08.249-.023.249.127a.533.533,0,0,1-.249.414l-5.123,2.958c-.138.08-.25.023-.25-.127A.536.536,0,0,1,216.927,253.446Z" transform="translate(-216.677 -243.218)"/><path class="b" d="M216.927,256.435l5.123-2.958c.138-.079.249-.023.249.127a.536.536,0,0,1-.249.415l-5.123,2.957c-.138.08-.25.023-.25-.126A.536.536,0,0,1,216.927,256.435Z" transform="translate(-216.677 -243.795)"/><path class="h" d="M218.088,258.875l5.123-2.958c.138-.079.25-.023.25.127a.537.537,0,0,1-.25.415l-5.123,2.957c-.138.08-.249.023-.249-.126A.536.536,0,0,1,218.088,258.875Z" transform="translate(-216.901 -244.266)"/><path class="b" d="M218.088,260.893l5.123-2.958c.138-.08.25-.023.25.127a.536.536,0,0,1-.25.415l-5.123,2.957c-.138.08-.249.023-.249-.126A.533.533,0,0,1,218.088,260.893Z" transform="translate(-216.901 -244.656)"/><path class="b" d="M218.088,262.912l5.123-2.957c.138-.08.25-.023.25.126a.534.534,0,0,1-.25.415l-5.123,2.958c-.138.08-.249.023-.249-.127A.536.536,0,0,1,218.088,262.912Z" transform="translate(-216.901 -245.046)"/><path class="b" d="M219.324,264.195l5.123-2.957c.138-.08.249-.023.249.127a.536.536,0,0,1-.249.415l-5.123,2.957c-.138.08-.25.023-.25-.127A.536.536,0,0,1,219.324,264.195Z" transform="translate(-217.14 -245.294)"/><g transform="translate(0.938 19.238)"><path class="h" d="M217.888,266.393l.416-.733c.015-.028.015-.065,0-.075l-.416-.253c-.02-.012-.049.027-.049.065v.988C217.839,266.424,217.868,266.429,217.888,266.393Z" transform="translate(-217.839 -265.329)"/></g><path class="b" d="M219.324,266.207l5.123-2.957c.138-.08.249-.023.249.126a.536.536,0,0,1-.249.415l-5.123,2.958c-.138.079-.25.023-.25-.127A.537.537,0,0,1,219.324,266.207Z" transform="translate(-217.14 -245.682)"/><g transform="translate(0.938 20.861)"><path class="h" d="M217.888,268.405l.416-.734c.015-.027.015-.065,0-.074l-.416-.253c-.02-.013-.049.027-.049.065v.988C217.839,268.435,217.868,268.441,217.888,268.405Z" transform="translate(-217.839 -267.341)"/></g><path class="b" d="M219.324,268.219l5.123-2.958c.138-.079.249-.023.249.127a.536.536,0,0,1-.249.415l-5.123,2.957c-.138.08-.25.023-.25-.126A.535.535,0,0,1,219.324,268.219Z" transform="translate(-217.14 -246.071)"/><g transform="translate(0.938 22.484)"><path class="h" d="M217.888,270.417l.416-.734c.015-.028.015-.065,0-.074l-.416-.254c-.02-.012-.049.027-.049.066v.988C217.839,270.447,217.868,270.453,217.888,270.417Z" transform="translate(-217.839 -269.352)"/></g><path class="b" d="M219.324,270.23l5.123-2.957c.138-.08.249-.023.249.127a.536.536,0,0,1-.249.415l-5.123,2.957c-.138.08-.25.023-.25-.127A.536.536,0,0,1,219.324,270.23Z" transform="translate(-217.14 -246.459)"/><g transform="translate(0.938 24.108)"><path class="h" d="M217.888,272.428l.416-.733c.015-.028.015-.065,0-.075l-.416-.253c-.02-.012-.049.027-.049.065v.988C217.839,272.459,217.868,272.464,217.888,272.428Z" transform="translate(-217.839 -271.364)"/></g><path class="b" d="M219.324,272.242l5.123-2.957c.138-.08.249-.023.249.126a.536.536,0,0,1-.249.415l-5.123,2.958c-.138.079-.25.023-.25-.127A.537.537,0,0,1,219.324,272.242Z" transform="translate(-217.14 -246.848)"/><g transform="translate(0.938 25.731)"><path class="h" d="M217.888,274.44l.416-.734c.015-.027.015-.065,0-.074l-.416-.253c-.02-.013-.049.027-.049.065v.988C217.839,274.47,217.868,274.476,217.888,274.44Z" transform="translate(-217.839 -273.376)"/></g><path class="b" d="M219.324,274.254l5.123-2.958c.138-.079.249-.023.249.127a.536.536,0,0,1-.249.415l-5.123,2.957c-.138.08-.25.023-.25-.126A.535.535,0,0,1,219.324,274.254Z" transform="translate(-217.14 -247.236)"/><g transform="translate(0.938 27.354)"><path class="h" d="M217.888,276.452l.416-.734c.015-.028.015-.065,0-.074l-.416-.254c-.02-.012-.049.027-.049.066v.988C217.839,276.482,217.868,276.488,217.888,276.452Z" transform="translate(-217.839 -275.387)"/></g><path class="b" d="M219.324,276.265l5.123-2.957c.138-.08.249-.023.249.127a.533.533,0,0,1-.249.414l-5.123,2.958c-.138.08-.25.023-.25-.127A.537.537,0,0,1,219.324,276.265Z" transform="translate(-217.14 -247.625)"/><g transform="translate(0.938 28.977)"><path class="h" d="M217.888,278.463l.416-.733c.015-.028.015-.065,0-.075l-.416-.253c-.02-.012-.049.027-.049.065v.988C217.839,278.494,217.868,278.5,217.888,278.463Z" transform="translate(-217.839 -277.399)"/></g><path class="b" d="M219.324,278.277l5.123-2.957c.138-.08.249-.023.249.126a.536.536,0,0,1-.249.415l-5.123,2.958c-.138.079-.25.023-.25-.127A.536.536,0,0,1,219.324,278.277Z" transform="translate(-217.14 -248.013)"/><g transform="translate(0.938 30.601)"><path class="h" d="M217.888,280.475l.416-.734c.015-.027.015-.065,0-.074l-.416-.253c-.02-.013-.049.027-.049.065v.988C217.839,280.505,217.868,280.511,217.888,280.475Z" transform="translate(-217.839 -279.411)"/></g></g></g><g transform="translate(15.588 1.978)"><g transform="translate(0 10.55)"><path class="a" d="M232.024,233.3l16.838-9.721a.552.552,0,0,0,.249-.432v-4.293c0-.159-.111-.224-.249-.144l-16.838,9.719a.553.553,0,0,0-.25.433v4.294C231.774,233.314,231.886,233.378,232.024,233.3Z" transform="translate(-231.774 -218.675)"/><g transform="translate(1.093 9.2)"><g transform="translate(0.57 1.311)"><path class="h" d="M233.89,232.888l0-.01.111-.461-.153.088a.007.007,0,0,1-.01,0,.017.017,0,0,1,0-.012v-.084a.043.043,0,0,1,0-.017.026.026,0,0,1,.01-.012l.245-.141a.008.008,0,0,1,.01,0,.018.018,0,0,1,0,.013v.073a.221.221,0,0,1-.009.045l-.111.462-.006.016a.027.027,0,0,1-.01.011l-.072.041a.006.006,0,0,1-.008,0A.013.013,0,0,1,233.89,232.888Z" transform="translate(-233.836 -231.805)"/><path class="h" d="M234.374,232.077a.125.125,0,0,1,.065-.021.067.067,0,0,1,.046.02.124.124,0,0,1,.027.052.41.41,0,0,1,.01.076c0,.022,0,.045,0,.07s0,.048,0,.07a.643.643,0,0,1-.01.087.409.409,0,0,1-.027.084.33.33,0,0,1-.046.073.252.252,0,0,1-.065.055.123.123,0,0,1-.067.021.064.064,0,0,1-.045-.02.119.119,0,0,1-.027-.052.41.41,0,0,1-.01-.075c0-.022,0-.044,0-.069s0-.048,0-.071a.668.668,0,0,1,.01-.088.425.425,0,0,1,.027-.084.333.333,0,0,1,.045-.073A.247.247,0,0,1,234.374,232.077Zm.054.318c0-.045,0-.09,0-.132a.221.221,0,0,0,0-.035.07.07,0,0,0-.01-.023.021.021,0,0,0-.016-.01.043.043,0,0,0-.025.007.1.1,0,0,0-.026.022.105.105,0,0,0-.017.029.209.209,0,0,0-.009.034.3.3,0,0,0,0,.039,1.211,1.211,0,0,0,0,.132.143.143,0,0,0,0,.034.057.057,0,0,0,.009.024.023.023,0,0,0,.017.01.049.049,0,0,0,.026-.008.081.081,0,0,0,.025-.022.131.131,0,0,0,.017-.029.15.15,0,0,0,.009-.034A.289.289,0,0,0,234.428,232.395Z" transform="translate(-233.911 -231.77)"/><path class="h" d="M234.809,231.92a.368.368,0,0,1,0,.06.234.234,0,0,1-.006.048.2.2,0,0,1-.015.044.161.161,0,0,1-.025.039.151.151,0,0,1-.035.029.078.078,0,0,1-.035.011.033.033,0,0,1-.025-.01.068.068,0,0,1-.015-.027.145.145,0,0,1-.006-.04v-.06a.225.225,0,0,1,.006-.047.2.2,0,0,1,.015-.044.146.146,0,0,1,.025-.038.121.121,0,0,1,.035-.029.075.075,0,0,1,.035-.011.033.033,0,0,1,.024.01.061.061,0,0,1,.015.027A.153.153,0,0,1,234.809,231.92Zm.128-.166.007-.015a.024.024,0,0,1,.011-.01L235,231.7a.01.01,0,0,1,.009,0,.012.012,0,0,1,0,.01v.01l-.253.658-.007.015a.029.029,0,0,1-.011.01l-.042.024a.007.007,0,0,1-.009,0s0,0,0-.01v0l0-.006Zm-.229.281a.083.083,0,0,0,0,.027c0,.006.009.006.016,0a.037.037,0,0,0,.015-.019.124.124,0,0,0,.006-.034c0-.018,0-.036,0-.052a.068.068,0,0,0-.006-.028s-.008-.006-.015,0a.035.035,0,0,0-.016.019.153.153,0,0,0,0,.034A.275.275,0,0,0,234.709,232.034Zm.339.024c0,.02,0,.04,0,.06a.235.235,0,0,1-.006.048.162.162,0,0,1-.015.044.139.139,0,0,1-.025.039.118.118,0,0,1-.035.028.069.069,0,0,1-.035.012.03.03,0,0,1-.024-.01.061.061,0,0,1-.015-.027.143.143,0,0,1-.006-.04l0-.028,0-.031a.218.218,0,0,1,.006-.047.191.191,0,0,1,.015-.044.145.145,0,0,1,.024-.038.119.119,0,0,1,.035-.029.069.069,0,0,1,.035-.011.033.033,0,0,1,.025.01.06.06,0,0,1,.015.027A.184.184,0,0,1,235.047,232.059Zm-.1.115a.061.061,0,0,0,.006.027c0,.006.008.006.015,0a.042.042,0,0,0,.016-.019.17.17,0,0,0,0-.034c0-.018,0-.036,0-.052a.088.088,0,0,0,0-.027s-.009-.006-.016,0a.031.031,0,0,0-.015.019.113.113,0,0,0-.006.033C234.945,232.139,234.945,232.156,234.946,232.173Z" transform="translate(-233.993 -231.701)"/></g><path class="h" d="M233.764,231.343l-.169-.261a3.4,3.4,0,0,0-.4,1.076l.274-.021A2.5,2.5,0,0,1,233.764,231.343Z" transform="translate(-233.142 -230.27)"/><path class="h" d="M234.337,230.661v-.442a1.918,1.918,0,0,0-.646.7l.169.261A1.413,1.413,0,0,1,234.337,230.661Z" transform="translate(-233.238 -230.104)"/><path class="h" d="M233.416,232.8a2.224,2.224,0,0,1,.04-.41l-.274.021a3.026,3.026,0,0,0-.053.554,2.12,2.12,0,0,0,.053.492l.274-.295A1.555,1.555,0,0,1,233.416,232.8Z" transform="translate(-233.129 -230.523)"/><path class="c" d="M235.286,230.757a.908.908,0,0,0-.4-.615.641.641,0,0,0-.646.049v.442a.47.47,0,0,1,.477-.035.666.666,0,0,1,.3.453,1.552,1.552,0,0,1,.04.363,2.212,2.212,0,0,1-.04.41,2.5,2.5,0,0,1-.3.795,1.412,1.412,0,0,1-.477.515.47.47,0,0,1-.477.036.666.666,0,0,1-.3-.453l-.274.295a.907.907,0,0,0,.4.615.638.638,0,0,0,.646-.049,1.92,1.92,0,0,0,.646-.7,3.394,3.394,0,0,0,.4-1.076,3.021,3.021,0,0,0,.054-.554A2.122,2.122,0,0,0,235.286,230.757Z" transform="translate(-233.142 -230.076)"/></g><path class="h" d="M237.83,228.7l5.123-2.958c.138-.079.25-.023.25.127a.537.537,0,0,1-.25.415l-5.123,2.957c-.138.08-.249.023-.249-.126A.536.536,0,0,1,237.83,228.7Z" transform="translate(-232.895 -220.033)"/><path class="b" d="M237.83,229.538l8.871-5.12c.138-.08.25-.023.25.126a.534.534,0,0,1-.25.415l-8.871,5.121c-.138.08-.249.023-.249-.127A.536.536,0,0,1,237.83,229.538Z" transform="translate(-232.895 -219.777)"/></g><g transform="translate(18.271)"><path class="a" d="M254.667,220.223,271.5,210.5a.552.552,0,0,0,.249-.432v-4.293c0-.159-.111-.224-.249-.144l-16.838,9.72a.55.55,0,0,0-.25.432v4.293C254.417,220.239,254.529,220.3,254.667,220.223Z" transform="translate(-254.417 -205.599)"/><g transform="translate(1.245 9.111)"><g transform="translate(0.556 1.302)"><path class="h" d="M256.649,219.409a.3.3,0,0,1,.013-.09.376.376,0,0,1,.033-.081.316.316,0,0,1,.048-.067.218.218,0,0,1,.056-.045.136.136,0,0,1,.056-.019.077.077,0,0,1,.048.011.088.088,0,0,1,.033.043.181.181,0,0,1,.013.074.381.381,0,0,1,0,.044c0,.015-.006.028-.009.041a.32.32,0,0,1-.012.04l-.014.037-.1.264-.006.013a.03.03,0,0,1-.01.012l-.082.047h-.007a.02.02,0,0,1,0-.01v-.007l0,0,.065-.18a.1.1,0,0,1-.048.007.073.073,0,0,1-.04-.017.106.106,0,0,1-.027-.042A.191.191,0,0,1,256.649,219.409Zm.2-.119a.079.079,0,0,0,0-.026.034.034,0,0,0-.012-.015.033.033,0,0,0-.018,0,.042.042,0,0,0-.021.006.1.1,0,0,0-.021.017.188.188,0,0,0-.018.024.165.165,0,0,0-.012.03.1.1,0,0,0,0,.031.063.063,0,0,0,0,.027.036.036,0,0,0,.012.015.027.027,0,0,0,.018,0,.042.042,0,0,0,.021-.006.1.1,0,0,0,.021-.017.151.151,0,0,0,.018-.025.156.156,0,0,0,.012-.029A.141.141,0,0,0,256.854,219.29Z" transform="translate(-256.649 -218.621)"/><path class="h" d="M257.224,218.88a.123.123,0,0,1,.065-.02.064.064,0,0,1,.046.02.119.119,0,0,1,.027.052.411.411,0,0,1,.01.075c0,.023,0,.046,0,.07s0,.048,0,.07a.67.67,0,0,1-.01.088.426.426,0,0,1-.027.084.326.326,0,0,1-.046.073.272.272,0,0,1-.065.056.13.13,0,0,1-.067.021.071.071,0,0,1-.045-.02.129.129,0,0,1-.027-.052.41.41,0,0,1-.01-.076c0-.021,0-.044,0-.069s0-.048,0-.072a.643.643,0,0,1,.01-.087.41.41,0,0,1,.027-.084.358.358,0,0,1,.045-.073A.279.279,0,0,1,257.224,218.88Zm.054.319c0-.045,0-.09,0-.132a.2.2,0,0,0,0-.034.07.07,0,0,0-.01-.023.02.02,0,0,0-.016-.01.045.045,0,0,0-.025.008.076.076,0,0,0-.026.022.105.105,0,0,0-.017.029.207.207,0,0,0-.009.034.288.288,0,0,0,0,.038,1.211,1.211,0,0,0,0,.132.144.144,0,0,0,0,.035.057.057,0,0,0,.009.023.023.023,0,0,0,.017.01.043.043,0,0,0,.026-.008.09.09,0,0,0,.025-.021.13.13,0,0,0,.017-.029.156.156,0,0,0,.009-.035A.276.276,0,0,0,257.278,219.2Z" transform="translate(-256.731 -218.573)"/><path class="h" d="M257.659,218.724a.361.361,0,0,1,0,.06.227.227,0,0,1-.006.047.221.221,0,0,1-.015.044.2.2,0,0,1-.025.039.13.13,0,0,1-.035.028.069.069,0,0,1-.035.011.033.033,0,0,1-.025-.01.06.06,0,0,1-.015-.027.147.147,0,0,1-.006-.04v-.06a.235.235,0,0,1,.006-.048.2.2,0,0,1,.015-.044.139.139,0,0,1,.025-.039.119.119,0,0,1,.035-.028.069.069,0,0,1,.035-.012.034.034,0,0,1,.024.01.061.061,0,0,1,.015.027A.148.148,0,0,1,257.659,218.724Zm.128-.167.007-.015a.036.036,0,0,1,.011-.01l.042-.024s.006,0,.009,0,0,0,0,.01v0l0,.006-.253.658-.007.015a.036.036,0,0,1-.011.01l-.042.024a.009.009,0,0,1-.009,0s0,0,0-.01v0l0-.006Zm-.229.282a.083.083,0,0,0,0,.027s.009.006.016,0a.034.034,0,0,0,.015-.019.112.112,0,0,0,.006-.033c0-.019,0-.036,0-.052a.064.064,0,0,0-.006-.027c0-.006-.008-.006-.015,0a.042.042,0,0,0-.016.019.17.17,0,0,0,0,.034A.289.289,0,0,0,257.559,218.838Zm.339.024c0,.02,0,.04,0,.06a.291.291,0,0,1-.006.047.177.177,0,0,1-.014.044.148.148,0,0,1-.025.038.122.122,0,0,1-.035.029.067.067,0,0,1-.035.011.032.032,0,0,1-.024-.01.054.054,0,0,1-.015-.027.152.152,0,0,1-.006-.04l0-.029,0-.031a.232.232,0,0,1,.006-.048.181.181,0,0,1,.015-.044.144.144,0,0,1,.024-.038.151.151,0,0,1,.035-.029.078.078,0,0,1,.035-.011.033.033,0,0,1,.025.01.069.069,0,0,1,.014.027A.181.181,0,0,1,257.9,218.862Zm-.1.114a.068.068,0,0,0,.006.028s.008.006.015,0a.032.032,0,0,0,.016-.019.155.155,0,0,0,0-.034c0-.018,0-.035,0-.052a.084.084,0,0,0,0-.027c0-.006-.008-.006-.016,0a.036.036,0,0,0-.015.019.123.123,0,0,0-.006.034C257.795,218.942,257.795,218.96,257.8,218.976Z" transform="translate(-256.813 -218.505)"/></g><path class="h" d="M257.168,217.475v-.442a1.92,1.92,0,0,0-.646.7l.169.261A1.419,1.419,0,0,1,257.168,217.475Z" transform="translate(-256.069 -216.918)"/><path class="c" d="M258.1,217.572a.905.905,0,0,0-.4-.616.642.642,0,0,0-.646.049v.442a.472.472,0,0,1,.477-.035.666.666,0,0,1,.3.453,1.556,1.556,0,0,1,.04.364,2.209,2.209,0,0,1-.04.409,2.492,2.492,0,0,1-.3.794,1.418,1.418,0,0,1-.477.516.474.474,0,0,1-.477.035.67.67,0,0,1-.3-.454,1.547,1.547,0,0,1-.04-.363,2.21,2.21,0,0,1,.04-.409,2.5,2.5,0,0,1,.3-.8l-.169-.261a3.406,3.406,0,0,0-.4,1.077,3.013,3.013,0,0,0-.054.554,2.112,2.112,0,0,0,.054.492.908.908,0,0,0,.4.616.641.641,0,0,0,.646-.05,1.905,1.905,0,0,0,.646-.7h0a3.376,3.376,0,0,0,.4-1.076,3.014,3.014,0,0,0,.054-.554A2.11,2.11,0,0,0,258.1,217.572Z" transform="translate(-255.96 -216.891)"/></g><path class="h" d="M260.656,215.519l5.123-2.957c.138-.08.25-.023.25.126a.535.535,0,0,1-.25.415l-5.123,2.958c-.138.079-.249.023-.249-.127A.538.538,0,0,1,260.656,215.519Z" transform="translate(-255.574 -206.937)"/><path class="b" d="M260.656,216.353l8.871-5.121c.138-.079.25-.023.25.127a.536.536,0,0,1-.25.415l-8.871,5.12c-.138.08-.249.023-.249-.126A.536.536,0,0,1,260.656,216.353Z" transform="translate(-255.574 -206.68)"/></g></g><g transform="translate(15.588 10.093)"><path class="h" d="M234.15,237.751l3.593-2.08c.138-.08.249-.023.249.126a.534.534,0,0,1-.249.415l-3.594,2.081c-.137.08-.249.023-.249-.127A.536.536,0,0,1,234.15,237.751Z" transform="translate(-232.185 -219.514)"/><path class="b" d="M267.257,215.885h0m-.106.061V243.39a.329.329,0,0,1-.135.233L232,263.836V236.392a.325.325,0,0,1,.135-.232l.437-.253a.785.785,0,0,0,.366-.633v-1.587a.329.329,0,0,1,.134-.233l5.027-2.9v1.475a.376.376,0,0,0,.369.409.448.448,0,0,0,.227-.065l28.453-16.426m-28.943,14.546h0m29.035-14.836a.234.234,0,0,0-.111.034l-28.549,16.483a.233.233,0,0,1-.111.034c-.082,0-.139-.065-.139-.178v-1.587c0-.113-.056-.178-.138-.178a.234.234,0,0,0-.111.034l-5.123,2.958a.55.55,0,0,0-.249.433v1.587a.553.553,0,0,1-.25.432l-.437.253a.553.553,0,0,0-.25.432v27.556c0,.113.056.178.138.178a.225.225,0,0,0,.111-.034l35.108-20.27a.553.553,0,0,0,.25-.432V215.834c0-.113-.056-.178-.139-.178Z" transform="translate(-231.774 -215.656)"/><g transform="translate(2.004 18.408)"><path class="b" d="M234.511,242a.235.235,0,0,1-.122-.032.289.289,0,0,1-.132-.261v-1.047a.671.671,0,0,1,.307-.532l2.785-1.606a.265.265,0,0,1,.423.244v1.046a.669.669,0,0,1-.307.533l-2.785,1.606A.345.345,0,0,1,234.511,242Zm.169-1.673a.44.44,0,0,0-.192.332V241.7a.087.087,0,0,0,.016.062.09.09,0,0,0,.061-.018l2.785-1.606a.436.436,0,0,0,.192-.332v-1.046a.089.089,0,0,0-.015-.062s-.027,0-.061.018Z" transform="translate(-234.258 -238.469)"/><path class="b" d="M234.947,241.043l1.815-1.053c.092-.053.166-.015.166.085a.357.357,0,0,1-.166.276l-1.815,1.053c-.092.053-.166.015-.166-.084A.357.357,0,0,1,234.947,241.043Z" transform="translate(-234.359 -238.758)"/><g transform="translate(2.822 0.842)"><path class="h" d="M237.758,239.73l.151.214c.006.008.017,0,.023-.013l.15-.387c.007-.019,0-.036-.011-.029l-.3.173A.037.037,0,0,0,237.758,239.73Z" transform="translate(-237.755 -239.513)"/></g></g><g transform="translate(1.634 12.563)"><g transform="translate(0 19.476)"><path class="c" d="M234.039,255.4c.133-.077.24-.015.24.139a.532.532,0,0,1-.24.417c-.133.077-.24.015-.24-.139A.531.531,0,0,1,234.039,255.4Z" transform="translate(-233.799 -255.363)"/></g><g transform="translate(1.874 17.312)"><path class="c" d="M236.362,252.714c.132-.077.24-.015.24.139a.534.534,0,0,1-.24.417c-.133.077-.241.015-.241-.139A.531.531,0,0,1,236.362,252.714Z" transform="translate(-236.121 -252.681)"/></g><g transform="translate(3.748 16.23)"><path class="c" d="M238.684,251.373c.133-.077.241-.015.241.139a.533.533,0,0,1-.241.417c-.133.077-.24.014-.24-.139A.531.531,0,0,1,238.684,251.373Z" transform="translate(-238.444 -251.34)"/></g><g transform="translate(5.622 15.624)"><path class="c" d="M241.007,250.621c.133-.077.24-.015.24.139a.532.532,0,0,1-.24.417c-.133.077-.241.015-.241-.139A.531.531,0,0,1,241.007,250.621Z" transform="translate(-240.766 -250.588)"/></g><g transform="translate(7.498 13.675)"><path class="c" d="M243.332,248.206c.133-.077.24-.015.24.139a.531.531,0,0,1-.24.417c-.133.077-.24.015-.24-.139A.532.532,0,0,1,243.332,248.206Z" transform="translate(-243.092 -248.173)"/></g><g transform="translate(9.371 12.984)"><path class="c" d="M245.652,247.35c.133-.077.24-.015.24.139a.532.532,0,0,1-.24.417c-.133.077-.24.015-.24-.139A.531.531,0,0,1,245.652,247.35Z" transform="translate(-245.412 -247.317)"/></g><g transform="translate(11.244 10.82)"><path class="c" d="M247.974,244.668c.133-.077.241-.014.241.139a.533.533,0,0,1-.241.417c-.133.077-.24.015-.24-.139A.531.531,0,0,1,247.974,244.668Z" transform="translate(-247.734 -244.635)"/></g><g transform="translate(13.119 10.279)"><path class="c" d="M250.3,244c.133-.077.241-.015.241.139a.533.533,0,0,1-.241.417c-.133.077-.24.015-.24-.14A.53.53,0,0,1,250.3,244Z" transform="translate(-250.057 -243.965)"/></g><g transform="translate(14.992 4.328)"><path class="c" d="M252.62,236.622c.133-.077.24-.015.24.14a.53.53,0,0,1-.24.416c-.133.077-.241.015-.241-.139A.533.533,0,0,1,252.62,236.622Z" transform="translate(-252.379 -236.589)"/></g><g transform="translate(16.867 7.574)"><path class="c" d="M254.942,240.645c.133-.077.241-.015.241.139a.531.531,0,0,1-.241.417c-.132.077-.24.015-.24-.139A.534.534,0,0,1,254.942,240.645Z" transform="translate(-254.702 -240.612)"/></g><g transform="translate(18.741 7.574)"><path class="c" d="M257.265,240.645c.133-.077.24-.015.24.139a.531.531,0,0,1-.24.417c-.133.077-.24.015-.24-.139A.532.532,0,0,1,257.265,240.645Z" transform="translate(-257.025 -240.612)"/></g><g transform="translate(20.615 7.574)"><path class="c" d="M259.587,240.645c.133-.077.241-.015.241.139a.533.533,0,0,1-.24.417c-.133.077-.241.015-.241-.139A.534.534,0,0,1,259.587,240.645Z" transform="translate(-259.347 -240.612)"/></g><g transform="translate(22.489 4.328)"><path class="c" d="M261.91,236.622c.133-.077.24-.015.24.14a.533.533,0,0,1-.24.417c-.133.077-.24.014-.24-.14A.533.533,0,0,1,261.91,236.622Z" transform="translate(-261.67 -236.589)"/></g><g transform="translate(24.363 3.706)"><path class="c" d="M264.233,235.852c.132-.077.24-.015.24.139a.534.534,0,0,1-.24.417c-.133.077-.241.015-.241-.139A.532.532,0,0,1,264.233,235.852Z" transform="translate(-263.992 -235.819)"/></g><g transform="translate(26.244 1.082)"><path class="c" d="M266.563,232.6c.133-.077.241-.015.241.14a.534.534,0,0,1-.241.417c-.132.077-.24.015-.24-.14A.535.535,0,0,1,266.563,232.6Z" transform="translate(-266.323 -232.566)"/></g><g transform="translate(28.011 1)"><ellipse class="c" cx="0.341" cy="0.197" rx="0.341" ry="0.197" transform="translate(0 0.59) rotate(-60.003)"/></g><g transform="translate(29.885 1)"><ellipse class="c" cx="0.341" cy="0.197" rx="0.341" ry="0.197" transform="translate(0 0.59) rotate(-60.003)"/></g><g transform="translate(31.86)"><path class="c" d="M273.523,231.259c.133-.077.241-.015.241.139a.533.533,0,0,1-.241.417c-.133.077-.24.015-.24-.14A.53.53,0,0,1,273.523,231.259Z" transform="translate(-273.283 -231.226)"/></g><g transform="translate(0.178 0.253)"><path class="c" d="M234.077,251.134a.059.059,0,0,1-.038-.014.058.058,0,0,1-.006-.081l1.892-2.175a.053.053,0,0,1,.015-.012l1.861-1.074,1.871-.608,1.865-1.938a.055.055,0,0,1,.021-.015l1.861-.685,1.865-2.153a.056.056,0,0,1,.027-.018l1.844-.533,1.866-5.921a.057.057,0,0,1,.048-.04.061.061,0,0,1,.056.028l1.857,3.217,1.845,0,1.837,0,1.857-3.217a.062.062,0,0,1,.031-.026l1.857-.616,1.863-2.609a.059.059,0,0,1,.047-.023h3.733l1.861-1.075a.058.058,0,0,1,.057.1l-1.874,1.082a.06.06,0,0,1-.029.008h-3.718l-1.857,2.6a.063.063,0,0,1-.029.021l-1.853.615-1.863,3.227a.055.055,0,0,1-.05.029h0l-1.87,0-1.878,0h0a.057.057,0,0,1-.05-.029l-1.808-3.132-1.835,5.827a.059.059,0,0,1-.039.038l-1.857.536-1.863,2.151a.053.053,0,0,1-.023.017l-1.862.686-1.865,1.939a.055.055,0,0,1-.023.015l-1.874.607-1.841,1.064-1.886,2.168A.058.058,0,0,1,234.077,251.134Z" transform="translate(-234.019 -231.539)"/></g></g><g transform="translate(1.634 11.481)"><path class="b" d="M234.069,252.775a.115.115,0,0,1-.058-.215l31.86-18.394a.116.116,0,0,1,.115.2l-31.86,18.394A.113.113,0,0,1,234.069,252.775Z" transform="translate(-233.829 -230.708)"/><g transform="translate(0 19.476)"><path class="c" d="M234.039,254.055c.133-.077.24-.015.24.139a.532.532,0,0,1-.24.417c-.133.077-.24.015-.24-.139A.531.531,0,0,1,234.039,254.055Z" transform="translate(-233.799 -254.022)"/></g><g transform="translate(1.874 16.23)"><path class="c" d="M236.362,250.032c.132-.077.24-.015.24.139a.534.534,0,0,1-.24.417c-.133.077-.241.015-.241-.139A.531.531,0,0,1,236.362,250.032Z" transform="translate(-236.121 -249.999)"/></g><g transform="translate(3.648 15.743)"><ellipse class="c" cx="0.341" cy="0.197" rx="0.341" ry="0.197" transform="translate(0 0.59) rotate(-60.003)"/></g><g transform="translate(5.622 11.902)"><path class="c" d="M241.007,244.668c.133-.077.24-.014.24.139a.532.532,0,0,1-.24.417c-.133.077-.241.015-.241-.139A.531.531,0,0,1,241.007,244.668Z" transform="translate(-240.766 -244.635)"/></g><g transform="translate(7.498 12.984)"><path class="c" d="M243.332,246.009c.133-.077.24-.015.24.139a.531.531,0,0,1-.24.417c-.133.077-.24.015-.24-.139A.532.532,0,0,1,243.332,246.009Z" transform="translate(-243.092 -245.976)"/></g><g transform="translate(9.371 12.443)"><path class="c" d="M245.652,245.339c.133-.077.241-.015.241.139a.533.533,0,0,1-.241.417c-.132.077-.24.015-.24-.14A.533.533,0,0,1,245.652,245.339Z" transform="translate(-245.412 -245.306)"/></g><g transform="translate(11.244 10.82)"><path class="c" d="M247.974,243.327c.133-.077.241-.015.241.139a.531.531,0,0,1-.241.417c-.133.077-.24.015-.24-.139A.532.532,0,0,1,247.974,243.327Z" transform="translate(-247.734 -243.294)"/></g><g transform="translate(13.119 8.656)"><path class="c" d="M250.3,240.645c.133-.077.24-.015.24.139a.531.531,0,0,1-.24.417c-.133.077-.24.015-.24-.139A.532.532,0,0,1,250.3,240.645Z" transform="translate(-250.057 -240.612)"/></g><g transform="translate(14.992 8.115)"><path class="c" d="M252.62,239.975c.133-.077.24-.015.24.139a.532.532,0,0,1-.24.417c-.133.077-.241.015-.241-.139A.531.531,0,0,1,252.62,239.975Z" transform="translate(-252.379 -239.942)"/></g><g transform="translate(16.867 6.492)"><path class="c" d="M254.942,237.963c.133-.077.241-.015.241.14a.531.531,0,0,1-.241.416c-.133.077-.24.015-.24-.139A.532.532,0,0,1,254.942,237.963Z" transform="translate(-254.702 -237.93)"/></g><g transform="translate(18.74 6.492)"><path class="c" d="M257.265,237.963c.133-.077.24-.015.24.14a.53.53,0,0,1-.24.416c-.133.077-.241.015-.241-.139A.533.533,0,0,1,257.265,237.963Z" transform="translate(-257.024 -237.93)"/></g><g transform="translate(20.615 2.164)"><path class="c" d="M259.587,232.6c.133-.077.241-.015.241.14a.533.533,0,0,1-.241.417c-.132.077-.24.015-.24-.14A.535.535,0,0,1,259.587,232.6Z" transform="translate(-259.347 -232.566)"/></g><g transform="translate(22.489 4.312)"><path class="c" d="M261.91,235.262c.133-.077.241-.015.241.14a.531.531,0,0,1-.241.416c-.133.077-.24.015-.24-.139A.532.532,0,0,1,261.91,235.262Z" transform="translate(-261.67 -235.229)"/></g><g transform="translate(24.363 2.164)"><path class="c" d="M264.233,232.6c.132-.077.24-.015.24.14a.534.534,0,0,1-.24.417c-.133.077-.241.015-.241-.14A.534.534,0,0,1,264.233,232.6Z" transform="translate(-263.992 -232.566)"/></g><g transform="translate(26.237 1.082)"><path class="c" d="M266.555,231.259c.133-.077.241-.015.241.139a.533.533,0,0,1-.241.417c-.133.077-.24.015-.24-.14A.53.53,0,0,1,266.555,231.259Z" transform="translate(-266.315 -231.226)"/></g><g transform="translate(28.111 1.082)"><path class="c" d="M268.878,231.258c.133-.077.24-.015.24.14a.533.533,0,0,1-.24.417c-.133.077-.241.015-.241-.14A.534.534,0,0,1,268.878,231.258Z" transform="translate(-268.637 -231.225)"/></g><g transform="translate(29.985)"><path class="c" d="M271.2,229.918c.133-.077.241-.015.241.139a.533.533,0,0,1-.241.417c-.132.077-.24.015-.24-.14A.533.533,0,0,1,271.2,229.918Z" transform="translate(-270.96 -229.885)"/></g><g transform="translate(31.86)"><path class="c" d="M273.523,229.918c.133-.077.241-.015.241.139a.533.533,0,0,1-.241.417c-.133.077-.24.015-.24-.14A.53.53,0,0,1,273.523,229.918Z" transform="translate(-273.283 -229.885)"/></g><g transform="translate(0.183 0.253)"><path class="c" d="M234.083,249.79a.056.056,0,0,1-.029-.008.058.058,0,0,1-.021-.078l1.887-3.254a.062.062,0,0,1,.038-.027l1.833-.391,1.862-3.9a.059.059,0,0,1,.035-.031.057.057,0,0,1,.046.006l1.855,1.071,1.837-.532,1.862-1.614,1.87-2.159a.062.062,0,0,1,.027-.018l1.862-.537,1.864-1.615a.062.062,0,0,1,.038-.015h1.837l1.859-4.293a.058.058,0,0,1,.044-.035.06.06,0,0,1,.052.019l1.83,2.114,1.83-2.114a.073.073,0,0,1,.015-.012l1.881-1.086a.057.057,0,0,1,.028-.007h1.859l1.854-1.071a.059.059,0,0,1,.028-.007h1.874a.058.058,0,1,1,0,.115h-1.858l-1.854,1.07a.063.063,0,0,1-.029.008h-1.858l-1.859,1.073-1.868,2.157a.06.06,0,0,1-.087,0l-1.814-2.095-1.837,4.243a.059.059,0,0,1-.053.035h-1.853l-1.857,1.609a.058.058,0,0,1-.022.012l-1.858.537-1.866,2.152-1.877,1.628a.058.058,0,0,1-.022.012l-1.872.542a.059.059,0,0,1-.045-.006l-1.822-1.052-1.847,3.867a.057.057,0,0,1-.04.031l-1.836.392-1.874,3.232A.057.057,0,0,1,234.083,249.79Z" transform="translate(-234.026 -230.199)"/></g><g class="r"><g transform="translate(0 19.476)"><path d="M234.039,254.055c.133-.077.24-.015.24.139a.532.532,0,0,1-.24.417c-.133.077-.24.015-.24-.139A.531.531,0,0,1,234.039,254.055Z" transform="translate(-233.799 -254.022)"/></g><g transform="translate(1.874 16.23)"><path d="M236.362,250.032c.132-.077.24-.015.24.139a.534.534,0,0,1-.24.417c-.133.077-.241.015-.241-.139A.531.531,0,0,1,236.362,250.032Z" transform="translate(-236.121 -249.999)"/></g><g transform="translate(3.648 15.743)"><ellipse cx="0.341" cy="0.197" rx="0.341" ry="0.197" transform="translate(0 0.59) rotate(-60.003)"/></g><g transform="translate(5.622 11.902)"><path d="M241.007,244.668c.133-.077.24-.014.24.139a.532.532,0,0,1-.24.417c-.133.077-.241.015-.241-.139A.531.531,0,0,1,241.007,244.668Z" transform="translate(-240.766 -244.635)"/></g><g transform="translate(7.498 12.984)"><path d="M243.332,246.009c.133-.077.24-.015.24.139a.531.531,0,0,1-.24.417c-.133.077-.24.015-.24-.139A.532.532,0,0,1,243.332,246.009Z" transform="translate(-243.092 -245.976)"/></g><g transform="translate(9.371 12.443)"><path d="M245.652,245.339c.133-.077.241-.015.241.139a.533.533,0,0,1-.241.417c-.132.077-.24.015-.24-.14A.533.533,0,0,1,245.652,245.339Z" transform="translate(-245.412 -245.306)"/></g><g transform="translate(11.244 10.82)"><path d="M247.974,243.327c.133-.077.241-.015.241.139a.531.531,0,0,1-.241.417c-.133.077-.24.015-.24-.139A.532.532,0,0,1,247.974,243.327Z" transform="translate(-247.734 -243.294)"/></g><g transform="translate(13.119 8.656)"><path d="M250.3,240.645c.133-.077.24-.015.24.139a.531.531,0,0,1-.24.417c-.133.077-.24.015-.24-.139A.532.532,0,0,1,250.3,240.645Z" transform="translate(-250.057 -240.612)"/></g><g transform="translate(14.992 8.115)"><path d="M252.62,239.975c.133-.077.24-.015.24.139a.532.532,0,0,1-.24.417c-.133.077-.241.015-.241-.139A.531.531,0,0,1,252.62,239.975Z" transform="translate(-252.379 -239.942)"/></g><g transform="translate(16.867 6.492)"><path d="M254.942,237.963c.133-.077.241-.015.241.14a.531.531,0,0,1-.241.416c-.133.077-.24.015-.24-.139A.532.532,0,0,1,254.942,237.963Z" transform="translate(-254.702 -237.93)"/></g><g transform="translate(18.74 6.492)"><path d="M257.265,237.963c.133-.077.24-.015.24.14a.53.53,0,0,1-.24.416c-.133.077-.241.015-.241-.139A.533.533,0,0,1,257.265,237.963Z" transform="translate(-257.024 -237.93)"/></g><g transform="translate(20.615 2.164)"><path d="M259.587,232.6c.133-.077.241-.015.241.14a.533.533,0,0,1-.241.417c-.132.077-.24.015-.24-.14A.535.535,0,0,1,259.587,232.6Z" transform="translate(-259.347 -232.566)"/></g><g transform="translate(22.489 4.312)"><path d="M261.91,235.262c.133-.077.241-.015.241.14a.531.531,0,0,1-.241.416c-.133.077-.24.015-.24-.139A.532.532,0,0,1,261.91,235.262Z" transform="translate(-261.67 -235.229)"/></g><g transform="translate(24.363 2.164)"><path d="M264.233,232.6c.132-.077.24-.015.24.14a.534.534,0,0,1-.24.417c-.133.077-.241.015-.241-.14A.534.534,0,0,1,264.233,232.6Z" transform="translate(-263.992 -232.566)"/></g><g transform="translate(26.237 1.082)"><path d="M266.555,231.259c.133-.077.241-.015.241.139a.533.533,0,0,1-.241.417c-.133.077-.24.015-.24-.14A.53.53,0,0,1,266.555,231.259Z" transform="translate(-266.315 -231.226)"/></g><g transform="translate(28.111 1.082)"><path d="M268.878,231.258c.133-.077.24-.015.24.14a.533.533,0,0,1-.24.417c-.133.077-.241.015-.241-.14A.534.534,0,0,1,268.878,231.258Z" transform="translate(-268.637 -231.225)"/></g><g transform="translate(29.985)"><path d="M271.2,229.918c.133-.077.241-.015.241.139a.533.533,0,0,1-.241.417c-.132.077-.24.015-.24-.14A.533.533,0,0,1,271.2,229.918Z" transform="translate(-270.96 -229.885)"/></g><g transform="translate(31.86)"><path d="M273.523,229.918c.133-.077.241-.015.241.139a.533.533,0,0,1-.241.417c-.133.077-.24.015-.24-.14A.53.53,0,0,1,273.523,229.918Z" transform="translate(-273.283 -229.885)"/></g><g transform="translate(0.183 0.253)"><path d="M234.083,249.79a.056.056,0,0,1-.029-.008.058.058,0,0,1-.021-.078l1.887-3.254a.062.062,0,0,1,.038-.027l1.833-.391,1.862-3.9a.059.059,0,0,1,.035-.031.057.057,0,0,1,.046.006l1.855,1.071,1.837-.532,1.862-1.614,1.87-2.159a.062.062,0,0,1,.027-.018l1.862-.537,1.864-1.615a.062.062,0,0,1,.038-.015h1.837l1.859-4.293a.058.058,0,0,1,.044-.035.06.06,0,0,1,.052.019l1.83,2.114,1.83-2.114a.073.073,0,0,1,.015-.012l1.881-1.086a.057.057,0,0,1,.028-.007h1.859l1.854-1.071a.059.059,0,0,1,.028-.007h1.874a.058.058,0,1,1,0,.115h-1.858l-1.854,1.07a.063.063,0,0,1-.029.008h-1.858l-1.859,1.073-1.868,2.157a.06.06,0,0,1-.087,0l-1.814-2.095-1.837,4.243a.059.059,0,0,1-.053.035h-1.853l-1.857,1.609a.058.058,0,0,1-.022.012l-1.858.537-1.866,2.152-1.877,1.628a.058.058,0,0,1-.022.012l-1.872.542a.059.059,0,0,1-.045-.006l-1.822-1.052-1.847,3.867a.057.057,0,0,1-.04.031l-1.836.392-1.874,3.232A.057.057,0,0,1,234.083,249.79Z" transform="translate(-234.026 -230.199)"/></g></g><g transform="translate(0 10.403)"><path class="b" d="M235.274,243.854l1.814-1.053c.092-.052.167-.015.167.085a.357.357,0,0,1-.167.276l-1.814,1.053c-.092.053-.167.015-.167-.084A.358.358,0,0,1,235.274,243.854Z" transform="translate(-234.052 -242.778)"/><g transform="translate(0 1.499)"><path class="c" d="M234.039,244.668c.133-.077.24-.014.24.139a.531.531,0,0,1-.24.417c-.133.077-.24.015-.24-.139A.532.532,0,0,1,234.039,244.668Z" transform="translate(-233.799 -244.635)"/><path class="m" d="M234.039,244.668c.133-.077.24-.014.24.139a.531.531,0,0,1-.24.417c-.133.077-.24.015-.24-.139A.532.532,0,0,1,234.039,244.668Z" transform="translate(-233.799 -244.635)"/></g></g><g transform="translate(0 11.482)"><path class="b" d="M235.274,245.192l1.814-1.053c.092-.053.167-.015.167.084a.359.359,0,0,1-.167.277l-1.814,1.053c-.092.052-.167.015-.167-.085A.356.356,0,0,1,235.274,245.192Z" transform="translate(-234.052 -244.115)"/><g transform="translate(0 1.502)"><path class="c" d="M234.039,246.009c.133-.077.24-.015.24.139a.531.531,0,0,1-.24.417c-.133.077-.24.015-.24-.139A.531.531,0,0,1,234.039,246.009Z" transform="translate(-233.799 -245.976)"/></g></g></g><g transform="translate(1.817 26.665)"><g transform="translate(0 6.506)"><g transform="translate(0 0.22)"><path class="c" d="M234.083,262.563a.06.06,0,0,1-.04-.016.057.057,0,0,1,0-.081l.951-.978.934-.119.943-1.218.943.13.917-.828.936-.561.955-1.323.948.3.91-.814a.058.058,0,0,1,.082,0,.058.058,0,0,1,0,.081l-.96.857-.93-.291-.93,1.281-.937.56-.948.858-.93-.128-.931,1.2-.941.119-.923.949A.058.058,0,0,1,234.083,262.563Z" transform="translate(-234.025 -257.037)"/></g><g transform="translate(0.122 0.963)"><path class="h" d="M234.483,259.822a.224.224,0,0,1,.024-.021.136.136,0,0,1,.026-.018.264.264,0,0,1,.141-.043.172.172,0,0,1,.113.043.269.269,0,0,1,.073.119.572.572,0,0,1,.027.185.9.9,0,0,1-.027.216,1.007,1.007,0,0,1-.073.2.828.828,0,0,1-.113.173.547.547,0,0,1-.141.121.277.277,0,0,1-.143.043.172.172,0,0,1-.112-.043.278.278,0,0,1-.074-.119.571.571,0,0,1-.027-.186.819.819,0,0,1,.009-.119,1.041,1.041,0,0,1,.023-.113c.01-.036.02-.072.032-.107s.023-.069.036-.1l.25-.71c0-.009.01-.021.015-.035a.062.062,0,0,1,.027-.031l.078-.045a.014.014,0,0,1,.02,0,.045.045,0,0,1,.007.028.059.059,0,0,1,0,.018l0,.014Zm-.175.6a.354.354,0,0,0,.015.111.187.187,0,0,0,.044.076.107.107,0,0,0,.071.03.174.174,0,0,0,.094-.028.348.348,0,0,0,.094-.08.514.514,0,0,0,.07-.112.674.674,0,0,0,.045-.127.6.6,0,0,0,.015-.129.379.379,0,0,0-.015-.111.188.188,0,0,0-.045-.076.105.105,0,0,0-.07-.03.169.169,0,0,0-.094.027.356.356,0,0,0-.094.081.534.534,0,0,0-.071.111.7.7,0,0,0-.044.128A.558.558,0,0,0,234.308,260.421Z" transform="translate(-234.177 -258.204)"/><path class="h" d="M235.315,259.95a.334.334,0,0,0,.019.056.079.079,0,0,0,.037.039.111.111,0,0,0,.065.006.372.372,0,0,0,.1-.044.412.412,0,0,0,.081-.063.416.416,0,0,0,.068-.088.52.52,0,0,0,.045-.111.467.467,0,0,0,.017-.129.262.262,0,0,0-.016-.1.091.091,0,0,0-.044-.051.1.1,0,0,0-.067,0,.35.35,0,0,0-.083.035l-.114.065a.02.02,0,0,1-.027,0,.045.045,0,0,1-.01-.034v-.076a.118.118,0,0,1,.007-.04l.015-.036.247-.553-.395.228a.021.021,0,0,1-.027,0,.046.046,0,0,1-.01-.034v-.076a.1.1,0,0,1,.01-.046.065.065,0,0,1,.027-.032l.54-.312a.022.022,0,0,1,.027,0,.05.05,0,0,1,.01.034v.076a.155.155,0,0,1-.006.041.406.406,0,0,1-.019.045l-.242.543a.287.287,0,0,1,.125-.04.146.146,0,0,1,.1.031.217.217,0,0,1,.063.1.512.512,0,0,1,.023.165.782.782,0,0,1-.027.209.872.872,0,0,1-.073.186.794.794,0,0,1-.108.152.56.56,0,0,1-.132.108.4.4,0,0,1-.158.059.164.164,0,0,1-.11-.023.168.168,0,0,1-.065-.083.357.357,0,0,1-.023-.123.08.08,0,0,1,.01-.038.056.056,0,0,1,.021-.027l.063-.036q.016-.008.024,0A.038.038,0,0,1,235.315,259.95Z" transform="translate(-234.372 -258.071)"/><path class="h" d="M236.326,259.366a.311.311,0,0,0,.019.056.079.079,0,0,0,.037.039.113.113,0,0,0,.065.006.322.322,0,0,0,.1-.044.408.408,0,0,0,.081-.062.389.389,0,0,0,.067-.089.493.493,0,0,0,.046-.11.442.442,0,0,0,.018-.129.272.272,0,0,0-.017-.107.092.092,0,0,0-.044-.05.1.1,0,0,0-.066,0,.314.314,0,0,0-.084.036l-.114.066a.019.019,0,0,1-.026,0,.04.04,0,0,1-.011-.033v-.077a.113.113,0,0,1,.007-.039l.015-.037.247-.552-.395.228a.02.02,0,0,1-.027,0,.046.046,0,0,1-.01-.034v-.076a.112.112,0,0,1,.01-.047.066.066,0,0,1,.027-.031l.54-.312a.019.019,0,0,1,.026,0,.045.045,0,0,1,.011.034v.076a.149.149,0,0,1-.006.04.3.3,0,0,1-.019.046l-.242.543a.277.277,0,0,1,.125-.04.141.141,0,0,1,.1.03.215.215,0,0,1,.063.1.5.5,0,0,1,.023.165.791.791,0,0,1-.027.21.881.881,0,0,1-.073.186.737.737,0,0,1-.108.152.545.545,0,0,1-.132.108.406.406,0,0,1-.158.059.167.167,0,0,1-.111-.023.177.177,0,0,1-.064-.083.342.342,0,0,1-.023-.123.079.079,0,0,1,.009-.038.06.06,0,0,1,.021-.027l.063-.036q.016-.008.024,0A.043.043,0,0,1,236.326,259.366Z" transform="translate(-234.567 -257.958)"/></g><g transform="translate(0.061 1.774)"><path class="b" d="M234.267,263.679l8.1-4.693c.091-.052.166-.015.166.085a.359.359,0,0,1-.166.276l-8.1,4.693c-.092.052-.166.015-.166-.085A.357.357,0,0,1,234.267,263.679Z" transform="translate(-234.101 -258.963)"/></g><g transform="translate(0.061)"><path class="b" d="M234.267,257.841l1.815-1.053c.092-.052.166-.015.166.085a.355.355,0,0,1-.166.276l-1.815,1.053c-.092.053-.166.015-.166-.084A.358.358,0,0,1,234.267,257.841Z" transform="translate(-234.101 -256.765)"/></g></g><g transform="translate(0 12.43)"><path class="c" d="M234.083,270.414a.056.056,0,0,1-.04-.016.057.057,0,0,1,0-.082l.951-.978.94-.119.946-.827.913-.249.951-1.894.954.467.92-.811.016,0,.913-.173.922-1.594a.058.058,0,1,1,.1.057l-.949,1.64-.949.18-.955.841-.92-.451-.923,1.838-.949.258-.941.829-.934.119-.923.949A.057.057,0,0,1,234.083,270.414Z" transform="translate(-234.025 -264.107)"/><g class="r"><path d="M234.083,270.414a.056.056,0,0,1-.04-.016.057.057,0,0,1,0-.082l.951-.978.94-.119.946-.827.913-.249.951-1.894.954.467.92-.811.016,0,.913-.173.922-1.594a.058.058,0,1,1,.1.057l-.949,1.64-.949.18-.955.841-.92-.451-.923,1.838-.949.258-.941.829-.934.119-.923.949A.057.057,0,0,1,234.083,270.414Z" transform="translate(-234.025 -264.107)"/></g><g transform="translate(0.091 1.752)"><path class="h" d="M234.583,268.74a.106.106,0,0,1-.01.046.068.068,0,0,1-.026.032l-.056.032a.021.021,0,0,1-.027,0,.046.046,0,0,1-.01-.034v-1.164l-.222.388c-.009.016-.018.026-.027.028a.021.021,0,0,1-.025-.006l-.033-.047a.055.055,0,0,1-.007-.038.118.118,0,0,1,.015-.046l.293-.516a.091.091,0,0,1,.023-.027l.022-.015.056-.033a.02.02,0,0,1,.026,0,.044.044,0,0,1,.01.034Z" transform="translate(-234.138 -266.482)"/><path class="h" d="M235.33,267.585a.9.9,0,0,0,.062-.152.6.6,0,0,0,.02-.166.252.252,0,0,0-.043-.162c-.028-.034-.073-.033-.134,0a.282.282,0,0,0-.081.069.4.4,0,0,0-.056.09.552.552,0,0,0-.036.1c-.009.036-.016.073-.022.111a.143.143,0,0,1-.014.044.066.066,0,0,1-.022.024l-.063.037a.016.016,0,0,1-.021,0,.035.035,0,0,1-.009-.027.769.769,0,0,1,.023-.172A.959.959,0,0,1,235,267.2a.8.8,0,0,1,.1-.165.449.449,0,0,1,.136-.121.251.251,0,0,1,.133-.041.134.134,0,0,1,.1.042.241.241,0,0,1,.059.11.618.618,0,0,1,.02.164,1.018,1.018,0,0,1-.007.126.864.864,0,0,1-.023.118,1.039,1.039,0,0,1-.04.119c-.017.04-.036.084-.061.13l-.306.616.42-.242a.02.02,0,0,1,.026,0,.046.046,0,0,1,.011.034v.076a.111.111,0,0,1-.011.047.069.069,0,0,1-.026.031l-.591.341a.021.021,0,0,1-.027,0,.046.046,0,0,1-.01-.034v-.076a.164.164,0,0,1,.006-.044.58.58,0,0,1,.023-.053Z" transform="translate(-234.285 -266.393)"/><path class="h" d="M236.609,266.7c0,.063,0,.122,0,.178s0,.115,0,.179a1.412,1.412,0,0,1-.023.242.979.979,0,0,1-.064.221.731.731,0,0,1-.107.185.542.542,0,0,1-.156.135.266.266,0,0,1-.156.045.15.15,0,0,1-.107-.061.348.348,0,0,1-.064-.148,1.008,1.008,0,0,1-.023-.215c0-.063,0-.123,0-.178s0-.115,0-.179a1.412,1.412,0,0,1,.023-.242,1,1,0,0,1,.064-.221.79.79,0,0,1,.107-.186.532.532,0,0,1,.156-.136.258.258,0,0,1,.156-.044.155.155,0,0,1,.107.061.348.348,0,0,1,.064.148A1.011,1.011,0,0,1,236.609,266.7Zm-.57.687a.434.434,0,0,0,.059.261c.037.042.091.042.162,0a.383.383,0,0,0,.162-.189.863.863,0,0,0,.059-.328c0-.065,0-.124,0-.18s0-.115,0-.178a.442.442,0,0,0-.059-.263c-.036-.043-.09-.043-.162,0a.4.4,0,0,0-.162.19.875.875,0,0,0-.059.33c0,.064,0,.123,0,.179S236.038,267.327,236.039,267.391Z" transform="translate(-234.48 -266.278)"/></g><g transform="translate(0.061 2.335)"><path class="b" d="M234.267,271.717l8.1-4.692c.091-.053.166-.015.166.084a.359.359,0,0,1-.166.277l-8.1,4.692c-.092.053-.166.015-.166-.084A.358.358,0,0,1,234.267,271.717Z" transform="translate(-234.101 -267.001)"/></g><g transform="translate(0.061 0.562)"><path class="b" d="M234.267,265.88l1.815-1.053c.092-.053.166-.015.166.084a.357.357,0,0,1-.166.277l-1.815,1.053c-.092.053-.166.015-.166-.084A.357.357,0,0,1,234.267,265.88Z" transform="translate(-234.101 -264.803)"/></g></g><g transform="translate(11.245)"><g transform="translate(0 0.22)"><path class="c" d="M248.019,254.5a.059.059,0,0,1-.045-.022.058.058,0,0,1,.009-.081l.937-.747.944-1.079.958-.139.914-.206.946-1.118.931.165.934-1.479.949.015.918-.821a.058.058,0,0,1,.081,0,.058.058,0,0,1,0,.082l-.952.85-.929-.015-.941,1.49-.942-.167-.928,1.1-.956.215-.921.133L249,253.733l-.945.754A.055.055,0,0,1,248.019,254.5Z" transform="translate(-247.961 -248.975)"/></g><g transform="translate(0.123 0.998)"><path class="h" d="M248.419,251.76a.157.157,0,0,1,.023-.021.169.169,0,0,1,.026-.018.265.265,0,0,1,.142-.043.167.167,0,0,1,.112.043.27.27,0,0,1,.074.119.57.57,0,0,1,.027.185.9.9,0,0,1-.027.216,1.008,1.008,0,0,1-.074.2.859.859,0,0,1-.112.173.565.565,0,0,1-.142.121.282.282,0,0,1-.142.043.17.17,0,0,1-.112-.043.263.263,0,0,1-.074-.119.571.571,0,0,1-.027-.186.722.722,0,0,1,.009-.119,1.008,1.008,0,0,1,.023-.113c.01-.036.02-.073.032-.107s.023-.069.035-.1l.249-.71c0-.009.01-.021.015-.035a.06.06,0,0,1,.027-.031l.079-.045a.013.013,0,0,1,.019,0,.039.039,0,0,1,.008.028.059.059,0,0,1,0,.018l0,.014Zm-.176.6a.356.356,0,0,0,.016.111.178.178,0,0,0,.044.076.107.107,0,0,0,.07.03.172.172,0,0,0,.094-.028.35.35,0,0,0,.094-.08.538.538,0,0,0,.071-.112.635.635,0,0,0,.044-.127.559.559,0,0,0,.015-.13.36.36,0,0,0-.015-.111.18.18,0,0,0-.044-.075.1.1,0,0,0-.071-.03.17.17,0,0,0-.094.027.354.354,0,0,0-.094.081.564.564,0,0,0-.07.111.643.643,0,0,0-.044.127A.554.554,0,0,0,248.243,252.359Z" transform="translate(-248.113 -250.177)"/><path class="h" d="M249.566,251.31a.847.847,0,0,0,.062-.152.6.6,0,0,0,.02-.165.253.253,0,0,0-.042-.163c-.029-.033-.073-.032-.135,0a.3.3,0,0,0-.081.068.415.415,0,0,0-.056.09.626.626,0,0,0-.036.106,1.057,1.057,0,0,0-.021.11.151.151,0,0,1-.015.044.068.068,0,0,1-.021.025l-.064.036a.016.016,0,0,1-.021,0,.037.037,0,0,1-.009-.027.818.818,0,0,1,.023-.172.951.951,0,0,1,.063-.182.871.871,0,0,1,.1-.166.482.482,0,0,1,.136-.121.251.251,0,0,1,.133-.041.144.144,0,0,1,.1.042.253.253,0,0,1,.058.11.591.591,0,0,1,.02.164,1.042,1.042,0,0,1-.007.127.756.756,0,0,1-.023.118.99.99,0,0,1-.04.119,1.378,1.378,0,0,1-.061.129l-.3.616.419-.243a.021.021,0,0,1,.027,0,.044.044,0,0,1,.01.034v.076a.106.106,0,0,1-.01.046.068.068,0,0,1-.027.032l-.591.341a.02.02,0,0,1-.026,0,.041.041,0,0,1-.011-.034V252.2a.131.131,0,0,1,.007-.044.4.4,0,0,1,.023-.054Z" transform="translate(-248.31 -250.067)"/><path class="h" d="M250.682,249.943a.02.02,0,0,1,.026,0,.046.046,0,0,1,.011.034v.077a.28.28,0,0,1,0,.042c0,.016-.006.032-.011.051l-.3,1.385q-.006.022-.015.044a.059.059,0,0,1-.025.03l-.064.037a.017.017,0,0,1-.023,0,.041.041,0,0,1-.01-.031v-.01l0-.018.306-1.389-.45.26a.02.02,0,0,1-.026,0,.046.046,0,0,1-.011-.034v-.076a.114.114,0,0,1,.011-.047.077.077,0,0,1,.026-.032Z" transform="translate(-248.494 -249.939)"/></g><g transform="translate(0.06 1.774)"><path class="b" d="M248.2,255.617l8.1-4.693c.092-.053.166-.015.166.084a.357.357,0,0,1-.166.277l-8.1,4.692c-.092.053-.167.015-.167-.084A.358.358,0,0,1,248.2,255.617Z" transform="translate(-248.036 -250.9)"/></g><g transform="translate(0.06)"><path class="b" d="M248.2,249.779l1.815-1.053c.091-.053.166-.015.166.085a.359.359,0,0,1-.166.276L248.2,250.14c-.092.053-.167.015-.167-.084A.36.36,0,0,1,248.2,249.779Z" transform="translate(-248.036 -248.702)"/></g></g><g transform="translate(11.245 6.487)"><g transform="translate(0 0.223)"><path class="c" d="M248.019,262.539a.06.06,0,0,1-.031-.008.059.059,0,0,1-.019-.079l.959-1.571.963.178.907-.248.938-1.144.931-.235.947-1.687.967.281.91-.173.923-.821a.057.057,0,0,1,.081,0,.058.058,0,0,1,0,.082l-.947.842-.015,0-.953.181-.906-.263-.927,1.65-.942.239-.937,1.142-.018,0-.95.26-.013,0-.9-.166-.916,1.5A.058.058,0,0,1,248.019,262.539Z" transform="translate(-247.961 -257.017)"/></g><g class="r" transform="translate(0 0.223)"><path d="M248.019,262.539a.06.06,0,0,1-.031-.008.059.059,0,0,1-.019-.079l.959-1.571.963.178.907-.248.938-1.144.931-.235.947-1.687.967.281.91-.173.923-.821a.057.057,0,0,1,.081,0,.058.058,0,0,1,0,.082l-.947.842-.015,0-.953.181-.906-.263-.927,1.65-.942.239-.937,1.142-.018,0-.95.26-.013,0-.9-.166-.916,1.5A.058.058,0,0,1,248.019,262.539Z" transform="translate(-247.961 -257.017)"/></g><g transform="translate(0.11 1.458)"><path class="h" d="M248.479,260.246l-.019.014-.018.012a.279.279,0,0,1-.127.04.165.165,0,0,1-.11-.032.244.244,0,0,1-.077-.112.533.533,0,0,1-.03-.2.878.878,0,0,1,.027-.214,1.01,1.01,0,0,1,.075-.2.848.848,0,0,1,.11-.168.508.508,0,0,1,.132-.115.282.282,0,0,1,.144-.044.159.159,0,0,1,.108.042.261.261,0,0,1,.069.118.624.624,0,0,1,.023.185.639.639,0,0,1-.01.113c-.007.04-.017.08-.027.12s-.023.079-.036.117l-.036.106-.25.709c0,.01-.009.022-.015.035a.063.063,0,0,1-.028.031l-.077.045a.014.014,0,0,1-.02,0,.044.044,0,0,1-.007-.028.06.06,0,0,1,0-.018l0-.014Zm.177-.6a.4.4,0,0,0-.015-.114.169.169,0,0,0-.044-.073.1.1,0,0,0-.068-.025.175.175,0,0,0-.086.027.325.325,0,0,0-.087.073.5.5,0,0,0-.067.1.544.544,0,0,0-.044.123.524.524,0,0,0-.016.132.333.333,0,0,0,.016.114.156.156,0,0,0,.044.073.1.1,0,0,0,.067.025.168.168,0,0,0,.087-.027.33.33,0,0,0,.086-.073.477.477,0,0,0,.068-.1.617.617,0,0,0,.044-.123A.606.606,0,0,0,248.655,259.65Z" transform="translate(-248.097 -258.68)"/><path class="h" d="M249.2,259.956a.259.259,0,0,0,.019.056.078.078,0,0,0,.036.039.113.113,0,0,0,.065.006.333.333,0,0,0,.1-.044.391.391,0,0,0,.081-.063.411.411,0,0,0,.068-.088.509.509,0,0,0,.046-.11.477.477,0,0,0,.017-.13.285.285,0,0,0-.016-.106.09.09,0,0,0-.045-.05.1.1,0,0,0-.066,0,.325.325,0,0,0-.084.036l-.114.065a.019.019,0,0,1-.026,0,.045.045,0,0,1-.011-.034v-.076a.1.1,0,0,1,.008-.04l.014-.036.247-.552-.395.228a.019.019,0,0,1-.026,0,.046.046,0,0,1-.011-.034v-.076a.114.114,0,0,1,.011-.047.065.065,0,0,1,.026-.031l.541-.312a.02.02,0,0,1,.026,0,.046.046,0,0,1,.01.034v.077a.127.127,0,0,1-.006.04.4.4,0,0,1-.018.045l-.243.544a.285.285,0,0,1,.125-.04.143.143,0,0,1,.1.031.212.212,0,0,1,.064.1.537.537,0,0,1,.022.165.786.786,0,0,1-.027.209.83.83,0,0,1-.073.186.738.738,0,0,1-.108.152.545.545,0,0,1-.132.108.4.4,0,0,1-.158.059.165.165,0,0,1-.11-.023.173.173,0,0,1-.065-.083.361.361,0,0,1-.023-.123.1.1,0,0,1,.009-.039.054.054,0,0,1,.022-.026l.063-.036c.01-.006.018-.006.023,0A.043.043,0,0,1,249.2,259.956Z" transform="translate(-248.285 -258.548)"/></g><g transform="translate(0.061 1.774)"><path class="b" d="M248.2,263.655l8.1-4.692c.092-.053.166-.015.166.084a.358.358,0,0,1-.166.277l-8.1,4.692c-.092.053-.167.015-.167-.084A.36.36,0,0,1,248.2,263.655Z" transform="translate(-248.036 -258.939)"/></g><g transform="translate(0.061)"><path class="b" d="M248.2,257.818l1.815-1.053c.091-.053.166-.015.166.084a.359.359,0,0,1-.166.277l-1.815,1.053c-.092.052-.167.015-.167-.085A.36.36,0,0,1,248.2,257.818Z" transform="translate(-248.036 -256.741)"/></g></g></g><g transform="translate(23.482 17.89)"><g transform="translate(0 3.801)"><path class="c" d="M263.129,242.728a1.058,1.058,0,0,1,1.068-.08l-1.068,2.88Z" transform="translate(-261.31 -242.538)"/><path class="c" d="M261.806,243.927a3.175,3.175,0,0,1,1.068-1.154v2.8Z" transform="translate(-261.055 -242.583)"/><path class="c" d="M260.986,245.983a5.6,5.6,0,0,1,.662-1.78l1.068,1.646Z" transform="translate(-260.896 -242.86)"/><path class="m" d="M261.648,243.927a5.6,5.6,0,0,0-.662,1.78l1.729-.134v-2.8A3.175,3.175,0,0,0,261.648,243.927Z" transform="translate(-260.896 -242.583)"/><path class="c" d="M264.2,242.674a1.5,1.5,0,0,1,.662,1.017l-1.73,1.863Z" transform="translate(-261.31 -242.564)"/><path class="c" d="M260.965,248.107a3.506,3.506,0,0,1-.09-.813,5,5,0,0,1,.09-.917l1.729-.134Z" transform="translate(-260.875 -243.253)"/><path class="c" d="M264.859,246.078a5.612,5.612,0,0,1-.662,1.78l-1.068-1.647Z" transform="translate(-261.31 -243.222)"/><path class="c" d="M262.874,249.044a1.057,1.057,0,0,1-1.068.08l1.068-2.881Z" transform="translate(-261.055 -243.253)"/><path class="c" d="M260.986,248.107l1.729-1.864-1.068,2.881A1.5,1.5,0,0,1,260.986,248.107Z" transform="translate(-260.896 -243.253)"/><path class="c" d="M264.859,243.934a3.494,3.494,0,0,1,.09.813,5,5,0,0,1-.09.917l-1.73.133Z" transform="translate(-261.31 -242.808)"/><path class="c" d="M264.2,247.89a3.169,3.169,0,0,1-1.068,1.154v-2.8Z" transform="translate(-261.31 -243.253)"/><g transform="translate(0.345 6.141)"><path class="h" d="M261.965,251.226l1.815-1.053c.092-.053.166-.015.166.084a.357.357,0,0,1-.166.277l-1.815,1.053c-.092.053-.166.015-.166-.085A.356.356,0,0,1,261.965,251.226Z" transform="translate(-261.399 -250.149)"/><path class="b" d="M261.469,252.746l2.615-1.517c.092-.053.166-.015.166.085a.357.357,0,0,1-.166.276l-2.615,1.517c-.092.053-.166.015-.166-.084A.358.358,0,0,1,261.469,252.746Z" transform="translate(-261.303 -250.353)"/><path class="b" d="M261.469,254.09l2.615-1.517c.092-.052.166-.015.166.085a.356.356,0,0,1-.166.276l-2.615,1.517c-.092.053-.166.015-.166-.084A.358.358,0,0,1,261.469,254.09Z" transform="translate(-261.303 -250.613)"/><path class="b" d="M261.469,255.434l2.615-1.517c.092-.052.166-.015.166.085a.356.356,0,0,1-.166.276l-2.615,1.517c-.092.053-.166.015-.166-.084A.358.358,0,0,1,261.469,255.434Z" transform="translate(-261.303 -250.872)"/></g></g><g transform="translate(6.559)"><path class="c" d="M271.259,238.017a1.057,1.057,0,0,1,1.068-.08l-1.068,2.881Z" transform="translate(-269.439 -237.827)"/><path class="c" d="M269.935,239.216A3.169,3.169,0,0,1,271,238.062v2.8Z" transform="translate(-269.184 -237.872)"/><path class="c" d="M269.115,241.272a5.632,5.632,0,0,1,.662-1.78l1.068,1.647Z" transform="translate(-269.025 -238.149)"/><path class="c" d="M272.327,237.963a1.5,1.5,0,0,1,.662,1.017l-1.729,1.864Z" transform="translate(-269.439 -237.853)"/><path class="c" d="M269.094,243.4a3.5,3.5,0,0,1-.09-.813,5.007,5.007,0,0,1,.09-.917l1.73-.133Z" transform="translate(-269.004 -238.543)"/><path class="c" d="M272.988,241.367a5.586,5.586,0,0,1-.662,1.78l-1.068-1.646Z" transform="translate(-269.439 -238.511)"/><path class="c" d="M271,244.333a1.058,1.058,0,0,1-1.068.08l1.068-2.88Z" transform="translate(-269.184 -238.543)"/><path class="c" d="M269.115,243.4l1.73-1.863-1.068,2.88A1.5,1.5,0,0,1,269.115,243.4Z" transform="translate(-269.025 -238.543)"/><path class="m" d="M269.755,239.216a5.632,5.632,0,0,0-.662,1.78,5.007,5.007,0,0,0-.09.917,3.5,3.5,0,0,0,.09.813,1.5,1.5,0,0,0,.662,1.017l1.068-2.88v-2.8A3.169,3.169,0,0,0,269.755,239.216Z" transform="translate(-269.004 -237.872)"/><path class="c" d="M272.988,239.223a3.5,3.5,0,0,1,.09.813,5,5,0,0,1-.09.917l-1.729.134Z" transform="translate(-269.439 -238.097)"/><path class="c" d="M272.327,243.179a3.175,3.175,0,0,1-1.068,1.154v-2.8Z" transform="translate(-269.439 -238.543)"/><g transform="translate(0.345 6.156)"><path class="h" d="M270.094,246.533l1.815-1.053c.092-.053.166-.015.166.084a.355.355,0,0,1-.166.276l-1.815,1.053c-.092.053-.166.016-.166-.084A.355.355,0,0,1,270.094,246.533Z" transform="translate(-269.528 -245.456)"/><path class="b" d="M269.6,248.053l2.615-1.517c.092-.053.166-.015.166.084a.357.357,0,0,1-.166.277l-2.615,1.517c-.092.053-.166.015-.166-.084A.357.357,0,0,1,269.6,248.053Z" transform="translate(-269.432 -245.66)"/><path class="b" d="M269.6,249.4l2.615-1.517c.092-.053.166-.015.166.084a.357.357,0,0,1-.166.277l-2.615,1.517c-.092.053-.166.015-.166-.084A.357.357,0,0,1,269.6,249.4Z" transform="translate(-269.432 -245.92)"/><path class="b" d="M269.6,250.741l2.615-1.517c.092-.053.166-.015.166.084a.357.357,0,0,1-.166.277L269.6,251.1c-.092.053-.166.015-.166-.084A.357.357,0,0,1,269.6,250.741Z" transform="translate(-269.432 -246.179)"/></g></g></g></g></g></g><g transform="translate(216.729 262.842)"><g transform="translate(19.391 0)"><g transform="translate(2.583)"><path class="c" d="M267.483,283.959a3.082,3.082,0,0,0-1.311-2.459.984.984,0,0,0-.971-.134h0c-1.543.775-12.389,7.729-13.083,8.071l-.009,0a.5.5,0,0,0-.219.447,1.552,1.552,0,0,0,.661,1.239.5.5,0,0,0,.5.065l.01,0c1.1-.605,11.8-5.167,13.991-6.341h0A.98.98,0,0,0,267.483,283.959Z" transform="translate(-251.887 -281.289)"/><path class="s" d="M267.057,282.459a2.785,2.785,0,0,0-.885-.959.987.987,0,0,0-.969-.136c-.052.029-.068.038-.031.017-1.409.721-9.481,5.87-12.2,7.544l-.018.01-.11.068-.034.02-.061.038-.073.044,0,0c-.287.176-.482.29-.557.327l-.009,0a.373.373,0,0,0-.064.049.545.545,0,0,0-.156.4,1.135,1.135,0,0,0,.007.156c0,.019.006.04.01.06s.011.064.019.1.013.051.02.076.019.06.03.089.015.044.024.067l0,.01Z" transform="translate(-251.887 -281.289)"/><path class="c" d="M252.545,293.07a1.544,1.544,0,0,1-.658-1.234c.015-.446.333-.616.712-.381a1.545,1.545,0,0,1,.658,1.234C253.243,293.136,252.924,293.306,252.545,293.07Z" transform="translate(-251.887 -283.232)"/></g><path class="f" d="M248.687,293.428a1.185,1.185,0,0,0,.505.947.379.379,0,0,0,.377.052h0l2.623-1.4h0a.379.379,0,0,0,.167-.341,1.187,1.187,0,0,0-.505-.948.378.378,0,0,0-.379-.05h0l-2.622,1.4h0A.375.375,0,0,0,248.687,293.428Z" transform="translate(-248.686 -283.291)"/><path class="g" d="M248.857,293.085a.375.375,0,0,0-.17.343,1.007,1.007,0,0,0,.079.4l3.383-1.805a1.04,1.04,0,0,0-.29-.289.378.378,0,0,0-.379-.05l-2.622,1.4Z" transform="translate(-248.686 -283.291)"/></g><g transform="translate(0 5.897)"><path class="c" d="M247.411,295.166c0-1.682-1.11-3.362-3.332-4.645a17.784,17.784,0,0,0-16.09,0c-2.222,1.283-3.332,2.964-3.332,4.645h0v3.1c0,1.681,1.11,3.362,3.332,4.645a17.784,17.784,0,0,0,16.09,0c2.222-1.282,3.332-2.964,3.332-4.645v-3.1Zm-18.873-3.692a16.7,16.7,0,0,1,14.99,0c1.795,1.036,2.783,2.347,2.783,3.692s-.988,2.656-2.783,3.692a16.7,16.7,0,0,1-14.99,0c-1.795-1.035-2.783-2.346-2.783-3.692S226.744,292.51,228.539,291.474Z" transform="translate(-224.655 -288.597)"/><path class="t" d="M227.987,299.81a17.779,17.779,0,0,0,16.09,0c4.444-2.565,4.444-6.724,0-9.29a17.784,17.784,0,0,0-16.09,0C223.544,293.087,223.544,297.245,227.987,299.81Zm-2.232-4.645c0-1.345.988-2.656,2.782-3.692a16.7,16.7,0,0,1,14.991,0c1.794,1.036,2.782,2.347,2.782,3.692s-.988,2.656-2.782,3.692a16.7,16.7,0,0,1-14.991,0C226.743,297.822,225.756,296.511,225.756,295.166Z" transform="translate(-224.655 -288.597)"/><g transform="translate(1.1 1.1)"><path class="c" d="M226.018,295.429a3.059,3.059,0,0,0,.444,1.549,6.2,6.2,0,0,1,2.34-2.144,16.681,16.681,0,0,1,14.989,0,6.217,6.217,0,0,1,2.341,2.144,3.074,3.074,0,0,0,.443-1.549c0-1.345-.988-2.656-2.784-3.693a16.7,16.7,0,0,0-14.989,0C227.006,292.773,226.018,294.084,226.018,295.429Z" transform="translate(-226.018 -289.96)"/><path class="s" d="M226.018,295.429a3.059,3.059,0,0,0,.444,1.549,6.2,6.2,0,0,1,2.34-2.144,16.681,16.681,0,0,1,14.989,0,6.217,6.217,0,0,1,2.341,2.144,3.074,3.074,0,0,0,.443-1.549c0-1.345-.988-2.656-2.784-3.693a16.7,16.7,0,0,0-14.989,0C227.006,292.773,226.018,294.084,226.018,295.429Z" transform="translate(-226.018 -289.96)"/></g><path class="u" d="M228.823,293.475a16.7,16.7,0,0,1,14.991,0,5.259,5.259,0,0,1,2.69,2.991,5.261,5.261,0,0,1-2.69,2.99,16.7,16.7,0,0,1-14.991,0,5.262,5.262,0,0,1-2.691-2.99A5.261,5.261,0,0,1,228.823,293.475Z" transform="translate(-224.94 -289.196)"/><path class="s" d="M233.352,302.881v3.094a14.9,14.9,0,0,1-5.363-1.739c-2.223-1.283-3.334-2.964-3.334-4.645v-3.1a3.9,3.9,0,0,1,.136-1.015h0c-.54,2,.525,4.118,3.2,5.66A14.945,14.945,0,0,0,233.352,302.881Z" transform="translate(-224.655 -289.926)"/></g></g><g transform="translate(259.293 215.416)"><g transform="translate(8.074 21.02)"><g transform="translate(8.424 23.863)"><path class="g" d="M301.716,280.624c.135.055.163.314.172.829.007.39.075,1.072-.384,1.2a1.427,1.427,0,0,1-1.409-.332c-.354-.466-.591-.875-1.1-1.445a3.943,3.943,0,0,1-1.085-1.642c-.151-.618-.008-.881.415-1.051.582-.232,1.469.591,1.918.727C300.629,279.024,301.581,280.57,301.716,280.624Z" transform="translate(-297.852 -278.138)"/></g><g transform="translate(10.543 25.605)"><path class="v" d="M302.234,280.565l-.015.632a1.545,1.545,0,0,1-1.6.007c-.027-.061-.146-.907-.146-.907Z" transform="translate(-300.477 -280.297)"/></g><g transform="translate(0 29.87)"><path class="g" d="M294.5,285.586s.169.554.256,1.036a2.8,2.8,0,0,1,.026,1.308c-.14.284-.667.457-1.474.433a4.766,4.766,0,0,0-1.914.621,5.018,5.018,0,0,1-2.4.325,2.278,2.278,0,0,1-1.563-.835c-.109-.3.052-.607,1.764-1.29a9.759,9.759,0,0,0,3.215-1.6Z" transform="translate(-287.411 -285.582)"/></g><g transform="translate(5.003 29.187)"><path class="v" d="M295.716,284.74s-.013.469-.016.737-.329.659-1.147.612c-.574-.033-.972-.2-.939-.67l.015-.683Z" transform="translate(-293.612 -284.736)"/></g><g transform="translate(3.236)"><path class="f" d="M301.084,266.066a17.213,17.213,0,0,0-.671-3.306s.289-2.832.457-5.52a33.874,33.874,0,0,0-.219-8.593s-8.9-.8-9.145,2.556.1,11.919.179,13.4.3,2.789.554,5.188c.248,2.367.966,7.962.966,7.962a2.216,2.216,0,0,0,2.087,0s.811-6.7.78-8.407a14.569,14.569,0,0,0-.562-3.731s.24-2.766.451-5.172.4-3.559.464-4.607l.2-.1s.111,4.161.19,5.639.28,2.9.646,5.649c.317,2.387,1.306,7.443,1.306,7.443a1.407,1.407,0,0,0,1.712-.037S301.327,268.136,301.084,266.066Z" transform="translate(-291.421 -248.564)"/></g><g transform="translate(8.241 5.219)"><path class="g" d="M297.625,257.087a19.659,19.659,0,0,0,3.462-2.055,7.536,7.536,0,0,1-2.493,2.095s-.61,5.153-.605,5.05l-.171-5.093Z" transform="translate(-297.625 -255.032)"/></g></g><path class="v" d="M295.649,233.686l.347,3.074,2.9-.146-.323-3.587Z" transform="translate(-280.928 -224.543)"/><g transform="translate(0 6.861)"><path class="f" d="M300.957,235.3c1.08-.05,1.63.112,2.115,1.045s.675,3.717.845,5.153.211,2.449-.38,2.6a26.282,26.282,0,0,1-2.892.211Z" transform="translate(-281.893 -231.841)"/><path class="h" d="M301,236.89a2.222,2.222,0,0,0-2.346-1.592q-.369.061-.719.122c-.127.517-1.544.841-2.9.521-.407.107-1.751.359-2.091.472-.973.323-1.374,1.281-1.526,4.453,0,0,.078,7.185.04,8.616a11.7,11.7,0,0,0,6.323.768c2.915-.569,3.292-1.764,3.292-1.764l-.434-3.286S301.355,238.836,301,236.89Z" transform="translate(-280.112 -231.838)"/><path class="f" d="M295.6,234.978l.023.193a4.3,4.3,0,0,0,1.782,0c.943-.209,1.134-.476,1.134-.476l-.019-.219s.235-.087.357.274a3.908,3.908,0,0,1,.136.441s.109.66-1,1a3.427,3.427,0,0,1-2.761-.3l-.434.092s.376-.867.49-1.043a.288.288,0,0,1,.271-.151Z" transform="translate(-280.768 -231.682)"/><g transform="translate(0.218)"><path class="h" d="M283.431,231.015l-5.756,3,2.86,7.82,5.371-3.009Z" transform="translate(-277.676 -231.015)"/><path class="w" d="M283.326,231.964l-4.829,2.52,2.531,6.723,4.506-2.524Z" transform="translate(-277.834 -231.199)"/><path class="i" d="M282.607,232.79l-.094-.239c-.052-.132-.453-.053-.9.176l-.85.439c-.445.229-.763.522-.711.654l.094.239Z" transform="translate(-278.134 -231.3)"/><g transform="translate(1.427 0.459)"><path class="c" d="M282.4,231.659c-.031-.082-.207-.069-.391.031l-.333.179s-.2-.516-.971-.159-.591.956-.591.956l-.353.2c-.2.107-.334.262-.311.346l.043.153,2.965-1.547S282.429,231.742,282.4,231.659Z" transform="translate(-279.445 -231.584)"/><path class="c" d="M282.221,232.079c-.275.136-.384.2-.3.405.091.232.175.4.175.4l-1.311.686s-.109-.3-.157-.41-.144-.169-.352-.059l-.078-.082,2.069-1.055Z" transform="translate(-279.589 -231.657)"/><path class="m" d="M282.221,232.079c-.275.136-.384.2-.3.405.091.232.175.4.175.4l-1.311.686s-.109-.3-.157-.41-.144-.169-.352-.059l-.078-.082,2.069-1.055Z" transform="translate(-279.589 -231.657)"/><path class="c" d="M282.677,232.806l-.094-.24c-.052-.132-.453-.053-.9.176l-.85.439c-.444.229-.762.522-.71.654l.094.24Z" transform="translate(-279.575 -231.761)"/></g></g><g transform="translate(6.194 4.575)"><path class="v" d="M291.723,236.685c-1.329.115-1.895.357-2.892,2.156-1.083,1.953-3.164,5.485-3.428,5.932a2.364,2.364,0,0,0-.119,2.134c.3.533,1.235.776,2.3-.427,1.265-1.43,3.621-4.922,3.621-4.922S293.205,238.918,291.723,236.685Z" transform="translate(-285.082 -236.685)"/></g><path class="v" d="M284.352,247.483c-1.018-.123-3.4-3.351-4.074-4.406a7.528,7.528,0,0,0-2.061-2.175c-1.078-.8-.921-2.02-.451-3.142.163-.388.716-.136.716-.136l.194.533.337.921c.228.211.358.281.374.218.028-.119-.168-.615-.163-1.131.006-.621.441-.213.57,0a7.7,7.7,0,0,1,.46,1.027c.217.556.128,1.119.391,1.5s3.813,3.78,3.813,3.78Z" transform="translate(-277.405 -232.276)"/><path class="f" d="M291.416,236.6a2.839,2.839,0,0,0-2.522,1.082c-.749.973-3.748,6.267-3.748,6.267l-1.683-1.509a2.937,2.937,0,0,0-1.294,1.829,18.261,18.261,0,0,0,1.524,2.068c.711.781,1.5,1.323,2.155,1.082s1.314-.755,2.715-2.7,2.93-4.252,2.93-4.252S292.459,238.213,291.416,236.6Z" transform="translate(-278.325 -232.093)"/></g><g transform="translate(12.027 5.38)"><path class="x" d="M292.96,229.18s-.725,1.1-.642,1.208.616.206.616.206Z" transform="translate(-292.311 -229.18)"/></g><g transform="translate(12.152 4.36)"><path class="g" d="M293.328,229.643a.863.863,0,1,1,.863-.863A.864.864,0,0,1,293.328,229.643Zm0-1.535a.671.671,0,1,0,.671.671A.672.672,0,0,0,293.328,228.108Z" transform="translate(-292.465 -227.916)"/></g><g transform="translate(12.618 2.194)"><path class="v" d="M295.113,225.376c-1.466.31-1.89.955-2.028,3.284-.144,2.434.1,3.2.424,3.527a3.379,3.379,0,0,0,2.021.094,5.993,5.993,0,0,0,3.27-2.04c.943-1.44,1.191-3.393.182-4.194A4.74,4.74,0,0,0,295.113,225.376Z" transform="translate(-293.043 -225.232)"/></g><path class="x" d="M295.3,233.946l-.068-.449a2.9,2.9,0,0,1-1.5.341A3.639,3.639,0,0,0,295.3,233.946Z" transform="translate(-280.557 -224.634)"/><path class="g" d="M292.565,228.762l2.607.337-.105.183-2.5-.325Z" transform="translate(-280.333 -223.72)"/><g transform="translate(11.825)"><path class="g" d="M292.645,225.791a.817.817,0,0,0,.331-.02.523.523,0,0,0,.179.612.74.74,0,0,0,.658.087.631.631,0,0,0-.072.453.734.734,0,0,0,.759.548c.015.34.019.674.383.829,0,0,.232-.9.991-.787s.866,1.087.385,1.678-.924.367-.93.365c.044.023.06.309.076.363a2.638,2.638,0,0,0,.194.492,2.35,2.35,0,0,0,.687.8,1.689,1.689,0,0,0,1.376.383,1.478,1.478,0,0,0,1-.807.869.869,0,0,1,.164-.291.962.962,0,0,1,.374-.162,1.1,1.1,0,0,0,.621-1.549,1.007,1.007,0,0,0,.385-1.758,1.207,1.207,0,0,0,.52-1.31,1.23,1.23,0,0,0-.867-.832c-.3-.086-.182-.132-.274-.422a1.062,1.062,0,0,0-1.351-.7,1.026,1.026,0,0,0-.733-.788,1.013,1.013,0,0,0-.517-.02c-.122.032-.372.145-.418.261-.154-.152-.2-.352-.392-.49a1.11,1.11,0,0,0-1.637.35,1.365,1.365,0,0,0-1.025-.431,1.121,1.121,0,0,0-.934.57.953.953,0,0,0,.126,1.067,1.09,1.09,0,0,0-.566.49.687.687,0,0,0,.08.766.592.592,0,0,0,.286.213A.911.911,0,0,0,292.645,225.791Z" transform="translate(-292.06 -222.513)"/><g transform="translate(2.313 5.283)"><path class="g" d="M295.421,230.078l.027-1.018a.509.509,0,0,0-.027,1.018Z" transform="translate(-294.926 -229.06)"/></g></g></g></g></svg>