<svg xmlns="http://www.w3.org/2000/svg" xmlns:xlink="http://www.w3.org/1999/xlink" width="81.02" height="97.771" viewBox="0 0 81.02 97.771"><defs><style>.a{fill:none;}.b{fill:#1b45a1;}.c{fill:#316ccc;}.d{fill:#79c3f0;}.e{fill:#2a66c6;}.f{clip-path:url(#a);}.g{mix-blend-mode:overlay;isolation:isolate;}.h{fill:url(#b);}.i{fill:url(#c);}</style><clipPath id="a"><path class="a" d="M1337.665,547.14c14.463,0,33.464-5.441,39.334-7.234a1.357,1.357,0,0,1,1.805,1.193v40.229c0,31.085-40.51,56.284-40.51,56.284s-40.51-25.2-40.51-56.284V542.965a1.35,1.35,0,0,1,1.718-1.217C1305.088,543.086,1323.206,547.14,1337.665,547.14Z" transform="translate(-1297.784 -539.84)"/></clipPath><linearGradient id="b" x1="8.39" y1="-0.442" x2="4.37" y2="1.632" gradientUnits="objectBoundingBox"><stop offset="0" stop-color="#fff"/><stop offset="1"/></linearGradient><linearGradient id="c" x1="3.738" y1="-0.256" x2="1.774" y2="1.172" xlink:href="#b"/></defs><g transform="translate(-1297.784 -539.84)"><path class="b" d="M1337.665,547.14c14.463,0,33.464-5.441,39.334-7.234a1.357,1.357,0,0,1,1.805,1.193v40.229c0,31.085-40.51,56.284-40.51,56.284s-40.51-25.2-40.51-56.284V542.965a1.35,1.35,0,0,1,1.718-1.217C1305.088,543.086,1323.206,547.14,1337.665,547.14Z"/><path class="c" d="M1358.542,582.833c10.85,0,24.34-3.559,31.115-6.366a3.043,3.043,0,0,1,4.311,2.551V611.3c0,27.184-35.426,49.221-35.426,49.221s-35.426-22.037-35.426-49.221V580.422a3.03,3.03,0,0,1,4.121-2.623A113.841,113.841,0,0,0,1358.542,582.833Z" transform="translate(-20.248 -29.075)"/><path class="d" d="M1389.289,631.18v60.342s-28.175-17.953-28.175-39.286V627.783a2.2,2.2,0,0,1,3.008-1.9C1369.384,627.708,1380.533,631.18,1389.289,631.18Z" transform="translate(-50.621 -68.666)"/><path class="d" d="M1501.512,630.952v60.342s29.181-17.953,29.181-39.286V627.5a2.2,2.2,0,0,0-2.972-1.916C1522.26,627.391,1510.379,630.952,1501.512,630.952Z" transform="translate(-162.844 -68.438)"/><path class="e" d="M1444.325,687.221c.438.316.858.645,1.27.98s.82.665,1.209,1.034.782.729,1.164,1.105c.189.188.387.375.569.566l.545.58c.366.386.72.781,1.073,1.178s.68.813,1.021,1.221.659.832.981,1.254q.243.316.478.637c.158.214.318.426.466.646.3.436.6.875.9,1.316s.572.9.852,1.348.548.913.812,1.375l.391.7c.128.234.248.472.37.709s.247.473.364.713l.341.726c.226.484.437.979.639,1.477s.392,1,.571,1.519c.09.257.175.515.26.782.042.134.085.26.126.4l.129.442-5.584-.336c.114-.209.21-.382.319-.566l.318-.539c.213-.357.426-.713.643-1.064l1.316-2.1,2.642-4.156q1.333-2.067,2.752-4.076c.941-1.342,1.932-2.652,2.939-3.946s2.062-2.555,3.152-3.785,2.217-2.426,3.388-3.579a48.964,48.964,0,0,1,3.683-3.275c.638-.516,1.3-1.006,1.975-1.471s1.365-.909,2.075-1.314a.3.3,0,0,1,.347.492q-.914.782-1.765,1.619c-.568.558-1.114,1.136-1.648,1.724s-1.051,1.19-1.552,1.806-.988,1.241-1.469,1.872c-.958,1.264-1.866,2.565-2.737,3.891-.433.665-.864,1.33-1.285,2s-.831,1.351-1.236,2.034c-.816,1.36-1.591,2.745-2.36,4.132s-1.5,2.793-2.228,4.2c-.36.706-.716,1.415-1.06,2.129s-.671,1.437-.985,2.164-.62,1.458-.916,2.189l-.44,1.094-.417,1.067-2.562,6.552-3.022-6.887-1.14-2.6c-.1-.223-.2-.448-.294-.673s-.2-.447-.3-.675l-.582-1.359L1448.5,699c-.192-.464-.4-.919-.591-1.386l-.292-.7-.3-.7c-.2-.467-.4-.93-.589-1.4s-.407-.932-.6-1.409-.387-.954-.587-1.421-.389-.95-.58-1.434-.4-.974-.585-1.469-.377-1-.543-1.509a.317.317,0,0,1,.486-.355Z" transform="translate(-116.732 -110.183)"/><g transform="translate(1297.784 539.84)"><g class="f"><g class="g" transform="translate(-5.079 -3.045)"><path class="h" d="M1288.707,630.558c3.738,12.19,5.856,31.434,6.848,42.811-10.446-9.739-20.818-21.228-21.341-27.232-.654-7.509-1.935-29.162-1.712-44.214C1276.818,607.056,1284.762,617.694,1288.707,630.558Z" transform="translate(-1272.476 -586.42)"/><path class="i" d="M1309.574,593.162c-3.065-14.216-11.873-49.7-35.458-60.7.345-4.686.992-7.711,2.073-7.777,4.32-.262,9.426,2.226,9.426,2.226,23.042-.131,34.3,34.824,35.348,40.846s-.131,59.2-2.356,60.629c-.486.311-2.761-1.041-6.034-3.47C1312.491,618.52,1312.016,604.488,1309.574,593.162Z" transform="translate(-1273.787 -524.666)"/></g></g></g></g></svg>