<svg xmlns="http://www.w3.org/2000/svg" width="445.759" height="343.01" viewBox="0 0 445.759 343.01"><defs><style>.a{fill:#f4f3f2;}.b{fill:#ffcf57;}.c,.n{fill:none;stroke-miterlimit:10;}.c{stroke:#efb237;stroke-width:0.25px;}.d{fill:#ffda8f;}.e{fill:#fff;}.f{fill:#394c7f;}.g{fill:#283660;}.h{fill:#fcba04;}.i{fill:#f9a806;}.j{fill:#e59507;}.k{fill:#2e3f77;}.l{fill:#efb237;}.m,.p{fill:#ededed;}.n{stroke:#283660;}.o{fill:#2d3e76;}.p{mix-blend-mode:multiply;isolation:isolate;}</style></defs><g transform="translate(-188.017 -140.616)"><g transform="translate(188.017 140.616)"><path class="a" d="M315.369,442.757v40.869h-36.49V443.852c-36.125-2.189-70.791-13.5-90.861-29.193l20.07-44.519c18.246,13.5,44.519,23.354,70.791,25.91V335.111c-40.5-9.852-85.752-23.354-85.752-75.537,0-38.678,28.1-71.885,85.752-78.453V140.616h36.49v39.776c27.367,2.189,54.005,9.487,74.076,22.258L371.2,247.532c-18.61-10.581-37.585-16.784-55.829-18.974v62.034c40.5,9.487,85.022,22.989,85.022,74.439C400.391,402.982,372.658,435.823,315.369,442.757ZM278.878,281.47V229.653c-19.339,4.377-27,14.96-27,27C251.875,269.428,262.822,276.362,278.878,281.47Zm62.763,87.943c0-12.773-10.581-19.706-26.273-25.18V394.59C333.613,390.575,341.641,381.088,341.641,369.412Z" transform="translate(-188.017 -140.616)"/></g><g transform="translate(208.377 173.395)"><g transform="translate(327.193 78.022)"><g transform="translate(0.459 56.14)"><path class="b" d="M497.9,247.467c-9.76-6.35-20.416,2.046-25.74,9.98-4.133,6.16-7.35,13.977-14.245,17.569-5.628,2.932-12.84,1.958-17.378,7.055-3.062,3.437-3.474,8.065-3.624,12.466-.238,7.044-.5,12.358-7.422,16-6.187,3.255-11.9,5.842-16.381,11.47a31.5,31.5,0,0,0-6.894,16.462c-1.446,15.238,10.6,25.6,22.226,33.072,2.271,1.46,4.237-1.329,3.37-3.362,9.571,4.1,22.334,6.693,27.742-4.767,4.727-10.012-1.109-22.089,9.188-29.606,7.387-5.392,18.543-8.122,21.675-17.778,1.993-6.139-.739-12.034-1.684-18.067-1.272-8.135,3.393-14.734,7.835-21.058C502.268,268.794,508.948,254.649,497.9,247.467Z" transform="translate(-406.102 -245.231)"/><path class="c" d="M419.033,352.446q12.689-18.374,25.378-36.749c14.056-20.356,28.135-40.75,40.186-62.351" transform="translate(-398.398 -240.397)"/><path class="c" d="M424.274,316.844a74.855,74.855,0,0,1-1.422-21.513" transform="translate(-396.26 -215.383)"/><path class="c" d="M423.838,309.026l3.812-.211c5.968-.329,11.946-.659,17.855-1.546" transform="translate(-395.535 -208.271)"/><path class="c" d="M433.464,302.9a69.544,69.544,0,0,1-3.215-19.293" transform="translate(-391.716 -222.37)"/><path class="c" d="M432.6,295.889a154.579,154.579,0,0,0,21.458-.2" transform="translate(-390.313 -215.172)"/><path class="c" d="M443.309,290.529a45.854,45.854,0,0,1-5.826-19.085" transform="translate(-387.406 -229.614)"/><path class="c" d="M441.065,284.088a43.866,43.866,0,0,0,17.488-2.212" transform="translate(-385.272 -223.399)"/><path class="c" d="M450.17,276.422a62.51,62.51,0,0,1-3.6-13.519" transform="translate(-381.992 -234.703)"/><path class="c" d="M448.884,272.227a52.878,52.878,0,0,0,14.233-2.654" transform="translate(-380.614 -230.729)"/></g><path class="d" d="M470.779,210.742c-11.084-3.562-19.162,7.339-22.215,16.393-2.368,7.029-3.418,15.417-9.129,20.694-4.66,4.309-11.872,5.263-14.914,11.373-2.051,4.122-1.234,8.694-.22,12.98,1.62,6.86,2.759,12.056-2.96,17.386-5.113,4.765-9.951,8.764-12.79,15.37a31.511,31.511,0,0,0-2.328,17.7c2.609,15.082,16.933,21.972,30.135,26.072,7.218,2.24,25.676-3.539,27.884-16.018,1.929-10.9-6.873-21.019,1.087-30.979,5.711-7.144,15.758-12.709,16.245-22.848.31-6.447-3.876-11.418-6.372-16.992-3.364-7.514-.6-15.107,2.028-22.376C480.593,230.176,483.322,214.773,470.779,210.742Z" transform="translate(-405.814 -210.05)"/><path class="c" d="M421.573,330.73,436.4,288.6c8.215-23.333,16.443-46.71,22.4-70.72" transform="translate(-396.426 -205.383)"/><path class="c" d="M426.913,288.592a74.852,74.852,0,0,1-7.023-20.383" transform="translate(-397.428 -175.401)"/><path class="c" d="M424.349,283.266l3.624-1.2c5.671-1.886,11.352-3.774,16.823-6.182" transform="translate(-394.772 -170.832)"/><path class="c" d="M432.2,272.7a69.563,69.563,0,0,1-8.17-17.77" transform="translate(-394.962 -183.314)"/><path class="c" d="M429.509,268.266a154.658,154.658,0,0,0,20.651-5.832" transform="translate(-391.698 -178.842)"/><path class="c" d="M438.45,258.179a45.872,45.872,0,0,1-10.636-16.885" transform="translate(-392.707 -191.436)"/><path class="c" d="M434.376,254.268a43.874,43.874,0,0,0,16.293-6.728" transform="translate(-388.798 -187.715)"/><path class="c" d="M441.363,242.765a62.469,62.469,0,0,1-7.025-12.1" transform="translate(-388.82 -197.768)"/><path class="c" d="M438.76,240.451a52.955,52.955,0,0,0,13.037-6.3" transform="translate(-386.186 -195.692)"/><path class="e" d="M447.845,218.849l-1.028-.308a2.033,2.033,0,0,1-1.364-2.532l.308-1.029a2.035,2.035,0,0,0-1.364-2.532h0a2.035,2.035,0,0,0-2.532,1.364l-.308,1.029a2.035,2.035,0,0,1-2.533,1.364l-1.029-.308a2.032,2.032,0,0,0-2.533,1.364h0a2.035,2.035,0,0,0,1.364,2.532l1.029.308a2.034,2.034,0,0,1,1.364,2.532l-.308,1.028a2.033,2.033,0,0,0,1.364,2.533h0a2.035,2.035,0,0,0,2.533-1.364l.308-1.028a2.033,2.033,0,0,1,2.533-1.364l1.028.308a2.034,2.034,0,0,0,2.533-1.364h0A2.034,2.034,0,0,0,447.845,218.849Z" transform="translate(-388.202 -208.674)"/><path class="e" d="M446.787,212.671l-.38-.113a.751.751,0,0,1-.5-.934l.115-.378a.751.751,0,0,0-.5-.934h0a.751.751,0,0,0-.934.5l-.113.38a.75.75,0,0,1-.934.5l-.378-.115a.749.749,0,0,0-.932.5h0a.749.749,0,0,0,.5.934l.38.113a.75.75,0,0,1,.5.934l-.113.378a.747.747,0,0,0,.5.932h0a.747.747,0,0,0,.932-.5l.113-.378a.751.751,0,0,1,.933-.5l.378.113a.749.749,0,0,0,.934-.5h0A.75.75,0,0,0,446.787,212.671Z" transform="translate(-384.14 -209.913)"/><path class="e" d="M445.738,223.464l-.38-.113a.752.752,0,0,1-.5-.934l.115-.378a.751.751,0,0,0-.5-.934h0a.751.751,0,0,0-.933.5l-.113.38a.747.747,0,0,1-.932.5l-.38-.113a.749.749,0,0,0-.932.5h0a.749.749,0,0,0,.5.934l.38.113a.749.749,0,0,1,.5.932l-.113.38a.747.747,0,0,0,.5.932h0a.748.748,0,0,0,.932-.5l.113-.378a.751.751,0,0,1,.934-.5l.378.113a.749.749,0,0,0,.934-.5h0A.749.749,0,0,0,445.738,223.464Z" transform="translate(-384.765 -203.483)"/></g><g transform="translate(55.472 7.489)"><g transform="translate(11.278)"><path class="f" d="M264.027,235.78A21.446,21.446,0,0,1,242.6,214.358V187.272a21.422,21.422,0,0,1,42.843,0v27.087A21.446,21.446,0,0,1,264.027,235.78Zm0-63.454a14.964,14.964,0,0,0-14.948,14.946v27.087a14.947,14.947,0,1,0,29.893,0V187.272A14.964,14.964,0,0,0,264.027,172.326Z" transform="translate(-242.605 -165.85)"/></g><rect class="g" width="65.398" height="52.232" rx="4.937" transform="translate(0 36.692)"/><path class="f" d="M266.884,226.329,262.293,209a7.124,7.124,0,1,0-6.626,0l-4.593,17.332Z" transform="translate(-226.281 -148.143)"/></g><g transform="translate(101.131 18.184)"><path class="h" d="M396.463,172.552,271.191,269.894H521.735Z" transform="translate(-259.956 -172.552)"/><rect class="i" width="261.05" height="15.958" transform="translate(5.982 97.342)"/><rect class="j" width="273.014" height="17.288" transform="translate(0 107.98)"/><rect class="j" width="273.014" height="17.287" transform="translate(0 239.498)"/><g transform="translate(18.034 125.268)"><rect class="h" width="26.485" height="114.314" transform="translate(2.176)"/><rect class="i" width="30.837" height="5.836"/><rect class="i" width="30.837" height="5.836" transform="translate(0 108.478)"/><g transform="translate(8.024 13.216)"><path class="i" d="M282.527,346.871c-1.131,0-2.047-.691-2.047-1.545V260.879a2.129,2.129,0,0,1,4.095,0v84.448C284.575,346.18,283.659,346.871,282.527,346.871Z" transform="translate(-280.48 -259.334)"/><g transform="translate(10.695)"><path class="i" d="M289.229,346.871c-1.131,0-2.047-.691-2.047-1.545V260.879a2.129,2.129,0,0,1,4.095,0v84.448C291.277,346.18,290.361,346.871,289.229,346.871Z" transform="translate(-287.182 -259.334)"/></g></g><g transform="translate(206.109)"><rect class="h" width="26.486" height="114.314" transform="translate(2.176)"/><rect class="i" width="30.837" height="5.836"/><rect class="i" width="30.837" height="5.836" transform="translate(0 108.478)"/><g transform="translate(8.022 13.216)"><path class="i" d="M411.688,346.871c-1.131,0-2.049-.691-2.049-1.545V260.879c0-.852.918-1.545,2.049-1.545a1.85,1.85,0,0,1,2.047,1.545v84.448C413.735,346.18,412.819,346.871,411.688,346.871Z" transform="translate(-409.639 -259.334)"/><g transform="translate(10.695)"><path class="i" d="M418.39,346.871c-1.131,0-2.049-.691-2.049-1.545V260.879c0-.852.918-1.545,2.049-1.545a1.85,1.85,0,0,1,2.047,1.545v84.448C420.437,346.18,419.521,346.871,418.39,346.871Z" transform="translate(-416.341 -259.334)"/></g></g></g><g transform="translate(70.313)"><rect class="h" width="26.486" height="114.314" transform="translate(2.176)"/><rect class="i" width="30.837" height="5.836"/><rect class="i" width="30.837" height="5.836" transform="translate(0 108.478)"/><g transform="translate(8.024 13.216)"><path class="i" d="M326.589,346.871c-1.131,0-2.047-.691-2.047-1.545V260.879a2.129,2.129,0,0,1,4.095,0v84.448C328.637,346.18,327.721,346.871,326.589,346.871Z" transform="translate(-324.542 -259.334)"/><g transform="translate(10.695)"><path class="i" d="M333.291,346.871c-1.131,0-2.047-.691-2.047-1.545V260.879a2.129,2.129,0,0,1,4.095,0v84.448C335.339,346.18,334.423,346.871,333.291,346.871Z" transform="translate(-331.244 -259.334)"/></g></g><g transform="translate(70.944)"><rect class="h" width="26.486" height="114.314" transform="translate(2.176)"/><rect class="i" width="30.837" height="5.836"/><rect class="i" width="30.837" height="5.836" transform="translate(0 108.478)"/><g transform="translate(8.024 13.216)"><path class="i" d="M371.047,346.871c-1.131,0-2.047-.691-2.047-1.545V260.879a2.129,2.129,0,0,1,4.095,0v84.448C373.095,346.18,372.179,346.871,371.047,346.871Z" transform="translate(-369 -259.334)"/><g transform="translate(10.695)"><path class="i" d="M377.749,346.871c-1.131,0-2.047-.691-2.047-1.545V260.879a2.129,2.129,0,0,1,4.095,0v84.448C379.8,346.18,378.881,346.871,377.749,346.871Z" transform="translate(-375.702 -259.334)"/></g></g></g></g></g><rect class="i" width="261.05" height="7.181" transform="translate(5.982 245.748)"/><g transform="translate(89.731 61.038)"><rect class="k" width="93.551" height="29.522" rx="9.25"/><g transform="translate(13.003 6.896)"><path class="e" d="M342.954,226.561c0,2.718-2.157,4.291-6.29,4.291H328.53V215.124h7.684c3.932,0,5.954,1.64,5.954,4.09a3.781,3.781,0,0,1-2.089,3.46A3.884,3.884,0,0,1,342.954,226.561Zm-10.807-8.7v3.707h3.618c1.775,0,2.742-.629,2.742-1.864s-.967-1.843-2.742-1.843Zm7.144,8.314c0-1.326-1.012-1.955-2.9-1.955h-4.246v3.887h4.246C338.28,228.112,339.292,227.526,339.292,226.179Z" transform="translate(-328.53 -215.124)"/><path class="e" d="M350.427,227.482h-7.3l-1.392,3.37H338l7.01-15.728h3.6l7.033,15.728h-3.82Zm-1.146-2.762-2.494-6.022-2.493,6.022Z" transform="translate(-322.887 -215.124)"/><path class="e" d="M364.5,215.124v15.728h-2.987l-7.842-9.549v9.549h-3.6V215.124h3.011l7.819,9.549v-9.549Z" transform="translate(-315.692 -215.124)"/><path class="e" d="M367.182,224.673l-2.113,2.2v3.977h-3.618V215.124h3.618v7.349l6.966-7.349h4.044l-6.516,7.01,6.9,8.718h-4.246Z" transform="translate(-308.916 -215.124)"/></g></g></g><g transform="translate(131.017)"><path class="h" d="M318.648,191.089l1.64,1.64,1.629-1.629,1.642,1.64,1.629-1.629,1.642,1.64,1.629-1.629,1.64,1.64,1.631-1.629,1.641,1.642L335,191.145l1.642,1.642,1.629-1.631,1.642,1.642,1.629-1.631,1.64,1.642,1.631-1.629,0,0V175.908a14.752,14.752,0,0,0-14.751-14.751h0a14.752,14.752,0,0,0-14.751,14.751v17h1.516Z" transform="translate(-263.555 -161.157)"/><path class="d" d="M285.094,246.813l1.642,1.642,1.629-1.629,1.642,1.64,1.629-1.629,1.64,1.64,1.631-1.629,1.64,1.64,1.629-1.629,1.642,1.64,1.629-1.629,1.642,1.64,1.629-1.629,1.64,1.64,1.631-1.629,1.641,1.642,1.629-1.631,1.666,1.666,1.755-1.757,1.642,1.642,1.629-1.629,1.64,1.64,1.631-1.629,1.641,1.64,1.629-1.629,1.642,1.64,1.629-1.629,1.642,1.64,1.629-1.629,1.64,1.64,1.631-1.629,1.64,1.64.163-.163V175.12a13.963,13.963,0,0,1,13.963-13.963H296.842a13.962,13.962,0,0,0-13.963,13.963v73.8h.107Z" transform="translate(-282.879 -161.157)"/><g transform="translate(3.356 18.949)"><rect class="l" width="43.884" height="2.327" rx="0.583" transform="translate(0.966)"/><rect class="l" width="43.884" height="2.327" rx="0.583" transform="translate(0.966 7.48)"/><rect class="l" width="43.884" height="2.327" rx="0.583" transform="translate(0.966 14.96)"/><rect class="l" width="43.884" height="2.327" rx="0.583" transform="translate(0.966 22.44)"/><rect class="l" width="43.884" height="2.327" rx="0.583" transform="translate(0.966 29.921)"/><rect class="l" width="43.884" height="2.327" rx="0.583" transform="translate(0.966 37.401)"/><rect class="l" width="30.17" height="2.327" rx="0.583" transform="translate(14.679 45.006)"/><rect class="l" width="30.17" height="2.327" rx="0.583" transform="translate(14.679 51.489)"/><rect class="l" width="30.17" height="2.327" rx="0.583" transform="translate(14.679 57.971)"/><g transform="translate(0 42.924)"><path class="l" d="M291.826,216.167v2.2h-1.961v-2.138a9.275,9.275,0,0,1-4.883-1.569l1.079-2.392a7.919,7.919,0,0,0,3.8,1.393v-3.276c-2.177-.528-4.609-1.254-4.609-4.06,0-2.079,1.51-3.863,4.609-4.216V199.93h1.961v2.138a8.858,8.858,0,0,1,3.981,1.2l-.981,2.413a7.98,7.98,0,0,0-3-1.02v3.334c2.177.509,4.57,1.235,4.57,4C296.4,214.03,294.9,215.8,291.826,216.167Zm-1.961-8.667v-2.785c-1.039.235-1.452.8-1.452,1.451C288.413,206.852,289,207.226,289.865,207.5Zm3.373,4.725c0-.686-.57-1.058-1.412-1.353v2.706C292.806,213.363,293.239,212.854,293.239,212.225Z" transform="translate(-284.982 -199.93)"/></g></g></g><g transform="translate(238.864 10.018)"><g transform="translate(0 15.349)"><path class="d" d="M352.686,182.265l1.13.043a2.145,2.145,0,0,0,2.223-2.062l.043-1.131a2.143,2.143,0,0,1,2.223-2.06h0a2.143,2.143,0,0,1,2.06,2.223l-.042,1.131a2.143,2.143,0,0,0,2.06,2.223l1.131.043a2.142,2.142,0,0,1,2.06,2.223h0a2.143,2.143,0,0,1-2.223,2.06l-1.131-.043A2.144,2.144,0,0,0,360,188.977l-.041,1.128a2.144,2.144,0,0,1-2.223,2.062h0a2.144,2.144,0,0,1-2.062-2.223l.043-1.13a2.143,2.143,0,0,0-2.06-2.223l-1.131-.043a2.142,2.142,0,0,1-2.06-2.223h0A2.142,2.142,0,0,1,352.686,182.265Z" transform="translate(-350.462 -177.053)"/></g><g transform="translate(30.886 17.183)"><path class="d" d="M371.5,182.142l.855.034a1.622,1.622,0,0,0,1.68-1.559l.032-.855a1.62,1.62,0,0,1,1.682-1.557h0a1.619,1.619,0,0,1,1.557,1.68l-.032.855a1.621,1.621,0,0,0,1.559,1.68l.855.032a1.622,1.622,0,0,1,1.557,1.682h0a1.62,1.62,0,0,1-1.68,1.557l-.855-.032a1.62,1.62,0,0,0-1.68,1.559l-.034.854a1.621,1.621,0,0,1-1.68,1.559h0a1.622,1.622,0,0,1-1.559-1.682l.034-.854a1.622,1.622,0,0,0-1.559-1.682l-.855-.032a1.62,1.62,0,0,1-1.557-1.68h0A1.62,1.62,0,0,1,371.5,182.142Z" transform="translate(-369.817 -178.202)"/></g><g transform="translate(13.563)"><path class="d" d="M362.234,175.1l1.663.064a3.151,3.151,0,0,0,3.268-3.03l.062-1.663a3.154,3.154,0,0,1,3.27-3.03h0a3.151,3.151,0,0,1,3.03,3.268l-.064,1.663a3.154,3.154,0,0,0,3.03,3.27l1.663.062a3.151,3.151,0,0,1,3.03,3.268h0a3.151,3.151,0,0,1-3.268,3.03l-1.663-.062a3.15,3.15,0,0,0-3.268,3.03l-.064,1.66a3.15,3.15,0,0,1-3.268,3.03h0a3.151,3.151,0,0,1-3.03-3.268l.062-1.661a3.15,3.15,0,0,0-3.03-3.268l-1.663-.062a3.154,3.154,0,0,1-3.03-3.27h0A3.154,3.154,0,0,1,362.234,175.1Z" transform="translate(-358.962 -167.435)"/></g></g><g transform="translate(174.659 211.206)"><ellipse class="m" cx="37.102" cy="5.818" rx="37.102" ry="5.818" transform="translate(0 83.046)"/><g transform="translate(2.859)"><path class="g" d="M334.9,371.514h0a3.491,3.491,0,0,1-3.49-3.492V297a3.49,3.49,0,0,1,3.49-3.49h0A3.491,3.491,0,0,1,338.4,297v71.021A3.492,3.492,0,0,1,334.9,371.514Z" transform="translate(-300.463 -293.511)"/><path class="n" d="M321.331,303.511l-7.979,22.275h18.617Z" transform="translate(-311.225 -287.553)"/><path class="d" d="M323.189,329.585h0a11.17,11.17,0,0,1-11.17-11.17v-1.976H334.36v1.976A11.17,11.17,0,0,1,323.189,329.585Z" transform="translate(-312.019 -279.851)"/><path class="n" d="M350,303.511l-7.979,22.275h18.617Z" transform="translate(-294.146 -287.553)"/><path class="d" d="M351.856,329.585h0a11.17,11.17,0,0,1-11.17-11.17v-1.976h22.341v1.976A11.17,11.17,0,0,1,351.856,329.585Z" transform="translate(-294.94 -279.851)"/><g transform="translate(18.484 71.885)"><rect class="g" width="31.915" height="7.181"/></g><g transform="translate(16.589 76.645)"><rect class="f" width="35.705" height="12.927"/></g><path class="f" d="M315.894,304.98h0a3.49,3.49,0,0,1,3.49-3.49H368.92a3.491,3.491,0,0,1,3.492,3.49h0a3.492,3.492,0,0,1-3.492,3.492H319.384A3.491,3.491,0,0,1,315.894,304.98Z" transform="translate(-309.71 -288.757)"/></g></g><g transform="translate(132.017 2.881)"><g transform="translate(0 4.775)"><path class="e" d="M284.2,167.575l.353.014a.669.669,0,0,0,.691-.642l.013-.353a.667.667,0,0,1,.693-.64h0a.665.665,0,0,1,.64.691l-.013.351a.667.667,0,0,0,.641.693l.351.013a.667.667,0,0,1,.642.691h0a.667.667,0,0,1-.693.641l-.351-.013a.665.665,0,0,0-.691.64l-.014.353a.665.665,0,0,1-.691.64h0a.666.666,0,0,1-.642-.691l.014-.351a.666.666,0,0,0-.642-.691l-.353-.014a.667.667,0,0,1-.64-.691h0A.665.665,0,0,1,284.2,167.575Z" transform="translate(-283.506 -165.955)"/></g><g transform="translate(9.608 5.345)"><path class="e" d="M290.049,167.538l.266.01a.5.5,0,0,0,.523-.485l.01-.265a.5.5,0,0,1,.523-.485h0a.5.5,0,0,1,.485.523l-.011.265a.507.507,0,0,0,.485.523l.266.01a.506.506,0,0,1,.485.523h0a.507.507,0,0,1-.523.485l-.267-.011a.507.507,0,0,0-.523.485l-.01.266a.5.5,0,0,1-.523.484h0a.5.5,0,0,1-.484-.522l.01-.267a.5.5,0,0,0-.485-.523l-.267-.01a.5.5,0,0,1-.483-.522h0A.5.5,0,0,1,290.049,167.538Z" transform="translate(-289.527 -166.312)"/></g><g transform="translate(4.219)"><path class="e" d="M287.167,165.346l.519.019a.981.981,0,0,0,1.017-.943l.019-.517a.979.979,0,0,1,1.017-.941h0a.98.98,0,0,1,.943,1.016l-.019.517a.979.979,0,0,0,.941,1.016l.517.019a.98.98,0,0,1,.943,1.018h0a.979.979,0,0,1-1.017.941l-.517-.019a.981.981,0,0,0-1.017.943l-.021.515a.98.98,0,0,1-1.016.943h0a.979.979,0,0,1-.941-1.016l.019-.517a.981.981,0,0,0-.943-1.016l-.517-.019a.981.981,0,0,1-.943-1.017h0A.98.98,0,0,1,287.167,165.346Z" transform="translate(-286.15 -162.963)"/></g></g><g transform="translate(332.489 60.858)"><path class="o" d="M424.254,217.024a3.152,3.152,0,1,0,3.153,3.152A3.155,3.155,0,0,0,424.254,217.024Z" transform="translate(-402.002 -188.731)"/><path class="o" d="M426.175,212.064a10.979,10.979,0,0,0-7.717,3.172,2.032,2.032,0,0,0-.018,2.826h0a2,2,0,0,0,2.857.091,6.9,6.9,0,0,1,9.755,0,2,2,0,0,0,2.858-.091h0a2.033,2.033,0,0,0-.018-2.826A10.98,10.98,0,0,0,426.175,212.064Z" transform="translate(-403.923 -191.686)"/><path class="o" d="M431.384,199.294a31.271,31.271,0,0,0-21.656,8.714,2.017,2.017,0,0,0-.032,2.829l.2.209a2.01,2.01,0,0,0,2.842.113,26.929,26.929,0,0,1,37.3,0,2.01,2.01,0,0,0,2.844-.113l.2-.209a2.017,2.017,0,0,0-.032-2.829A31.275,31.275,0,0,0,431.384,199.294Z" transform="translate(-409.133 -199.294)"/><path class="o" d="M428.526,206.242a20.251,20.251,0,0,0-13.89,5.509,2.2,2.2,0,0,0-.115,3.115h0a2.168,2.168,0,0,0,3.073.077,15.945,15.945,0,0,1,21.864,0,2.168,2.168,0,0,0,3.073-.077h0a2.2,2.2,0,0,0-.115-3.115A20.254,20.254,0,0,0,428.526,206.242Z" transform="translate(-406.274 -195.155)"/></g><g transform="translate(250.192 226.678)"><ellipse class="m" cx="76.264" cy="5.818" rx="76.264" ry="5.818" transform="translate(0 58)"/><g transform="translate(15.675)"><rect class="g" width="121.988" height="62.892"/><path class="f" d="M372.233,316.283v31.61a9,9,0,0,1,9,9c0,.092-.011.18-.014.271h87.753c0-.091-.014-.179-.014-.271a9,9,0,0,1,9-9c.265,0,.525.016.785.04v-31.69c-.26.022-.52.04-.785.04a9,9,0,0,1-9-9H381.233A9,9,0,0,1,372.233,316.283Z" transform="translate(-364.494 -300.777)"/><circle class="g" cx="19.518" cy="19.518" r="19.518" transform="matrix(0.161, -0.987, 0.987, 0.161, 38.592, 47.572)"/><g transform="translate(13.419 27.379)"><path class="g" d="M383.924,324.43a4.066,4.066,0,1,1-4.066-4.066A4.066,4.066,0,0,1,383.924,324.43Z" transform="translate(-375.792 -320.364)"/><path class="g" d="M438.455,324.43a4.066,4.066,0,1,1-4.066-4.066A4.067,4.067,0,0,1,438.455,324.43Z" transform="translate(-343.304 -320.364)"/></g><g transform="translate(53.258 18.952)"><path class="e" d="M410.036,337.093v2.978h-2.659v-2.9a12.605,12.605,0,0,1-6.619-2.127l1.462-3.243a10.746,10.746,0,0,0,5.158,1.886v-4.439c-2.951-.718-6.247-1.7-6.247-5.5,0-2.818,2.047-5.237,6.247-5.716v-2.951h2.659v2.9a12.029,12.029,0,0,1,5.4,1.62l-1.329,3.271a10.885,10.885,0,0,0-4.068-1.382v4.518c2.951.693,6.193,1.676,6.193,5.424C416.229,334.2,414.209,336.589,410.036,337.093Zm-2.659-11.75v-3.776c-1.409.319-1.968,1.09-1.968,1.968C405.41,324.466,406.208,324.972,407.377,325.344Zm4.572,6.407c0-.93-.771-1.435-1.913-1.835v3.669C411.365,333.292,411.949,332.6,411.949,331.751Z" transform="translate(-400.758 -315.083)"/></g></g></g><g transform="translate(0 106.873)"><ellipse class="p" cx="38.631" cy="5.818" rx="38.631" ry="5.818" transform="translate(22.529 158.256)"/><path class="j" d="M200.776,315a5.262,5.262,0,0,1,.118-1.055c.016-.077.037-.15.056-.225a5.219,5.219,0,0,1,.286-.841c.014-.034.019-.069.035-.1s.032-.062.046-.093c.032-.064.062-.129.1-.191.014-.024.024-.05.038-.073.051-.093.116-.177.172-.268s.131-.215.206-.316a5.173,5.173,0,0,1,.479-.562l.021-.022h0a5.448,5.448,0,0,1,.565-.483c.059-.043.12-.083.18-.124a5.141,5.141,0,0,1,.477-.292c.064-.035.128-.072.195-.105a5.473,5.473,0,0,1,.712-.292l1.747-.56,3.622-1.16a4.148,4.148,0,0,0,2.687-2.713,33.32,33.32,0,0,1,8.754-14.024c-1.917-7.452-1.91-17.119.582-18.425,3.042-1.593,14.872,3.522,19.516,5.647a4.321,4.321,0,0,1,1.415,1.064,80.715,80.715,0,0,1,21.955-2.938c25.582,0,46.566,11.076,48.732,35.393l.006-.046h0c.029.332.056.666.078,1l0,.019.006.1c.008.134.014.271.022.408s.016.254.022.383l.006.12c.006.126.01.255.014.383.01.233.019.466.024.7.01.381.016.766.016,1.154a44.294,44.294,0,0,1-.356,5.673l-.006.045c-.132,1.012-.306,1.995-.507,2.96-.062.3-.137.587-.206.881-.16.686-.332,1.361-.527,2.023-.041.144-.07.3-.113.439-.034.11-.069.219-.1.329-.086.27-.174.538-.267.806l-.046.132-.04.12-.024.067q-.381,1.072-.822,2.1l-.035.083-.032.073-.025.061q-.218.5-.448.985c-.026.054-.053.107-.078.16q-.215.448-.445.89l-.042.078-.018.038-.019.035q-.249.474-.512.937l-.115.2c-.118.206-.247.4-.37.606-.109.18-.217.361-.329.539-.364.579-.74,1.149-1.138,1.7L307,338.5l-.057.08-.088.118q-.239.326-.485.646l-.195.252c-.223.282-.448.563-.68.838l-.006.008q-.347.414-.708.815c-.072.081-.147.161-.22.243q-.268.294-.544.584l-.1.1-.072.075-.051.054c-.252.259-.507.515-.766.768l0,0q-.436.421-.886.828-.9.814-1.856,1.573t-1.971,1.465q-.508.354-1.026.691c-.313.2-.629.4-.948.6l-.072.043-.081.049-.124.075q-.361.218-.728.431c-.1.054-.193.112-.29.166q-.491.28-.993.549l-.008,0a1.107,1.107,0,0,0-.348.3l-.022.03a1.1,1.1,0,0,0-.184.417l0,.01-2.668,13.858a2.755,2.755,0,0,1-.132.472q-.043.113-.1.22c-.035.072-.072.142-.113.211a2.336,2.336,0,0,1-.129.2c-.046.064-.1.126-.147.187s-.121.131-.185.193l-.062.056c-.021.019-.043.037-.064.054l-.045.038-.035.029-.075.057c-.049.037-.1.072-.155.105-.024.014-.046.03-.072.045l-.021.011-.026.014c-.062.035-.124.07-.188.1l0,0c-.062.029-.129.054-.195.078l-.034.013-.021.01c-.027.01-.054.018-.081.026-.059.019-.121.037-.184.051-.03.008-.062.014-.094.021l-.043.008-.065.011-.081.014-.088.011c-.092.01-.185.014-.279.016H279.09c-.016,0-.03-.006-.046-.006a2.773,2.773,0,0,1-.5-.056c-.062-.013-.123-.032-.184-.049a2.738,2.738,0,0,1-.34-.115c-.03-.014-.065-.019-.1-.033s-.072-.043-.11-.064c-.065-.034-.128-.07-.19-.109-.035-.022-.073-.038-.107-.062s-.064-.054-.1-.08a2.122,2.122,0,0,1-.172-.142c-.03-.027-.065-.049-.094-.078a.7.7,0,0,1-.049-.064,2.646,2.646,0,0,1-.383-.487l0,0a2.776,2.776,0,0,1-.209-.432,2.681,2.681,0,0,1-.134-.472l-1.459-7.7a1.064,1.064,0,0,0-.148-.373l-.013-.022a1.283,1.283,0,0,0-.464-.378,1.359,1.359,0,0,0-.137-.065c-.021-.006-.041-.013-.064-.018a1.086,1.086,0,0,0-.375-.027h-.01c-.485.057-.972.107-1.462.153l-.367.035c-.49.043-.98.085-1.474.12l-.006,0c-.332.022-.667.042-1,.061l-.2.011c-.094,0-.188.013-.284.018l-.375.019c-.5.022-1,.043-1.506.057-.756.021-1.519.032-2.284.032q-1.534,0-3.067-.057-.785-.029-1.567-.072l-.16-.011c-.437-.025-.873-.054-1.31-.086l-.029,0-.081-.006-.034,0c-.408-.032-.812-.08-1.221-.116-.6-.054-1.2-.1-1.79-.171l-.086-.008-.01,0q-.7-.081-1.407-.174c-.227-.029-.452-.064-.677-.1-.246-.033-.493-.067-.739-.1a1.094,1.094,0,0,0-.4.018.7.7,0,0,0-.1.035,1.14,1.14,0,0,0-.525.369,1.15,1.15,0,0,0-.1.152,1.012,1.012,0,0,0-.118.294l0,.014-.768,4.053-.768,4.055a2.765,2.765,0,0,1-2.716,2.252h-9.011a2.7,2.7,0,0,1-.281-.016l-.086-.011-.083-.014-.067-.011-.042-.006-.094-.022c-.061-.014-.123-.032-.184-.051-.027-.008-.054-.016-.081-.026l-.018-.008-.049-.019c-.061-.024-.123-.046-.182-.075h0c-.061-.029-.118-.061-.176-.094l-.049-.026-.013-.006-.07-.045c-.054-.034-.105-.069-.156-.107l-.073-.056-.027-.022-.065-.054-.051-.045c-.021-.019-.043-.037-.062-.056a2.626,2.626,0,0,1-.185-.193l0,0,0,0c-.022-.025-.042-.053-.062-.078a2.974,2.974,0,0,1-.2-.282,2.76,2.76,0,0,1-.357-.924l-2.77-14.673a1.092,1.092,0,0,0-.573-.766l0,0c-.215-.112-.426-.23-.64-.345s-.45-.238-.672-.361c-.191-.107-.378-.219-.568-.327-.238-.137-.479-.271-.715-.412-.193-.117-.381-.236-.573-.354-.227-.139-.455-.274-.677-.417-.2-.128-.394-.26-.592-.389s-.421-.275-.627-.415-.385-.271-.576-.407-.409-.282-.608-.429-.367-.276-.551-.415c-.2-.15-.4-.3-.6-.45l0,0,0,0c-.177-.139-.349-.284-.525-.426-.2-.158-.394-.314-.587-.475-.177-.147-.348-.3-.522-.453s-.364-.31-.541-.469l-.011-.01,0,0c-.168-.152-.33-.308-.5-.463s-.362-.332-.539-.5c-.161-.156-.314-.316-.472-.476s-.34-.335-.506-.506l-.014-.016,0,0c-.156-.161-.3-.329-.456-.493s-.335-.356-.5-.538c-.148-.166-.289-.338-.434-.506s-.3-.351-.452-.53l-.024-.027v0c-.142-.171-.274-.348-.413-.522-.152-.191-.306-.38-.453-.574-.134-.179-.263-.362-.394-.543s-.265-.359-.393-.541l-.038-.054c-.126-.182-.246-.369-.369-.554s-.27-.4-.4-.6c-.16-.251-.3-.512-.464-.763-.083-.129-.16-.262-.238-.394l-.016-.026a3.99,3.99,0,0,0-2.217-1.811l-.011,0h0l-4.414-1.414-4.238-1.356a5.3,5.3,0,0,1-3.681-5.047Z" transform="translate(-200.776 -201.531)"/><path class="j" d="M277.981,301.509a10.893,10.893,0,0,1-2.215-1.449c-2.046,1.253-3.7,2.068-3.79,2.113a1.906,1.906,0,0,1-2.579-.929,1.958,1.958,0,0,1,.965-2.531c1.013-.5,2.041-1.063,3.032-1.658a9.5,9.5,0,0,1-.978-3.745,7.818,7.818,0,0,1,3.109-7.036,5.276,5.276,0,0,1,5.435-.1c2.667,1.409,3.2,3.259,3.184,4.564-.032,2.2-1.677,4.514-5.019,7.047.172.105.357.207.552.3a9.361,9.361,0,0,0,8.055.4,2,2,0,0,1,2.612.98l0,.008a2,2,0,0,1-.892,2.615c-.121.064-.249.128-.385.192C286.949,303.277,283.174,304.086,277.981,301.509Zm-.4-12.021a4.161,4.161,0,0,0-1.356,3.614,5.762,5.762,0,0,0,.4,1.8c2.161-1.613,3.686-3.2,3.7-4.217.006-.453-.718-.9-1.151-1.133a1.526,1.526,0,0,0-1.427-.156A1.347,1.347,0,0,0,277.584,289.488Z" transform="translate(-159.99 -193.967)"/><path class="i" d="M233.092,281.989" transform="translate(-181.523 -196.043)"/><path class="g" d="M226.116,292.2a3.439,3.439,0,1,1-3.439-3.439A3.438,3.438,0,0,1,226.116,292.2Z" transform="translate(-189.777 -192.007)"/><g transform="translate(48.702 81.54)"><path class="i" d="M234.247,286.992a2.982,2.982,0,0,1-2.639-1.511,2.642,2.642,0,0,1,1.318-3.664c.484-.225,12.062-5.445,29.933-.4a2.7,2.7,0,0,1,1.963,3.407,2.986,2.986,0,0,1-3.678,1.818c-15.646-4.408-25.483.014-25.58.059A3.134,3.134,0,0,1,234.247,286.992Z" transform="translate(-231.296 -279.228)"/></g><g transform="translate(42.294)"><circle class="f" cx="20.823" cy="20.823" r="20.823" transform="translate(2.412 2.412)"/><path class="g" d="M250.516,274.6a23.235,23.235,0,1,1,23.234-23.236A23.261,23.261,0,0,1,250.516,274.6Zm0-41.646a18.411,18.411,0,1,0,18.41,18.41A18.432,18.432,0,0,0,250.516,232.954Z" transform="translate(-227.28 -228.13)"/><g transform="translate(15.243 10.326)"><path class="e" d="M246.418,257.342v3.077h-2.746v-3a13.005,13.005,0,0,1-6.839-2.2l1.511-3.349a11.1,11.1,0,0,0,5.328,1.95v-4.588c-3.049-.74-6.455-1.757-6.455-5.684,0-2.912,2.114-5.41,6.455-5.906V234.6h2.746v2.994a12.442,12.442,0,0,1,5.574,1.676l-1.372,3.378a11.239,11.239,0,0,0-4.2-1.428v4.669c3.048.713,6.4,1.73,6.4,5.6C252.817,254.349,250.73,256.82,246.418,257.342ZM243.671,245.2v-3.9c-1.457.329-2.033,1.125-2.033,2.031C241.638,244.3,242.462,244.819,243.671,245.2Zm4.724,6.621c0-.962-.8-1.484-1.977-1.9v3.79C247.79,253.415,248.395,252.7,248.395,251.823Z" transform="translate(-236.832 -234.601)"/></g></g><g transform="translate(58.079 48.527)"><rect class="i" width="3.353" height="22.844" rx="0.853" transform="translate(0 1.72)"/><rect class="i" width="3.353" height="25.137" rx="0.853" transform="translate(11.549)"/><rect class="i" width="3.353" height="17.195" rx="0.853" transform="translate(5.588 2.784)"/></g></g><g transform="translate(295.538 4.551)"><g transform="translate(0 0)"><path class="o" d="M408.517,209.088a22.539,22.539,0,1,1,22.54-22.54A22.566,22.566,0,0,1,408.517,209.088Zm0-41.78a19.241,19.241,0,1,0,19.242,19.24A19.263,19.263,0,0,0,408.517,167.307Z" transform="translate(-385.977 -164.009)"/></g><g transform="translate(10.479)"><path class="o" d="M404.6,208.813a1.644,1.644,0,0,1-.681-.148c-.464-.209-11.379-5.352-11.379-21.894,0-16.476,10.835-22.334,11.3-22.574a1.648,1.648,0,0,1,2.413,1.46v41.506a1.649,1.649,0,0,1-1.648,1.65Zm-1.65-39.915c-2.824,2.539-7.112,8.012-7.112,17.873,0,9.811,4.317,14.991,7.112,17.316Z" transform="translate(-392.544 -164.009)"/></g><g transform="translate(21.303)"><path class="o" d="M400.975,208.813a1.651,1.651,0,0,1-1.648-1.65V165.658a1.648,1.648,0,0,1,2.413-1.46c.461.239,11.3,6.1,11.3,22.574,0,16.542-10.915,21.685-11.379,21.894A1.639,1.639,0,0,1,400.975,208.813Zm1.65-39.889v35.187c2.8-2.307,7.112-7.46,7.112-17.34C409.738,176.991,405.448,171.487,402.625,168.924Z" transform="translate(-399.327 -164.009)"/></g><g transform="translate(1.787 15.529)"><rect class="o" width="41.507" height="3.298"/><g transform="translate(0 10.72)"><rect class="o" width="41.507" height="3.299"/></g></g></g></g></g></svg>